<svg width="67" height="67" viewBox="0 0 67 67" fill="none" xmlns="http://www.w3.org/2000/svg">
<path d="M0.5 15.8584C0.5 7.44673 7.31905 0.627686 15.7308 0.627686H51.2692C59.681 0.627686 66.5 7.44673 66.5 15.8585V51.3969C66.5 59.8086 59.681 66.6277 51.2692 66.6277H15.7308C7.31904 66.6277 0.5 59.8086 0.5 51.3969V15.8584Z" fill="white"/>
<g clip-path="url(#clip0_580_1522)">
<path fill-rule="evenodd" clip-rule="evenodd" d="M53.1975 29.3015C53.1975 31.2813 52.8075 33.2416 52.0499 35.0707C51.2923 36.8997 50.1819 38.5616 48.782 39.9615C47.3821 41.3614 45.7201 42.4719 43.8911 43.2295C42.062 43.9871 40.1017 44.3771 38.1219 44.3771C36.1422 44.3771 34.1818 43.9871 32.3528 43.2295C30.5237 42.4719 28.8618 41.3614 27.4619 39.9615C26.062 38.5616 24.9515 36.8997 24.1939 35.0707C23.4363 33.2416 23.0464 31.2813 23.0464 29.3015C23.0464 25.3032 24.6347 21.4687 27.4619 18.6415C30.2891 15.8143 34.1236 14.226 38.1219 14.226C42.1202 14.226 45.9547 15.8143 48.782 18.6415C51.6092 21.4687 53.1975 25.3032 53.1975 29.3015ZM38.1234 17.9176C38.7004 17.9176 39.2539 18.1468 39.6619 18.5549C40.07 18.9629 40.2992 19.5164 40.2992 20.0934V21.0131C41.1331 21.2119 41.9039 21.6163 42.5414 22.1894C43.1788 22.7625 43.6627 23.4861 43.9488 24.2942C44.1411 24.8386 44.1094 25.4371 43.8605 25.958C43.6116 26.4789 43.1659 26.8797 42.6215 27.072C42.0772 27.2644 41.4787 27.2326 40.9577 26.9837C40.4368 26.7348 40.0361 26.2891 39.8437 25.7448C39.7893 25.5929 39.6894 25.4614 39.5575 25.3685C39.4256 25.2755 39.2682 25.2256 39.1068 25.2255H36.8208C36.7068 25.2259 36.5969 25.2682 36.5122 25.3444C36.4274 25.4205 36.3736 25.5253 36.361 25.6385C36.3485 25.7518 36.378 25.8658 36.4441 25.9587C36.5102 26.0516 36.6081 26.1169 36.7192 26.1422L40.2035 26.9023C41.3385 27.1516 42.3554 27.7785 43.0879 28.6806C43.8205 29.5827 44.2255 30.7066 44.2366 31.8686C44.2477 33.0306 43.8643 34.162 43.1491 35.078C42.434 35.9939 41.4292 36.6401 40.2992 36.9111V37.8307C40.2992 38.4078 40.07 38.9612 39.6619 39.3693C39.2539 39.7773 38.7004 40.0066 38.1234 40.0066C37.5463 40.0066 36.9929 39.7773 36.5848 39.3693C36.1768 38.9612 35.9476 38.4078 35.9476 37.8307V36.9111C35.1137 36.7123 34.3429 36.3079 33.7054 35.7347C33.0679 35.1616 32.5841 34.438 32.298 33.63C32.2025 33.3606 32.1611 33.0751 32.176 32.7897C32.1909 32.5044 32.2619 32.2247 32.3848 31.9668C32.6332 31.4458 33.0783 31.0449 33.6223 30.8521C34.1663 30.6594 34.7646 30.6907 35.2855 30.939C35.8064 31.1874 36.2074 31.6325 36.4001 32.1765C36.454 32.329 36.5538 32.461 36.6857 32.5545C36.8177 32.648 36.9753 32.6984 37.137 32.6987H39.1098C39.3011 32.6959 39.4848 32.6232 39.6261 32.4942C39.7675 32.3653 39.8568 32.189 39.8771 31.9988C39.8975 31.8085 39.8475 31.6174 39.7366 31.4615C39.6257 31.3055 39.4615 31.1956 39.2751 31.1524L35.7909 30.3923C34.7047 30.1544 33.7343 29.5479 33.0445 28.6759C32.3546 27.8038 31.9877 26.7199 32.0062 25.6081C32.0246 24.4963 32.4272 23.4252 33.1457 22.5765C33.8641 21.7278 34.8541 21.1539 35.9476 20.9522V20.0934C35.9476 19.8077 36.0038 19.5248 36.1132 19.2608C36.2225 18.9968 36.3828 18.7569 36.5848 18.5549C36.7869 18.3528 37.0267 18.1926 37.2907 18.0832C37.5547 17.9739 37.8376 17.9176 38.1234 17.9176ZM38.1234 48.002C39.0711 48.002 39.9994 47.9333 40.9084 47.796C39.5673 49.3962 37.9084 50.7003 36.0369 51.6257C34.1654 52.5511 32.122 53.0777 30.0363 53.172C27.9506 53.2663 25.868 52.9263 23.9206 52.1736C21.9732 51.4209 20.2034 50.2718 18.7233 48.7992C17.2433 47.3266 16.0853 45.5626 15.3227 43.619C14.5601 41.6754 14.2096 39.5946 14.2934 37.5085C14.3772 35.4223 14.8934 33.3763 15.8093 31.5001C16.7253 29.6239 18.021 27.9585 19.6144 26.6093C19.228 29.2649 19.4178 31.9726 20.1707 34.5484C20.9237 37.1242 22.2222 39.5078 23.978 41.5372C25.7339 43.5666 27.906 45.1944 30.3468 46.3099C32.7875 47.4254 35.4398 48.0025 38.1234 48.002Z" fill="url(#paint0_linear_580_1522)"/>
</g>
<defs>
<linearGradient id="paint0_linear_580_1522" x1="16.9196" y1="14.226" x2="65.1967" y2="27.2705" gradientUnits="userSpaceOnUse">
<stop stop-color="#0146F8"/>
<stop offset="1" stop-color="#962EB9"/>
</linearGradient>
<clipPath id="clip0_580_1522">
<rect width="40.6154" height="40.6154" fill="white" transform="translate(13.1914 13.3199)"/>
</clipPath>
</defs>
</svg>
