<svg width="67" height="67" viewBox="0 0 67 67" fill="none" xmlns="http://www.w3.org/2000/svg">
<path d="M0.5 15.8584C0.5 7.44673 7.31905 0.627686 15.7308 0.627686H51.2692C59.681 0.627686 66.5 7.44673 66.5 15.8585V51.3969C66.5 59.8086 59.681 66.6277 51.2692 66.6277H15.7308C7.31904 66.6277 0.5 59.8086 0.5 51.3969V15.8584Z" fill="white"/>
<path d="M33.4983 15.0122L18.2676 21.7814V31.9353C18.2676 41.3276 24.766 50.1107 33.4983 52.243C42.2307 50.1107 48.7291 41.3276 48.7291 31.9353V21.7814L33.4983 15.0122ZM33.4983 33.6107H45.3445C44.4476 40.583 39.7937 46.7937 33.4983 48.7399V33.6276H21.6522V23.9814L33.4983 18.7184V33.6107Z" fill="url(#paint0_linear_580_1546)"/>
<defs>
<linearGradient id="paint0_linear_580_1546" x1="20.3328" y1="15.0122" x2="58.9868" y2="23.5675" gradientUnits="userSpaceOnUse">
<stop stop-color="#0146F8"/>
<stop offset="1" stop-color="#962EB9"/>
</linearGradient>
</defs>
</svg>
