<svg width="67" height="67" viewBox="0 0 67 67" fill="none" xmlns="http://www.w3.org/2000/svg">
<path d="M0.5 15.8584C0.5 7.44673 7.31905 0.627686 15.7308 0.627686H51.2692C59.681 0.627686 66.5 7.44673 66.5 15.8585V51.3969C66.5 59.8086 59.681 66.6277 51.2692 66.6277H15.7308C7.31904 66.6277 0.5 59.8086 0.5 51.3969V15.8584Z" fill="white"/>
<path d="M23.6691 26.9214C23.4001 27.1904 23.0423 27.352 22.6626 27.3759C22.283 27.3997 21.9077 27.2843 21.6071 27.0511L21.4603 26.9214L16.7739 22.2351C16.5049 21.9661 16.3434 21.6082 16.3195 21.2285C16.2956 20.8489 16.4111 20.4736 16.6442 20.173L16.7739 20.0262L21.4603 15.3398C21.7293 15.0708 22.0872 14.9093 22.4668 14.8854C22.8464 14.8615 23.2217 14.977 23.5223 15.2102L23.6691 15.3398L27.8994 19.5685H42.8021L43.1458 19.5763C45.1732 19.6666 47.0876 20.5356 48.4903 22.0022C49.8931 23.4688 50.6759 25.42 50.6759 27.4494C50.6759 29.4789 49.8931 31.4301 48.4903 32.8967C47.0876 34.3633 45.1732 35.2323 43.1458 35.3226L42.8021 35.3288L38.6953 35.3273L34.604 39.42C34.3349 39.6888 33.9769 39.8501 33.5972 39.8736C33.2176 39.8972 32.8424 39.7815 32.542 39.5481L32.3952 39.4185L28.3024 35.3273H24.0581L23.7863 35.3366C22.6125 35.4083 21.5104 35.9251 20.7046 36.7816C19.8988 37.6381 19.4502 38.7698 19.4502 39.9457C19.4502 41.1216 19.8988 42.2533 20.7046 43.1098C21.5104 43.9663 22.6125 44.4831 23.7863 44.5548L24.0581 44.5626H42.8724V41.4383C42.8724 40.1074 44.4127 39.4122 45.4077 40.2152L45.539 40.3339L50.2253 45.0203C50.4943 45.2893 50.6559 45.6472 50.6798 46.0268C50.7036 46.4064 50.5882 46.7817 50.355 47.0823L50.2253 47.2291L45.539 51.9155C44.5986 52.8575 43.0177 52.2592 42.8818 50.9892L42.8724 50.8111V47.6868H24.0581L23.7222 47.679C21.7312 47.5895 19.8513 46.7356 18.474 45.295C17.0967 43.8543 16.328 41.938 16.328 39.9449C16.328 37.9518 17.0967 36.0355 18.474 34.5949C19.8513 33.1543 21.7312 32.3003 23.7222 32.2108L24.0581 32.2046L28.0259 32.203L32.3952 27.8369C32.6642 27.5679 33.0221 27.4063 33.4017 27.3824C33.7813 27.3586 34.1566 27.474 34.4572 27.7072L34.604 27.8369L38.9718 32.203H42.8037L43.0817 32.1968C44.2916 32.1239 45.4281 31.592 46.259 30.7096C47.0899 29.8271 47.5526 28.6607 47.5526 27.4487C47.5526 26.2366 47.0899 25.0702 46.259 24.1878C45.4281 23.3053 44.2916 22.7734 43.0817 22.7006L42.8037 22.6928H27.8978L23.6691 26.9214Z" fill="url(#paint0_linear_580_1530)"/>
<defs>
<linearGradient id="paint0_linear_580_1530" x1="18.6463" y1="14.8823" x2="61.7423" y2="25.5679" gradientUnits="userSpaceOnUse">
<stop stop-color="#0146F8"/>
<stop offset="1" stop-color="#962EB9"/>
</linearGradient>
</defs>
</svg>
