<svg width="67" height="67" viewBox="0 0 67 67" fill="none" xmlns="http://www.w3.org/2000/svg">
<path d="M0.5 15.8584C0.5 7.44673 7.31905 0.627686 15.7308 0.627686H51.2692C59.681 0.627686 66.5 7.44673 66.5 15.8585V51.3969C66.5 59.8086 59.681 66.6277 51.2692 66.6277H15.7308C7.31904 66.6277 0.5 59.8086 0.5 51.3969V15.8584Z" fill="white"/>
<g clip-path="url(#clip0_580_1538)">
<path d="M40.2674 40.3969C40.2674 38.5269 34.9637 37.0123 28.4213 37.0123M40.2674 40.3969C40.2674 42.2669 34.9637 43.7815 28.4213 43.7815C21.8788 43.7815 16.5751 42.2669 16.5751 40.3969M40.2674 40.3969V48.7518C40.2674 50.6794 34.9637 52.2431 28.4213 52.2431C21.8788 52.2431 16.5751 50.6811 16.5751 48.7518V40.3969M40.2674 40.3969C46.7388 40.3969 52.1136 38.7266 52.1136 37.0123V20.0892M28.4213 37.0123C21.8788 37.0123 16.5751 38.5269 16.5751 40.3969M28.4213 37.0123C20.9447 37.0123 14.8828 35.342 14.8828 33.6277V25.1661M28.4213 21.7815C20.9447 21.7815 14.8828 23.2961 14.8828 25.1661M14.8828 25.1661C14.8828 27.0361 20.9447 28.5507 28.4213 28.5507C28.4213 30.2651 33.9264 31.9354 40.3977 31.9354C46.8691 31.9354 52.1136 30.2651 52.1136 28.5507M52.1136 20.0892C52.1136 18.2192 46.8674 16.7046 40.3977 16.7046C33.928 16.7046 28.6819 18.2192 28.6819 20.0892M52.1136 20.0892C52.1136 21.9592 46.8674 23.4738 40.3977 23.4738C33.928 23.4738 28.6819 21.9592 28.6819 20.0892M28.6819 20.0892V37.2932" stroke="url(#paint0_linear_580_1538)" stroke-width="2.66667"/>
</g>
<defs>
<linearGradient id="paint0_linear_580_1538" x1="17.4069" y1="16.7046" x2="63.2808" y2="29.7051" gradientUnits="userSpaceOnUse">
<stop stop-color="#0146F8"/>
<stop offset="1" stop-color="#962EB9"/>
</linearGradient>
<clipPath id="clip0_580_1538">
<rect width="40.6154" height="40.6154" fill="white" transform="translate(13.1914 13.3199)"/>
</clipPath>
</defs>
</svg>
