<svg width="88" height="33" viewBox="0 0 88 33" fill="none" xmlns="http://www.w3.org/2000/svg">
<g clip-path="url(#clip0_505_1694)">
<path d="M21.4364 22.4547C21.4364 25.4158 20.558 27.7746 18.8012 29.5313C16.8273 31.6236 14.2317 32.6697 11.0143 32.6697C7.93515 32.6697 5.32959 31.6038 3.19762 29.4721C1.06587 27.3402 0 24.715 0 21.5964C0 18.4775 1.06587 15.8522 3.19762 13.7206C5.32947 11.5888 7.93509 10.5228 11.0145 10.5228C12.5737 10.5228 14.0443 10.7991 15.426 11.3518C16.8078 11.9044 17.9428 12.6841 18.831 13.6908L16.8769 15.6449C16.2256 14.8554 15.3817 14.2386 14.3454 13.7945C13.309 13.3503 12.1986 13.1283 11.0143 13.1283C8.70496 13.1283 6.75086 13.9277 5.152 15.5266C3.57288 17.1452 2.78332 19.1684 2.78332 21.5964C2.78332 24.0243 3.57288 26.0475 5.152 27.666C6.75086 29.2648 8.70502 30.0643 11.0145 30.0643C13.1266 30.0643 14.8833 29.4721 16.2848 28.2878C17.6862 27.1034 18.4954 25.4749 18.7125 23.4023H11.0145V20.8559H21.2885C21.3872 21.4088 21.4366 21.9418 21.4366 22.4549" fill="url(#paint0_radial_505_1694)"/>
<path d="M29.9876 17.2743C32.1609 17.2743 33.8905 17.9771 35.1766 19.3827C36.4627 20.7884 37.1057 22.7574 37.1057 25.2896L37.0758 25.5887H25.5612C25.6012 27.0242 26.0797 28.1807 26.9968 29.058C27.914 29.9351 29.0107 30.3737 30.2867 30.3737C32.0412 30.3737 33.417 29.4965 34.414 27.742L36.8664 28.9383C36.2084 30.1745 35.2962 31.1415 34.1299 31.8394C32.9636 32.5373 31.6427 32.8862 30.167 32.8862C28.0137 32.8862 26.2392 32.1484 24.8434 30.6729C23.4477 29.1974 22.7499 27.3332 22.75 25.0802C22.75 22.8471 23.4279 20.9878 24.7837 19.5024C26.1395 18.017 27.8741 17.2743 29.9876 17.2743ZM29.9279 19.7866C28.891 19.7866 27.9988 20.1056 27.2511 20.7436C26.5033 21.3816 26.0098 22.2389 25.7706 23.3155H34.1747C34.095 22.2987 33.6813 21.4564 32.9335 20.7885C32.1857 20.1206 31.1838 19.7867 29.9279 19.7866Z" fill="url(#paint1_radial_505_1694)"/>
<path d="M41.6162 32.3615H38.873V17.7513H41.497V19.7789H41.6162C42.0338 19.0633 42.6749 18.467 43.5394 17.9899C44.4041 17.5126 45.2639 17.2741 46.1187 17.2742C47.192 17.2742 48.1362 17.5227 48.9512 18.0197C49.7662 18.5166 50.3625 19.2023 50.7401 20.0769C51.9528 18.2084 53.6325 17.2742 55.7793 17.2742C57.4689 17.2742 58.7709 17.791 59.6853 18.8248C60.5997 19.8583 61.0569 21.3293 61.0569 23.2376V32.3615H58.3137V23.6551C58.3137 22.2834 58.0652 21.2945 57.5682 20.6883C57.0713 20.082 56.2365 19.7789 55.0637 19.7789C54.0101 19.7789 53.1255 20.2261 52.4101 21.1206C51.6944 22.015 51.3365 23.0686 51.3365 24.2811V32.3615H48.5934V23.6551C48.5934 22.2834 48.3449 21.2945 47.8479 20.6883C47.3509 20.082 46.5161 19.7789 45.3433 19.7789C44.2897 19.7789 43.4052 20.2261 42.6897 21.1206C41.974 22.015 41.6162 23.0686 41.6162 24.2811V32.3615Z" fill="url(#paint2_radial_505_1694)"/>
<path d="M66.9392 12.6804C66.9392 13.2179 66.75 13.6758 66.3717 14.054C65.9934 14.4325 65.5354 14.6217 64.9979 14.6217C64.4604 14.6217 64.0025 14.4325 63.6241 14.0542C63.2458 13.6759 63.0566 13.2179 63.0566 12.6804C63.0566 12.1428 63.2458 11.6848 63.6241 11.3066C64.0025 10.9283 64.4603 10.7391 64.9977 10.7391C65.5356 10.7391 65.9936 10.9283 66.3717 11.3066C66.75 11.685 66.9392 12.1428 66.9392 12.6802M66.3717 17.7274V32.3614H63.6241V17.7276L66.3717 17.7274Z" fill="url(#paint3_linear_505_1694)"/>
<path d="M87.1501 12.6804C87.1501 13.2179 86.961 13.6758 86.5826 14.054C86.2043 14.4325 85.7464 14.6217 85.209 14.6217C84.6712 14.6217 84.2132 14.4325 83.8351 14.0542C83.4569 13.6759 83.2677 13.2179 83.2676 12.6804C83.2676 12.1428 83.4567 11.6848 83.8351 11.3066C84.2134 10.9283 84.6713 10.7391 85.2089 10.7391C85.7464 10.7391 86.2043 10.9283 86.5826 11.3066C86.961 11.685 87.1501 12.1428 87.1501 12.6802M86.5826 17.7274V32.3614H83.8351V17.7276L86.5826 17.7274Z" fill="url(#paint4_radial_505_1694)"/>
<path d="M68.7676 17.7514H71.3914V19.779H71.5106C71.9281 19.0634 72.5693 18.4671 73.434 17.99C74.2986 17.5128 75.1981 17.2742 76.1323 17.2743C77.9213 17.2743 79.2978 17.7862 80.2619 18.81C81.226 19.8335 81.708 21.2896 81.708 23.1781V32.3616H78.9649V23.357C78.9052 20.9717 77.7026 19.779 75.357 19.779C74.2638 19.779 73.3494 20.2212 72.6139 21.1058C71.8783 21.9903 71.5106 23.0488 71.5107 24.2813V32.3616H68.7676V17.7514Z" fill="url(#paint5_linear_505_1694)"/>
<path d="M59.2978 13.2835C58.8134 10.0855 56.3034 7.57574 53.1055 7.09114C56.3034 6.60655 58.8134 4.09659 59.2978 0.898804C59.7824 4.09659 62.2924 6.60655 65.4902 7.09114C62.2924 7.57574 59.7824 10.0855 59.2978 13.2835Z" fill="#076EFF"/>
</g>
<defs>
<radialGradient id="paint0_radial_505_1694" cx="0" cy="0" r="1" gradientUnits="userSpaceOnUse" gradientTransform="translate(-1820.95 500.466) rotate(151.125) scale(2194.09 1768.1)">
<stop stop-color="#5BAEFF"/>
<stop offset="1" stop-color="#9CBFFF"/>
</radialGradient>
<radialGradient id="paint1_radial_505_1694" cx="0" cy="0" r="1" gradientUnits="userSpaceOnUse" gradientTransform="translate(-562.31 770.772) rotate(99.2037) scale(1066.2 1256.02)">
<stop stop-color="#409DFF"/>
<stop offset="1" stop-color="#64B0FF"/>
</radialGradient>
<radialGradient id="paint2_radial_505_1694" cx="0" cy="0" r="1" gradientUnits="userSpaceOnUse" gradientTransform="translate(-397.972 1111.98) rotate(99.4857) scale(2419.84 1154.59)">
<stop stop-color="#177CFF"/>
<stop offset="1" stop-color="#4DA4FF"/>
</radialGradient>
<linearGradient id="paint3_linear_505_1694" x1="252.863" y1="201.21" x2="252.863" y2="2172.97" gradientUnits="userSpaceOnUse">
<stop stop-color="#076EFF"/>
<stop offset="1" stop-color="#3E93FF"/>
</linearGradient>
<radialGradient id="paint4_radial_505_1694" cx="0" cy="0" r="1" gradientUnits="userSpaceOnUse" gradientTransform="translate(-483.253 -82.9619) rotate(21.4308) scale(904.854 4529.97)">
<stop stop-color="#1C7AFF"/>
<stop offset="1" stop-color="#8FB9FF"/>
</radialGradient>
<linearGradient id="paint5_linear_505_1694" x1="239.801" y1="17.2743" x2="1269.58" y2="1289.85" gradientUnits="userSpaceOnUse">
<stop stop-color="#076EFF"/>
<stop offset="1" stop-color="#69A3FF"/>
</linearGradient>
<clipPath id="clip0_505_1694">
<rect width="87.15" height="32" fill="white" transform="translate(0 0.898804)"/>
</clipPath>
</defs>
</svg>
