<svg width="33" height="30" viewBox="0 0 33 30" fill="none" xmlns="http://www.w3.org/2000/svg">
<path d="M16.4693 25.609C19.5065 25.609 22.4193 24.4025 24.5669 22.2549C26.7145 20.1072 27.921 17.1945 27.921 14.1573C27.921 11.1201 26.7145 8.2073 24.5669 6.05969C22.4193 3.91208 19.5065 2.70557 16.4693 2.70557C13.4321 2.70557 10.5193 3.91208 8.3717 6.05969C6.22409 8.2073 5.01758 11.1201 5.01758 14.1573C5.01758 17.1945 6.22409 20.1072 8.3717 22.2549C10.5193 24.4025 13.4321 25.609 16.4693 25.609Z" fill="#FFD21E"/>
<path d="M27.9208 14.1573C27.9208 11.1202 26.7143 8.20737 24.5667 6.05976C22.4191 3.91215 19.5063 2.70563 16.4691 2.70563C13.4319 2.70563 10.5191 3.91215 8.37153 6.05976C6.22392 8.20737 5.0174 11.1202 5.0174 14.1573C5.0174 17.1945 6.22392 20.1073 8.37153 22.2549C10.5191 24.4025 13.4319 25.609 16.4691 25.609C19.5063 25.609 22.4191 24.4025 24.5667 22.2549C26.7143 20.1073 27.9208 17.1945 27.9208 14.1573ZM3.69922 14.1573C3.69922 12.4804 4.02952 10.8198 4.67127 9.27051C5.31302 7.7212 6.25364 6.31346 7.43943 5.12766C8.62523 3.94187 10.033 3.00125 11.5823 2.3595C13.1316 1.71775 14.7921 1.38745 16.4691 1.38745C18.1461 1.38745 19.8066 1.71775 21.3559 2.3595C22.9052 3.00125 24.313 3.94187 25.4988 5.12766C26.6846 6.31346 27.6252 7.7212 28.2669 9.27051C28.9087 10.8198 29.239 12.4804 29.239 14.1573C29.239 17.5441 27.8936 20.7922 25.4988 23.187C23.104 25.5818 19.8559 26.9272 16.4691 26.9272C13.0823 26.9272 9.83425 25.5818 7.43943 23.187C5.04461 20.7922 3.69922 17.5441 3.69922 14.1573Z" fill="#FF9D0B"/>
<path d="M20.1905 11.0437C20.6124 11.1887 20.7771 12.0521 21.2022 11.828C21.4901 11.6752 21.7262 11.4404 21.8806 11.1534C22.035 10.8664 22.1009 10.5401 22.0698 10.2156C22.0387 9.89121 21.9122 9.58328 21.7061 9.3308C21.5 9.07831 21.2236 8.89261 20.912 8.79719C20.6004 8.70176 20.2675 8.70089 19.9553 8.7947C19.6432 8.8885 19.3659 9.07276 19.1585 9.32417C18.9511 9.57558 18.8229 9.88285 18.7902 10.2071C18.7574 10.5314 18.8216 10.8581 18.9745 11.1459C19.1755 11.5249 19.8149 10.9086 20.1938 11.0404L20.1905 11.0437ZM12.4297 11.0437C12.0079 11.1887 11.8399 12.0521 11.418 11.828C11.1302 11.6752 10.8941 11.4404 10.7397 11.1534C10.5853 10.8664 10.5194 10.5401 10.5505 10.2156C10.5815 9.89121 10.7081 9.58328 10.9142 9.3308C11.1203 9.07831 11.3966 8.89261 11.7083 8.79719C12.0199 8.70176 12.3528 8.70089 12.6649 8.7947C12.9771 8.8885 13.2544 9.07276 13.4618 9.32417C13.6691 9.57558 13.7973 9.88285 13.8301 10.2071C13.8628 10.5314 13.7987 10.8581 13.6458 11.1459C13.4447 11.5249 12.8021 10.9086 12.4264 11.0404L12.4297 11.0437Z" fill="#3A3B45"/>
<path d="M16.3882 18.9491C19.6276 18.9491 20.6723 16.0623 20.6723 14.5793C20.6723 13.8082 20.1549 14.0521 19.3245 14.4607C18.5566 14.8397 17.5251 15.3636 16.3915 15.3636C14.0221 15.3636 12.1074 13.0964 12.1074 14.5793C12.1074 16.0623 13.1488 18.9491 16.3915 18.9491H16.3882Z" fill="#FF323D"/>
<path fill-rule="evenodd" clip-rule="evenodd" d="M13.9061 18.1949C14.08 17.8415 14.3248 17.5277 14.6253 17.2731C14.9258 17.0186 15.2756 16.8286 15.6527 16.7152C15.7845 16.6756 15.9197 16.903 16.0614 17.137C16.1932 17.3611 16.3316 17.5885 16.47 17.5885C16.6183 17.5885 16.7666 17.3644 16.9083 17.1436C17.0566 16.9129 17.2016 16.6888 17.3433 16.7317C18.0512 16.9564 18.6428 17.4498 18.991 18.1059C20.2202 17.137 20.6717 15.5552 20.6717 14.5797C20.6717 13.8086 20.1543 14.0525 19.3239 14.4611L19.2777 14.4842C18.5165 14.8631 17.5015 15.3641 16.3876 15.3641C15.2737 15.3641 14.262 14.8631 13.4975 14.4842C12.6407 14.0591 12.1035 13.7921 12.1035 14.5797C12.1035 15.5849 12.5847 17.2359 13.9061 18.1949Z" fill="#3A3B45"/>
<path d="M24.213 12.592C24.497 12.592 24.7694 12.4792 24.9703 12.2783C25.1711 12.0774 25.284 11.805 25.284 11.521C25.284 11.2369 25.1711 10.9645 24.9703 10.7636C24.7694 10.5628 24.497 10.45 24.213 10.45C23.9289 10.45 23.6565 10.5628 23.4556 10.7636C23.2548 10.9645 23.1419 11.2369 23.1419 11.521C23.1419 11.805 23.2548 12.0774 23.4556 12.2783C23.6565 12.4792 23.9289 12.592 24.213 12.592ZM8.88909 12.592C9.17314 12.592 9.44556 12.4792 9.64642 12.2783C9.84727 12.0774 9.96011 11.805 9.96011 11.521C9.96011 11.2369 9.84727 10.9645 9.64642 10.7636C9.44556 10.5628 9.17314 10.45 8.88909 10.45C8.60504 10.45 8.33262 10.5628 8.13176 10.7636C7.93091 10.9645 7.81807 11.2369 7.81807 11.521C7.81807 11.805 7.93091 12.0774 8.13176 12.2783C8.33262 12.4792 8.60504 12.592 8.88909 12.592ZM6.68443 16.217C6.15057 16.217 5.67602 16.4345 5.34318 16.8332C5.05936 17.1838 4.90462 17.6213 4.90489 18.0723C4.69739 18.0099 4.48222 17.9767 4.26557 17.9735C3.75477 17.9735 3.29341 18.1679 2.96716 18.5205C2.67609 18.8228 2.49258 19.2124 2.44493 19.6293C2.39729 20.0462 2.48816 20.4672 2.70352 20.8273C2.41187 21.0654 2.20496 21.3914 2.11364 21.7567C2.03455 22.0532 1.95545 22.6794 2.37727 23.3187C2.21914 23.5618 2.12505 23.841 2.10373 24.1302C2.08241 24.4194 2.13457 24.7093 2.25534 24.973C2.59148 25.7376 3.43182 26.3373 5.06307 26.9832C6.07477 27.3853 7.00409 27.6423 7.01068 27.6456C8.18465 27.9709 9.39468 28.148 10.6126 28.1729C12.5438 28.1729 13.9245 27.5797 14.7188 26.4131C15.9974 24.538 15.8161 22.8211 14.1585 21.1668C13.2457 20.2506 12.636 18.9028 12.5108 18.6062C12.2538 17.7296 11.5749 16.7542 10.4511 16.7542C10.1522 16.7589 9.85866 16.8349 9.595 16.9759C9.33134 17.1169 9.10515 17.3188 8.93523 17.5648C8.60568 17.1496 8.28273 16.8234 7.99273 16.6355C7.60574 16.3735 7.15162 16.2283 6.68443 16.217ZM6.68443 17.5352C6.8525 17.5352 7.06011 17.6077 7.2842 17.7494C7.98943 18.1976 9.34386 20.5275 9.84148 21.4337C10.0063 21.7369 10.293 21.8654 10.5467 21.8654C11.0575 21.8654 11.453 21.3612 10.5961 20.7186C9.30432 19.753 9.7558 18.1745 10.372 18.0789C10.3984 18.0723 10.4281 18.0723 10.4511 18.0723C11.0114 18.0723 11.2585 19.0379 11.2585 19.0379C11.2585 19.0379 11.9835 20.857 13.2292 22.1027C14.4716 23.3451 14.5375 24.3436 13.6313 25.6717C13.0117 26.5779 11.8286 26.8514 10.6126 26.8514C9.35705 26.8514 8.06523 26.5548 7.34352 26.3703C7.30727 26.3604 2.91114 25.118 3.46807 24.0635C3.56034 23.8855 3.71523 23.813 3.90966 23.813C4.69398 23.813 6.11761 24.9796 6.73386 24.9796C6.86898 24.9796 6.96455 24.9236 7.00739 24.7819C7.26773 23.8427 3.03307 23.4472 3.38898 22.0895C3.45489 21.8489 3.62295 21.7534 3.86352 21.7534C4.8983 21.7534 7.22489 23.5757 7.71261 23.5757C7.74886 23.5757 7.77852 23.5659 7.7917 23.5428C8.03557 23.1473 7.90045 22.8705 6.17693 21.8292C4.46 20.7878 3.25057 20.1617 3.93602 19.4136C4.01511 19.3279 4.12716 19.2884 4.26557 19.2884C5.31023 19.2884 7.77852 21.5359 7.77852 21.5359C7.77852 21.5359 8.4442 22.2279 8.84955 22.2279C8.94182 22.2279 9.02091 22.195 9.07364 22.1027C9.35705 21.6215 6.4175 19.3938 6.25273 18.4744C6.14068 17.8482 6.33182 17.5352 6.68443 17.5352Z" fill="#FF9D0B"/>
<path d="M13.6327 25.6713C14.5389 24.3399 14.473 23.3414 13.2306 22.099C11.9849 20.8566 11.2599 19.0342 11.2599 19.0342C11.2599 19.0342 10.9897 17.9797 10.3735 18.0785C9.75722 18.1774 9.30574 19.7526 10.5976 20.7182C11.8861 21.6838 10.3405 22.3396 9.8429 21.4333C9.34858 20.5271 7.99085 18.1972 7.28563 17.749C6.58369 17.3041 6.08938 17.5513 6.25415 18.474C6.41892 19.3934 9.36176 21.6211 9.07506 22.099C8.78835 22.5834 7.77994 21.5355 7.77994 21.5355C7.77994 21.5355 4.62619 18.6651 3.93744 19.4132C3.25199 20.1613 4.46142 20.7874 6.17835 21.8288C7.90188 22.8701 8.03699 23.1469 7.79313 23.5424C7.54597 23.9378 3.74631 20.7314 3.3904 22.0924C3.03449 23.4468 7.26915 23.839 7.00881 24.7782C6.74517 25.7174 4.02313 23.0052 3.46949 24.0598C2.90926 25.1176 7.30869 26.36 7.34494 26.3699C8.76199 26.739 12.3705 27.52 13.6327 25.6713Z" fill="#FFD21E"/>
<path d="M26.4178 16.217C26.9516 16.217 27.4295 16.4345 27.759 16.8333C28.0428 17.1839 28.1976 17.6213 28.1973 18.0724C28.4059 18.0097 28.6222 17.9764 28.8399 17.9735C29.3507 17.9735 29.8121 18.168 30.1383 18.5206C30.4294 18.8228 30.6129 19.2125 30.6606 19.6294C30.7082 20.0463 30.6173 20.4673 30.402 20.8274C30.6924 21.066 30.8981 21.3919 30.9886 21.7567C31.0677 22.0533 31.1468 22.6794 30.7249 23.3187C30.8831 23.5619 30.9772 23.841 30.9985 24.1302C31.0198 24.4195 30.9676 24.7094 30.8469 24.9731C30.5107 25.7376 29.6704 26.3374 28.0424 26.9833C27.0274 27.3853 26.0981 27.6424 26.0915 27.6457C24.9176 27.9709 23.7075 28.1481 22.4896 28.1729C20.5585 28.1729 19.1777 27.5798 18.3835 26.4132C17.1048 24.5381 17.2861 22.8211 18.9437 21.1668C19.8598 20.2507 20.4695 18.9028 20.5947 18.6062C20.8518 17.7297 21.5273 16.7542 22.6511 16.7542C22.95 16.7589 23.2435 16.835 23.5072 16.976C23.7709 17.117 23.9971 17.3189 24.167 17.5649C24.4965 17.1497 24.8195 16.8234 25.1128 16.6356C25.4988 16.3742 25.9517 16.2289 26.4178 16.217ZM26.4178 17.5352C26.2497 17.5352 26.0454 17.6077 25.818 17.7494C25.1161 18.1976 23.7583 20.5275 23.2607 21.4337C23.1936 21.5631 23.0924 21.6716 22.9681 21.7477C22.8439 21.8237 22.7012 21.8645 22.5555 21.8654C22.048 21.8654 21.6493 21.3612 22.5094 20.7186C23.7979 19.7531 23.3464 18.1745 22.7302 18.079C22.704 18.0747 22.6776 18.0725 22.6511 18.0724C22.0908 18.0724 21.8437 19.038 21.8437 19.038C21.8437 19.038 21.1187 20.857 19.8763 22.1027C18.6306 23.3451 18.5647 24.3436 19.4743 25.6717C20.0905 26.578 21.2769 26.8515 22.4896 26.8515C23.7485 26.8515 25.037 26.5549 25.762 26.3703C25.7949 26.3604 30.1944 25.1181 29.6374 24.0635C29.5419 23.8856 29.3903 23.8131 29.1958 23.8131C28.4115 23.8131 26.9846 24.9797 26.3716 24.9797C26.2332 24.9797 26.1377 24.9236 26.0981 24.7819C25.8345 23.8427 30.0691 23.4473 29.7132 22.0895C29.6506 21.849 29.4825 21.7534 29.2387 21.7534C28.2039 21.7534 25.8773 23.5758 25.3896 23.5758C25.3566 23.5758 25.327 23.5659 25.3138 23.5428C25.0699 23.1474 25.2018 22.8706 26.922 21.8292C28.6455 20.7878 29.8549 20.1617 29.1629 19.4136C29.0871 19.328 28.975 19.2884 28.8399 19.2884C27.792 19.2884 25.3237 21.5359 25.3237 21.5359C25.3237 21.5359 24.658 22.2279 24.256 22.2279C24.2107 22.23 24.1657 22.2193 24.1261 22.1972C24.0865 22.1751 24.0539 22.1424 24.0319 22.1027C23.7452 21.6216 26.6847 19.3939 26.8495 18.4744C26.9615 17.8483 26.7704 17.5352 26.4178 17.5352Z" fill="#FF9D0B"/>
<path d="M19.4767 25.6713C18.5705 24.3399 18.6331 23.3414 19.8788 22.099C21.1212 20.8566 21.8462 19.0342 21.8462 19.0342C21.8462 19.0342 22.1164 17.9797 22.7359 18.0785C23.3489 18.1774 23.8004 19.7526 22.5118 20.7182C21.22 21.6838 22.7689 22.3396 23.2632 21.4333C23.7608 20.5271 25.1185 18.1972 25.8205 17.749C26.5224 17.3041 27.02 17.5513 26.8519 18.474C26.6872 19.3934 23.7476 21.6211 24.0343 22.099C24.3177 22.5834 25.3262 21.5355 25.3262 21.5355C25.3262 21.5355 28.4832 18.6651 29.1687 19.4132C29.8541 20.1613 28.648 20.7874 26.9277 21.8288C25.2042 22.8701 25.0724 23.1469 25.313 23.5424C25.5601 23.9378 29.3598 20.7314 29.7157 22.0924C30.0716 23.4468 25.8402 23.839 26.1006 24.7782C26.3642 25.7174 29.083 23.0052 29.6399 24.0598C30.1968 25.1176 25.8007 26.36 25.7644 26.3699C24.3441 26.739 20.7356 27.52 19.4767 25.6713Z" fill="#FFD21E"/>
</svg>
