<svg width="37" height="27" viewBox="0 0 37 27" fill="none" xmlns="http://www.w3.org/2000/svg">
<g clip-path="url(#clip0_505_1719)">
<path d="M10.4285 0.898804H5.22852V6.0988H10.4285V0.898804Z" fill="#FFD700"/>
<path d="M31.2293 0.898804H26.0293V6.0988H31.2293V0.898804Z" fill="#FFD700"/>
<path d="M15.6285 6.09875H5.22852V11.2988H15.6285V6.09875Z" fill="#FFAF00"/>
<path d="M31.2281 6.09875H20.8281V11.2988H31.2281V6.09875Z" fill="#FFAF00"/>
<path d="M31.2285 11.2988H5.22852V16.4988H31.2285V11.2988Z" fill="#FF8205"/>
<path d="M10.4285 16.4988H5.22852V21.6988H10.4285V16.4988Z" fill="#FA500F"/>
<path d="M20.8289 16.4988H15.6289V21.6988H20.8289V16.4988Z" fill="#FA500F"/>
<path d="M31.2293 16.4988H26.0293V21.6988H31.2293V16.4988Z" fill="#FA500F"/>
<path d="M15.6293 21.6989H0.0292969V26.8989H15.6293V21.6989Z" fill="#E10500"/>
<path d="M36.4281 21.6989H20.8281V26.8989H36.4281V21.6989Z" fill="#E10500"/>
</g>
<defs>
<clipPath id="clip0_505_1719">
<rect width="36.4" height="26" fill="white" transform="translate(0.0292969 0.898804)"/>
</clipPath>
</defs>
</svg>
