<svg width="36" height="36" viewBox="0 0 36 36" fill="none" xmlns="http://www.w3.org/2000/svg">
<g clip-path="url(#clip0_505_1714)">
<path d="M19.9232 5.25769C19.5218 5.25769 19.1635 5.54019 19.0817 5.94907L14.6747 28.2859C14.6317 28.5088 14.6783 28.7396 14.8044 28.9283C14.9305 29.117 15.1259 29.2484 15.3482 29.294L21.4368 30.5222C21.661 30.5668 21.8937 30.5206 22.0839 30.3938C22.274 30.2669 22.406 30.0698 22.4509 29.8456L26.8564 7.51175C26.8994 7.28889 26.8527 7.05808 26.7267 6.86937C26.6006 6.68066 26.4052 6.54926 26.1828 6.50367L20.0927 5.27553C20.0374 5.26428 19.9797 5.25831 19.9232 5.25769ZM11.1865 5.4034C11.0275 5.4038 10.8716 5.44817 10.7362 5.53162C10.6008 5.61506 10.4912 5.73432 10.4193 5.87622L0.121426 26.3694C0.0705628 26.4699 0.0400604 26.5795 0.0316714 26.6918C0.0232824 26.8041 0.0371721 26.917 0.0725424 27.0239C0.107913 27.1309 0.164066 27.2298 0.237777 27.3149C0.311487 27.4001 0.401301 27.4699 0.502058 27.5202L6.05245 30.311C6.25629 30.412 6.49176 30.4283 6.70758 30.3565C6.92341 30.2846 7.1021 30.1304 7.20476 29.9274L17.5026 9.43721C17.5536 9.33649 17.5841 9.22671 17.5926 9.11416C17.601 9.00162 17.5871 8.88851 17.5518 8.78133C17.5164 8.67415 17.4602 8.575 17.3865 8.48956C17.3127 8.40412 17.2229 8.33407 17.122 8.28342L11.5701 5.49559C11.4507 5.43661 11.3197 5.40512 11.1865 5.4034ZM28.6421 5.57439C28.4149 5.57439 28.1971 5.66462 28.0365 5.82523C27.8759 5.98584 27.7857 6.20367 27.7857 6.43081V29.3669C27.7857 29.8397 28.1693 30.2263 28.6421 30.2263H34.8541C35.0818 30.2255 35.2999 30.1347 35.4609 29.9737C35.6219 29.8127 35.7127 29.5946 35.7135 29.3669V6.43081C35.712 6.20364 35.6208 5.98627 35.4599 5.82591C35.299 5.66555 35.0813 5.57517 34.8541 5.57439H28.6421Z" fill="url(#paint0_linear_505_1714)"/>
</g>
<defs>
<linearGradient id="paint0_linear_505_1714" x1="2.44857" y1="5.25769" x2="43.9041" y2="21.0867" gradientUnits="userSpaceOnUse">
<stop stop-color="#010F34"/>
<stop offset="1" stop-color="#962EB9"/>
</linearGradient>
<clipPath id="clip0_505_1714">
<rect width="35.6843" height="35.6843" fill="white" transform="translate(0.0292969 0.0566406)"/>
</clipPath>
</defs>
</svg>
