<svg width="107" height="22" viewBox="0 0 107 22" fill="none" xmlns="http://www.w3.org/2000/svg">
<g clip-path="url(#clip0_505_1703)">
<path d="M3.46629 14.0672C3.46629 15.2394 3.72365 16.1394 4.05989 16.6838C4.50069 17.397 5.15833 17.6992 5.82903 17.6992C6.69363 17.6992 7.4847 17.4845 9.00912 15.376C10.2305 13.6859 11.6697 11.3139 12.6379 9.82683L14.2776 7.30734C15.4168 5.55757 16.7352 3.61251 18.2468 2.29405C19.4812 1.21775 20.8125 0.619995 22.1523 0.619995C24.4018 0.619995 26.5445 1.92342 28.1842 4.3682C29.9788 7.04582 30.85 10.4183 30.85 13.8986C30.85 15.9676 30.4422 17.4877 29.7482 18.6887C29.0777 19.8502 27.7711 21.0107 25.5728 21.0107V17.6992C27.455 17.6992 27.9247 15.9696 27.9247 13.9903C27.9247 11.1698 27.267 8.0397 25.8183 5.80307C24.7904 4.21658 23.4581 3.24721 21.9922 3.24721C20.4069 3.24721 19.1312 4.44311 17.6973 6.57497C16.9351 7.70762 16.1525 9.08794 15.2738 10.6456L14.3067 12.3592C12.3636 15.8041 11.8714 16.5889 10.9 17.8838C9.19731 20.1513 7.74325 21.0109 5.82903 21.0109C3.5582 21.0109 2.12234 20.0275 1.23322 18.5458C0.506788 17.3382 0.150391 15.7539 0.150391 13.9488L3.46629 14.0672Z" fill="#0081FB"/>
<path d="M2.76562 4.60204C4.2857 2.25867 6.47983 0.619995 8.99595 0.619995C10.4532 0.619995 11.9019 1.05131 13.4146 2.28634C15.0693 3.63702 16.8331 5.86079 19.0334 9.52577L19.8221 10.8411C21.7268 14.0138 22.8104 15.6462 23.4446 16.4159C24.2602 17.4045 24.8314 17.6992 25.5735 17.6992C27.4555 17.6992 27.9251 15.9696 27.9251 13.9903L30.8504 13.8986C30.8504 15.9676 30.4426 17.4877 29.7486 18.6887C29.0781 19.8502 27.7715 21.0107 25.5733 21.0107C24.2068 21.0107 22.9963 20.714 21.6574 19.4511C20.6284 18.4818 19.4252 16.7597 18.4995 15.2117L15.7464 10.6126C14.3646 8.30438 13.0976 6.58347 12.3642 5.80406C11.5751 4.96595 10.5611 3.95388 8.94258 3.95388C7.63263 3.95388 6.52015 4.87324 5.58933 6.27926L2.76562 4.60204Z" fill="url(#paint0_linear_505_1703)"/>
<path d="M8.94192 3.95408C7.63196 3.95408 6.51948 4.87324 5.58866 6.27926C4.27218 8.26583 3.46629 11.2253 3.46629 14.0672C3.46629 15.2394 3.72365 16.1394 4.05989 16.6838L1.23283 18.5458C0.506985 17.3382 0.150391 15.7539 0.150391 13.9488C0.150391 10.6659 1.05137 7.24428 2.76496 4.60204C4.28503 2.25867 6.47916 0.619995 8.99529 0.619995L8.94192 3.95408Z" fill="url(#paint1_linear_505_1703)"/>
<path d="M41.9082 1.26245H45.744L52.2659 13.0613L58.7889 1.26245H62.5413V20.6498H59.4122V5.79105L53.692 16.0805H50.7565L45.0375 5.79105V20.6498H41.9084L41.9082 1.26245ZM72.3459 8.49121C70.1019 8.49121 68.7503 10.1799 68.4269 12.2714H76.0431C75.8861 10.1168 74.6434 8.49121 72.3459 8.49121ZM65.3247 13.4626C65.3247 9.06208 68.1685 5.85924 72.4004 5.85924C76.5629 5.85924 79.048 9.02135 79.048 13.6974V14.5569H68.4269C68.8036 16.8319 70.3132 18.365 72.7473 18.365C74.6892 18.365 75.9031 17.7724 77.0539 16.6887L78.7163 18.7247C77.15 20.1647 75.1579 20.9954 72.6362 20.9954C68.0553 20.9954 65.3245 17.6549 65.3245 13.4626M82.8423 8.76834H79.9621V6.20635H82.8425V1.96912H85.8615V6.20635H90.2375V8.76854H85.8615V15.263C85.8615 17.4802 86.5703 18.2681 88.3126 18.2681C89.108 18.2681 89.5638 18.1997 90.2375 18.0876V20.6222C89.3984 20.8592 88.5976 20.9681 87.7308 20.9681C84.4715 20.9681 82.8425 19.1873 82.8425 15.6227L82.8423 8.76834ZM102.95 11.2602C102.344 9.72921 100.991 8.6019 99.0031 8.6019C96.4196 8.6019 94.7661 10.4349 94.7661 13.4211C94.7661 16.3321 96.2883 18.2539 98.8794 18.2539C100.916 18.2539 102.37 17.0689 102.95 15.5944V11.2602ZM105.969 20.6494H103.006V18.6277C102.177 19.818 100.67 20.9957 98.2281 20.9957C94.3016 20.9957 91.6773 17.7085 91.6773 13.4211C91.6773 9.09311 94.3646 5.85944 98.3947 5.85944C100.387 5.85944 101.95 6.65605 103.006 8.06187V6.20635H105.969L105.969 20.6494Z" fill="white"/>
</g>
<defs>
<linearGradient id="paint0_linear_505_1703" x1="392.527" y1="1141.16" x2="2503.81" y2="1247.79" gradientUnits="userSpaceOnUse">
<stop stop-color="#0064E1"/>
<stop offset="0.4" stop-color="#0064E1"/>
<stop offset="0.83" stop-color="#0073EE"/>
<stop offset="1" stop-color="#0082FB"/>
</linearGradient>
<linearGradient id="paint1_linear_505_1703" x1="480.561" y1="1484.55" x2="480.561" y2="705.23" gradientUnits="userSpaceOnUse">
<stop stop-color="#0082FB"/>
<stop offset="1" stop-color="#0064E0"/>
</linearGradient>
<clipPath id="clip0_505_1703">
<rect width="106" height="20.5576" fill="white" transform="translate(0.150391 0.619995)"/>
</clipPath>
</defs>
</svg>
