<svg width="23" height="30" viewBox="0 0 23 30" fill="none" xmlns="http://www.w3.org/2000/svg">
<g clip-path="url(#clip0_505_1642)">
<path d="M82.3973 11.9288C80.7045 11.9288 79.4962 12.5071 78.9032 13.602L78.5843 14.1949V12.2142H75.8299V24.2548H78.7274V17.0913C78.7274 15.3799 79.6576 14.3982 81.2779 14.3982C82.8231 14.3982 83.7091 15.3541 83.7091 17.0201V24.2546H86.608V16.5033C86.608 13.6366 85.034 11.9288 82.3973 11.9288ZM68.3457 11.9288C64.9264 11.9288 62.809 14.0624 62.809 17.4963V19.1868C62.809 22.489 64.9511 24.54 68.3998 24.54C70.7066 24.54 72.3235 23.6949 73.3409 21.9563L71.5446 20.9227C70.7929 21.9255 69.592 22.5467 68.4009 22.5467C66.6552 22.5467 65.613 21.4691 65.613 19.6629V19.1843H73.7002V17.1875C73.7002 13.9885 71.5998 11.9288 68.3482 11.9288H68.3457ZM71.0633 17.2378H65.6031V16.9487C65.6031 14.9667 66.5763 13.8729 68.3432 13.8729C70.0447 13.8729 71.061 14.9505 71.061 16.7567L71.0633 17.2378ZM115.383 10.2322V7.92896H105.361V10.2322H108.875V21.9464H105.361V24.2496H115.383V21.9464H111.868V10.2322H115.383ZM39.3889 7.59679C34.9127 7.59679 32.1299 10.386 32.1299 14.8782V17.3067C32.1299 21.7975 34.9116 24.5881 39.3889 24.5881C43.8662 24.5881 46.648 21.7975 46.648 17.3067V14.8779C46.6469 10.3811 43.8612 7.59679 39.3889 7.59679ZM43.6532 17.4727C43.6532 20.4551 42.0993 22.1652 39.3889 22.1652C36.6784 22.1652 35.1256 20.4551 35.1256 17.4727V14.7106C35.1256 11.7282 36.6809 10.0181 39.3902 10.0181C42.0995 10.0181 43.6544 11.728 43.6544 14.7106L43.6532 17.4727ZM55.749 11.9286C54.2283 11.9286 52.9117 12.5585 52.2251 13.613L51.9139 14.0928V12.214H49.1581V28.3974H52.0567V22.5355L52.3666 22.9957C53.0189 23.9628 54.2923 24.5398 55.7737 24.5398C58.2724 24.5398 60.7934 22.907 60.7934 19.2578V17.2106C60.7934 14.5812 59.2395 11.9286 55.749 11.9286ZM57.8948 19.1163C57.8948 21.0568 56.7629 22.2624 54.9418 22.2624C53.2439 22.2624 52.0592 20.9878 52.0592 19.1643V17.3532C52.0592 15.5077 53.2538 14.2084 54.9665 14.2084C56.7739 14.2084 57.8971 15.4129 57.8971 17.3532L57.8948 19.1163ZM94.6172 7.93009L88.7695 24.2546H91.7137L92.8333 20.7554H99.5559L99.5671 20.79L100.674 24.2546H103.617L97.7596 7.92874L94.6172 7.93009ZM93.5518 18.4535L96.1896 10.2001L98.8006 18.4535H93.5518ZM26.4627 12.4873C26.78 11.535 26.8902 10.5259 26.7858 9.52757C26.6814 8.52922 26.3649 7.56471 25.8574 6.69863C25.1043 5.38952 23.9552 4.35315 22.5755 3.73871C21.1958 3.12426 19.6568 2.96344 18.1799 3.27939C17.5137 2.52838 16.6948 1.92827 15.778 1.51918C14.8612 1.11009 13.8676 0.901452 12.8637 0.907221C11.3532 0.903766 9.88056 1.38024 8.65833 2.26791C7.43611 3.15557 6.52745 4.40854 6.06343 5.84607C5.08009 6.04781 4.15114 6.45715 3.3387 7.04673C2.52625 7.63631 1.84904 8.39254 1.35232 9.26486C0.595035 10.5717 0.271959 12.0851 0.429607 13.5872C0.587254 15.0894 1.21749 16.5027 2.22959 17.6238C1.9136 18.5754 1.80414 19.5834 1.90852 20.5806C2.01289 21.5778 2.3287 22.5412 2.83488 23.4067C3.58731 24.7183 4.73694 25.7569 6.1179 26.3727C7.49885 26.9885 9.03975 27.1498 10.5183 26.8331C11.1838 27.5834 12.0018 28.1831 12.9175 28.5921C13.8332 29.0012 14.8257 29.2103 15.8286 29.2053C17.3392 29.2088 18.8118 28.7323 20.034 27.8446C21.2562 26.957 22.1649 25.704 22.6289 24.2665C23.612 24.0645 24.5407 23.6551 25.3529 23.0655C26.1651 22.4758 26.8421 21.7197 27.3387 20.8475C28.0978 19.541 28.4221 18.0271 28.2646 16.5244C28.1072 15.0216 27.4762 13.608 26.4627 12.4873ZM15.8286 27.3598C14.5882 27.3608 13.3869 26.9253 12.4354 26.1295C12.4772 26.1061 12.5585 26.0655 12.6052 26.0347L18.2403 22.7817C18.3817 22.7014 18.4991 22.5848 18.5805 22.444C18.6618 22.3031 18.7041 22.1432 18.703 21.9805V14.0353L21.0837 15.4096C21.0965 15.4157 21.1075 15.4251 21.1157 15.4367C21.1239 15.4483 21.129 15.4619 21.1304 15.476V22.0522C21.1304 24.9811 18.7578 27.3564 15.8286 27.3598ZM4.43669 22.4951C3.81565 21.4215 3.59149 20.1638 3.80333 18.9418C3.84488 18.9676 3.91877 19.0118 3.97043 19.0413L9.60687 22.2956C9.74723 22.3777 9.90692 22.421 10.0695 22.421C10.2321 22.421 10.3918 22.3777 10.5322 22.2956L17.4082 18.3194V21.068C17.4094 21.0821 17.4069 21.0963 17.4011 21.1092C17.3953 21.122 17.3863 21.1332 17.3749 21.1417L11.6788 24.4293C9.14263 25.8896 5.90307 25.0216 4.43669 22.4888V22.4951ZM2.96042 10.1913C3.57849 9.11599 4.5555 8.29269 5.72003 7.86585V14.564C5.71914 14.7265 5.76153 14.8864 5.84284 15.0272C5.92414 15.168 6.04144 15.2846 6.18269 15.3651L13.0605 19.3366L10.671 20.7158C10.6594 20.7237 10.646 20.7285 10.632 20.7298C10.618 20.7311 10.6039 20.7289 10.591 20.7233L4.89576 17.4347C2.36188 15.9688 1.49359 12.7279 2.95526 10.1915L2.96042 10.1913ZM22.5231 14.7439L15.6451 10.7721L18.0236 9.39647C18.0352 9.38881 18.0486 9.38412 18.0625 9.38283C18.0764 9.38154 18.0904 9.38368 18.1033 9.38906L23.7988 12.6778C24.6712 13.1818 25.3819 13.9239 25.8478 14.8172C26.3137 15.7105 26.5155 16.7181 26.4295 17.7219C26.3435 18.7257 25.9734 19.6843 25.3623 20.4854C24.7513 21.2864 23.9247 21.8968 22.9793 22.2451V15.5486C22.981 15.3856 22.9393 15.2252 22.8584 15.0837C22.7775 14.9423 22.6604 14.825 22.5191 14.7439H22.5231ZM24.8939 11.1757C24.8386 11.1417 24.7829 11.1084 24.7266 11.076L19.0904 7.82183C18.95 7.73973 18.7903 7.69645 18.6277 7.69645C18.4651 7.69645 18.3054 7.73973 18.1651 7.82183L11.2873 11.7922V9.04475C11.2868 9.03062 11.2898 9.01658 11.2958 9.00378C11.3018 8.99098 11.3107 8.97978 11.3219 8.97109L17.0172 5.68346C17.8898 5.18036 18.8877 4.93621 19.8941 4.9796C20.9004 5.02299 21.8736 5.35212 22.6997 5.92846C23.5258 6.50481 24.1707 7.30453 24.5588 8.23404C24.947 9.16354 25.0624 10.1844 24.8915 11.1771L24.8939 11.1757ZM9.98935 16.0775L7.60752 14.7032C7.5953 14.6965 7.58481 14.687 7.5769 14.6755C7.56898 14.664 7.56386 14.6508 7.56193 14.6369V8.06035C7.56112 7.0524 7.84766 6.06511 8.38797 5.21421C8.92827 4.3633 9.69995 3.68406 10.6125 3.2561C11.5251 2.82814 12.5408 2.6692 13.5405 2.79792C14.5402 2.92663 15.4825 3.33766 16.2569 3.98283C16.2151 4.00641 16.1401 4.04684 16.0871 4.07761L10.452 7.33064C10.3108 7.41113 10.1935 7.52775 10.1122 7.66853C10.0309 7.80932 9.98847 7.9692 9.98935 8.13177V16.0775ZM11.2826 13.2885L14.3461 11.5191L17.4084 13.2885V16.8245L14.3449 18.5936L11.2814 16.8245L11.2826 13.2885Z" fill="white"/>
</g>
<defs>
<clipPath id="clip0_505_1642">
<rect width="115" height="28.299" fill="white" transform="translate(0.386719 0.907104)"/>
</clipPath>
</defs>
</svg>
