<svg width="124" height="29" viewBox="0 0 124 29" fill="none" xmlns="http://www.w3.org/2000/svg">
<g clip-path="url(#clip0_505_1622)">
<path d="M61.0175 8.64257H61.9569V10.578H60.741C59.7878 10.578 59.0774 10.8074 58.6073 11.2663C58.1383 11.7251 57.9031 12.4781 57.9031 13.5251V19.8688H55.9831V8.68568H57.9031V10.4702C57.9031 10.5703 57.9535 10.6211 58.0528 10.6211C58.1091 10.6211 58.1519 10.6073 58.1811 10.578C58.21 10.5488 58.2377 10.4918 58.2666 10.4056C58.6362 9.23073 59.5541 8.64257 61.019 8.64257H61.0175ZM73.5588 11.0399C74.0628 11.9361 74.3165 13.0154 74.3165 14.2764C74.3165 15.5375 74.0644 16.6168 73.5588 17.513C73.0533 18.4091 72.3996 19.0789 71.5961 19.5239C70.7926 19.9688 69.9282 20.1906 69.0042 20.1906C67.1834 20.1906 65.9036 19.4592 65.1644 17.9964C65.1078 17.8825 65.0359 17.824 64.9504 17.824C64.8649 17.824 64.8222 17.8671 64.8222 17.9533V23.9537H62.9021V8.68568H64.8222V10.5996C64.8222 10.6858 64.8649 10.7289 64.9504 10.7289C65.0359 10.7289 65.1063 10.6719 65.1644 10.5565C65.9036 9.09371 67.1834 8.36232 69.0042 8.36232C69.9282 8.36232 70.7926 8.58406 71.5961 9.02904C72.3996 9.47402 73.0533 10.1438 73.5588 11.0399ZM72.3965 14.2764C72.3965 12.9569 72.0453 11.9284 71.3411 11.1908C70.637 10.4533 69.7099 10.0838 68.5567 10.0838C67.4033 10.0838 66.4762 10.4533 65.772 11.1908C65.0682 11.9299 64.8099 12.9584 64.8099 14.2764C64.8099 15.5945 65.0682 16.6245 65.772 17.3621C66.4762 18.1011 67.4048 18.4691 68.5567 18.4691C69.7083 18.4691 70.637 18.0996 71.3411 17.3621C72.0453 16.6245 72.3965 15.5945 72.3965 14.2764ZM41.8347 11.0569C42.339 11.953 42.5924 13.0324 42.5924 14.2934C42.5924 15.5544 42.3405 16.6338 41.8347 17.5299C41.3292 18.426 40.6754 19.0958 39.8722 19.5408C39.0687 19.9858 38.204 20.2075 37.28 20.2075C35.4596 20.2075 34.1795 19.4761 33.4402 18.0134C33.3837 17.8994 33.312 17.8409 33.2265 17.8409C33.1407 17.8409 33.098 17.8841 33.098 17.9703V23.9706H31.1797V8.7026H33.0995V10.6165C33.0995 10.7027 33.1423 10.7458 33.2281 10.7458C33.3136 10.7458 33.3837 10.6889 33.4418 10.5734C34.181 9.11065 35.4608 8.37926 37.2815 8.37926C38.2056 8.37926 39.0703 8.601 39.8738 9.04598C40.6769 9.49097 41.3307 10.1607 41.8362 11.0569H41.8347ZM40.6723 14.2934C40.6723 12.9738 40.3212 11.9453 39.617 11.2078C38.9128 10.4702 37.9857 10.1007 36.8326 10.1007C35.6795 10.1007 34.7523 10.4702 34.0482 11.2078C33.344 11.9468 33.086 12.9754 33.086 14.2934C33.086 15.6114 33.344 16.6415 34.0482 17.379C34.7523 18.1181 35.6795 18.4861 36.8326 18.4861C37.9857 18.4861 38.9128 18.1166 39.617 17.379C40.3212 16.6415 40.6723 15.6114 40.6723 14.2934ZM52.4487 16.3181H54.4754C54.2051 17.3651 53.6538 18.2721 52.8229 19.0388C51.9905 19.8056 50.7992 20.189 49.2488 20.189C48.0819 20.189 47.0554 19.9488 46.1664 19.4684C45.2775 18.988 44.5917 18.3044 44.1074 17.4144C43.6234 16.526 43.382 15.479 43.382 14.2749C43.382 13.0708 43.6173 12.0238 44.0862 11.1354C44.5551 10.247 45.2135 9.56178 46.0597 9.08138C46.9057 8.601 47.897 8.36078 49.0351 8.36078C50.1729 8.36078 51.1153 8.59792 51.905 9.07061C52.6947 9.5433 53.2841 10.1715 53.6753 10.9522C54.0661 11.7344 54.2617 12.5904 54.2617 13.522V14.8123H45.4091C45.4792 15.9301 45.8534 16.8201 46.5284 17.4791C47.2036 18.1381 48.1108 18.4691 49.2488 18.4691C50.1729 18.4691 50.8816 18.2797 51.3718 17.8994C51.8623 17.5191 52.2211 16.9926 52.4487 16.3181ZM45.4303 13.2002H52.1295C52.1295 12.2255 51.8804 11.4618 51.3826 10.9091C50.8847 10.3578 50.1027 10.0807 49.0363 10.0807C48.0406 10.0807 47.2264 10.3501 46.5942 10.8875C45.9619 11.4249 45.5739 12.1963 45.4318 13.1986L45.4303 13.2002ZM75.8362 19.8672H77.7562V4.38367H75.8362V19.8688V19.8672ZM102.476 7.46466H104.718V5.04421H102.476V7.46466ZM110.386 18.2012C110.038 18.2366 109.827 18.2551 109.757 18.2551C109.657 18.2551 109.578 18.2259 109.521 18.1689C109.465 18.1119 109.436 18.0334 109.436 17.9318C109.436 17.861 109.454 17.6485 109.489 17.2974C109.524 16.9463 109.543 16.4044 109.543 15.6745V10.324H112.281L111.742 8.68568H109.544V5.67397H107.624V8.68415H105.536V10.3224H107.624V16.2104C107.624 17.4437 107.924 18.3614 108.521 18.9634C109.118 19.5654 110.028 19.8672 111.252 19.8672H112.746V18.1473H111.999C111.273 18.1473 110.736 18.1658 110.387 18.2012H110.386ZM121.62 8.68415L118.442 18.0673C118.398 18.1828 118.331 18.3337 118.113 18.3337C117.894 18.3337 117.827 18.1828 117.785 18.0673L114.606 8.68415H112.648L116.329 19.8672H117.63C117.716 19.8672 117.78 19.8749 117.823 19.8888C117.866 19.9026 117.901 19.9381 117.93 19.9965C117.986 20.0828 117.978 20.2121 117.908 20.383L117.311 22.0167C117.226 22.2323 117.062 22.34 116.821 22.34C116.735 22.34 116.537 22.3216 116.224 22.2861C115.911 22.2507 115.506 22.2323 115.008 22.2323H113.45V23.9521H115.498C116.692 23.9521 117.412 23.7473 118.03 23.3393C118.649 22.9313 119.129 22.2107 119.471 21.1775L123.447 9.11219V8.68261H121.62V8.68415ZM96.2041 12.8568L93.1967 8.68415H91.0842V9.11372L94.6887 13.9531L90.2945 19.4376V19.8672H92.4498L95.9488 15.3727L99.213 19.8672H101.283V19.4376L97.4642 14.2764L101.603 9.13682V8.68568H99.4482L96.2056 12.8584L96.2041 12.8568ZM102.68 19.8672H104.6V8.68568H102.68V19.8688V19.8672ZM90.3815 16.3181C90.1113 17.3651 89.5599 18.2721 88.729 19.0388C87.8966 19.8056 86.7051 20.189 85.155 20.189C83.988 20.189 82.9616 19.9488 82.0726 19.4684C81.1836 18.988 80.4979 18.3044 80.0136 17.4144C79.5296 16.526 79.2882 15.479 79.2882 14.2749C79.2882 13.0708 79.5234 12.0238 79.9924 11.1354C80.4613 10.247 81.1193 9.56178 81.9656 9.08138C82.8118 8.601 83.8032 8.36078 84.941 8.36078C86.079 8.36078 87.0212 8.59792 87.8108 9.07061C88.6005 9.5433 89.1903 10.1715 89.5811 10.9522C89.9723 11.7344 90.1678 12.5904 90.1678 13.522V14.8123H81.3149C81.3853 15.9301 81.7596 16.8201 82.4345 17.4791C83.1098 18.1381 84.0169 18.4691 85.155 18.4691C86.079 18.4691 86.7875 18.2797 87.2779 17.8994C87.7681 17.5191 88.1273 16.9926 88.3548 16.3181H90.3815ZM81.3364 13.2002H88.0356C88.0356 12.2255 87.7866 11.4618 87.2887 10.9091C86.7906 10.3578 86.0086 10.0807 84.9425 10.0807C83.9468 10.0807 83.1325 10.3501 82.5003 10.8875C81.8678 11.4249 81.48 12.1963 81.338 13.1986L81.3364 13.2002Z" fill="white"/>
<path d="M4.86164 8.82368V2.93721L11.1725 8.82368H4.86164Z" stroke="#00AFBB" stroke-width="0.9225"/>
<path d="M20.0734 8.82368H13.7625L20.0734 2.93721V8.82368Z" stroke="#00AFBB" stroke-width="0.9225"/>
<mask id="path-4-inside-1_505_1622" fill="white">
<path d="M12.3535 0.680786V27.8187V0.680786Z"/>
</mask>
<path d="M11.431 0.680786V27.8187H13.276V0.680786H11.431Z" fill="#00AFBB" mask="url(#path-4-inside-1_505_1622)"/>
<path d="M19.8253 25.4729L12.805 19.2131V10.3435L19.8253 16.7988V25.4729Z" stroke="#00AFBB" stroke-width="0.9225"/>
<path d="M4.87141 25.4729V16.7988L11.8917 10.3435V19.2131L4.87141 25.4729Z" stroke="#00AFBB" stroke-width="0.9225"/>
<path d="M4.09552 16.2492L3.94644 16.3863V16.5888V19.4143H1.60969V9.74641H11.1691L4.09552 16.2492Z" stroke="#00AFBB" stroke-width="0.9225"/>
<path d="M20.7478 16.6863V16.4838L20.5988 16.3467L13.5268 9.84394H23.1348V19.5118H20.7478V16.6863Z" stroke="#00AFBB" stroke-width="0.9225"/>
</g>
<defs>
<clipPath id="clip0_505_1622">
<rect width="123" height="27.9825" fill="white" transform="translate(0.445312 0.0654297)"/>
</clipPath>
</defs>
</svg>
