<svg width="33" height="33" viewBox="0 0 33 33" fill="none" xmlns="http://www.w3.org/2000/svg">
<g clip-path="url(#clip0_505_1637)">
<path d="M16.3734 0.065918C8.23758 0.065918 8.74557 3.59407 8.74557 3.59407L8.7546 7.24935H16.5184V8.34677H5.67093C5.67093 8.34677 0.464844 7.75633 0.464844 15.9653C0.464844 24.1745 5.00884 23.8833 5.00884 23.8833H7.72069V20.0739C7.72069 20.0739 7.57449 15.53 12.1922 15.53H19.8925C19.8925 15.53 24.2188 15.5998 24.2188 11.3487V4.31979C24.2188 4.31979 24.8758 0.065918 16.3734 0.065918ZM12.0924 2.52402C12.2759 2.52385 12.4576 2.55987 12.6271 2.63C12.7966 2.70013 12.9506 2.80301 13.0804 2.93274C13.2101 3.06247 13.313 3.2165 13.3831 3.38603C13.4532 3.55557 13.4893 3.73726 13.4891 3.92073C13.4893 4.10419 13.4532 4.28589 13.3831 4.45542C13.313 4.62495 13.2101 4.77899 13.0804 4.90871C12.9506 5.03844 12.7966 5.14132 12.6271 5.21145C12.4576 5.28158 12.2759 5.3176 12.0924 5.31743C11.9089 5.3176 11.7272 5.28158 11.5577 5.21145C11.3882 5.14132 11.2341 5.03844 11.1044 4.90871C10.9747 4.77899 10.8718 4.62495 10.8017 4.45542C10.7315 4.28589 10.6955 4.10419 10.6957 3.92073C10.6955 3.73726 10.7315 3.55557 10.8017 3.38603C10.8718 3.2165 10.9747 3.06247 11.1044 2.93274C11.2341 2.80301 11.3882 2.70013 11.5577 2.63C11.7272 2.55987 11.9089 2.52385 12.0924 2.52402Z" fill="url(#paint0_linear_505_1637)"/>
<path d="M16.6053 31.947C24.7411 31.947 24.2331 28.4188 24.2331 28.4188L24.2241 24.7637H16.4601V23.6663H27.3076C27.3076 23.6663 32.5137 24.2567 32.5137 16.0475C32.5137 7.83844 27.9697 8.12957 27.9697 8.12957H25.2579V11.9388C25.2579 11.9388 25.4041 16.4828 20.7864 16.4828H13.0861C13.0861 16.4828 8.75982 16.4129 8.75982 20.6642V27.6932C8.75982 27.6932 8.10288 31.947 16.6052 31.947M20.8862 29.4891C20.7027 29.4893 20.521 29.4533 20.3515 29.3832C20.182 29.313 20.0279 29.2101 19.8982 29.0804C19.7685 28.9507 19.6656 28.7966 19.5955 28.6271C19.5253 28.4576 19.4893 28.2759 19.4895 28.0924C19.4893 27.909 19.5253 27.7272 19.5954 27.5577C19.6656 27.3882 19.7684 27.2341 19.8982 27.1044C20.0279 26.9746 20.1819 26.8717 20.3515 26.8016C20.521 26.7315 20.7027 26.6954 20.8862 26.6956C21.0696 26.6954 21.2513 26.7314 21.4209 26.8016C21.5904 26.8717 21.7444 26.9746 21.8742 27.1043C22.0039 27.234 22.1068 27.3881 22.1769 27.5576C22.247 27.7271 22.2831 27.9088 22.2829 28.0923C22.2831 28.2758 22.247 28.4575 22.1769 28.627C22.1068 28.7965 22.0039 28.9506 21.8742 29.0803C21.7444 29.21 21.5904 29.3129 21.4209 29.383C21.2513 29.4532 21.0696 29.4893 20.8862 29.4891Z" fill="url(#paint1_linear_505_1637)"/>
</g>
<defs>
<linearGradient id="paint0_linear_505_1637" x1="308.444" y1="286.819" x2="1896.64" y2="1859.17" gradientUnits="userSpaceOnUse">
<stop stop-color="#387EB8"/>
<stop offset="1" stop-color="#366994"/>
</linearGradient>
<linearGradient id="paint1_linear_505_1637" x1="463.338" y1="498.293" x2="2168.88" y2="2110.6" gradientUnits="userSpaceOnUse">
<stop stop-color="#FFE052"/>
<stop offset="1" stop-color="#FFC331"/>
</linearGradient>
<clipPath id="clip0_505_1637">
<rect width="32.13" height="32" fill="white" transform="translate(0.445312 0.0566406)"/>
</clipPath>
</defs>
</svg>
