<svg width="32" height="31" viewBox="0 0 32 31" fill="none" xmlns="http://www.w3.org/2000/svg">
<path fill-rule="evenodd" clip-rule="evenodd" d="M18.1463 0.678168C16.6599 -0.096661 14.8892 -0.096662 13.4027 0.678168L3.13379 6.03106C1.43599 6.91607 0.371094 8.67285 0.371094 10.5888V20.4123C0.371094 22.3281 1.436 24.0849 3.13379 24.97L13.4027 30.3228C13.8636 30.563 14.3518 30.7288 14.8503 30.8201V23.8183C14.8503 19.735 11.5401 16.4247 7.45669 16.4247H4.06792V14.5763H7.45669C11.5401 14.5763 14.8503 11.2661 14.8503 7.18263V3.79386H16.6988V7.18263C16.6988 11.2661 20.0091 14.5763 24.0925 14.5763H31.178V10.5888C31.178 8.67285 30.1131 6.91607 28.4153 6.03106L18.1463 0.678168ZM31.178 16.4247H24.0925C20.0091 16.4247 16.6988 19.735 16.6988 23.8183V30.8201C17.1974 30.7288 17.6855 30.563 18.1463 30.3228L28.4153 24.97C30.1131 24.0849 31.178 22.3281 31.178 20.4123V16.4247Z" fill="url(#paint0_linear_505_1602)"/>
<defs>
<linearGradient id="paint0_linear_505_1602" x1="31.178" y1="0.0970468" x2="0.455087" y2="30.9039" gradientUnits="userSpaceOnUse">
<stop offset="0.15" stop-color="#A0A4EE"/>
<stop offset="0.8" stop-color="#596CED"/>
</linearGradient>
</defs>
</svg>
