<svg width="119" height="33" viewBox="0 0 119 33" fill="none" xmlns="http://www.w3.org/2000/svg">
<g clip-path="url(#clip0_505_1710)">
<path d="M27.8308 22.7854L27.8142 22.7329L38.2943 13.1386V8.5159H21.4805V13.1386H31.5234L31.54 13.1828L21.1621 22.7854V27.4081H38.4633V22.7854H27.8308ZM48.7855 8.0755C46.8461 8.0755 45.2656 8.36803 44.0437 8.95308C42.9057 9.46291 41.9471 10.3029 41.2922 11.3641C40.6655 12.4322 40.2721 13.6209 40.1379 14.8519L45.2395 15.569C45.4243 14.4821 45.7934 13.7116 46.3468 13.2577C46.9118 12.8317 47.5962 12.5935 48.3036 12.5767L48.5391 12.5794C49.5747 12.5794 50.3257 12.8562 50.7923 13.4098C51.255 13.9635 51.4903 14.7301 51.4903 15.7405V16.2445H46.5846C44.0878 16.2445 42.2941 16.7981 41.2033 17.9053C40.1126 19.0124 39.5682 20.474 39.5702 22.2899C39.5702 24.1501 40.1146 25.5342 41.2033 26.4423C42.2922 27.3502 43.6616 27.8014 45.3113 27.796C47.3581 27.796 48.9322 27.0919 50.0337 25.6838C50.6843 24.8185 51.149 23.828 51.3984 22.7746H51.584L52.2871 27.3973H56.9098V15.6908C56.9098 13.2712 56.2723 11.3972 54.9972 10.0687C53.7218 8.7399 51.6511 8.0755 48.7852 8.0755M50.4021 22.5059C49.6684 23.1178 48.7077 23.4221 47.5119 23.4221C46.5266 23.4221 45.842 23.2496 45.4582 22.9046C45.2711 22.7413 45.1223 22.5389 45.0223 22.3116C44.9223 22.0843 44.8735 21.8379 44.8794 21.5896C44.8685 21.3556 44.9053 21.1217 44.9876 20.9023C45.0699 20.683 45.196 20.4826 45.3583 20.3135C45.6674 20.0236 46.0699 19.8536 46.4932 19.834L51.4981 19.8347V20.1531C51.5079 20.603 51.4141 21.0492 51.224 21.4571C51.034 21.8651 50.7528 22.2239 50.4021 22.5059ZM84.8628 8.51567H79.4014V27.4111H84.8628V8.51567ZM117.109 8.51567C115.566 8.51567 114.35 9.06006 113.46 10.1488C112.822 10.9314 112.337 12.0876 112.005 13.6175H111.844L111.13 8.5159H106.465V27.4083H111.927V17.7197C111.927 16.4982 112.213 15.5617 112.785 14.9101C113.357 14.2586 114.413 13.9329 115.952 13.9329H118.025V8.5159L117.109 8.51567ZM101.045 9.13311C99.7702 8.37463 98.162 7.9963 96.2205 7.99815C93.1643 7.99815 90.7727 8.86821 89.0456 10.6083C87.3181 12.3488 86.4544 14.7478 86.4545 17.8056C86.4103 19.6544 86.8139 21.4864 87.631 23.1454C88.3787 24.6238 89.5431 25.8507 90.9804 26.6746C92.4269 27.5108 94.1478 27.9298 96.1432 27.9316C97.8684 27.9316 99.3096 27.6659 100.467 27.1344C101.555 26.657 102.502 25.9088 103.218 24.9611C103.9 24.0309 104.407 22.9841 104.713 21.8721L100.007 20.5543C99.809 21.2774 99.4276 21.9372 98.9 22.47C98.3682 23.0015 97.4778 23.2672 96.2288 23.2672C94.7432 23.2672 93.6358 22.8419 92.9068 21.9911C92.378 21.3764 92.0458 20.4991 91.8994 19.3614H104.785C104.838 18.8298 104.866 18.3841 104.866 18.0243V16.8479C104.896 15.2674 104.57 13.7005 103.911 12.2638C103.293 10.9551 102.294 9.86371 101.045 9.13288M96.0631 12.5016C98.2774 12.5016 99.5331 13.5913 99.8301 15.7707H91.9963C92.1208 15.0436 92.4222 14.3582 92.8739 13.775C93.592 12.9242 94.6551 12.4998 96.0631 12.5016ZM82.1916 0.900593C81.7808 0.886552 81.3713 0.955275 80.9875 1.10267C80.6037 1.25007 80.2535 1.47314 79.9576 1.75861C79.4287 2.28169 79.116 2.98458 79.0814 3.72764L79.0803 3.97305C79.0655 4.3855 79.1358 4.79658 79.287 5.1806C79.4382 5.56463 79.667 5.91335 79.959 6.205C80.4885 6.7343 81.1967 7.04664 81.9446 7.08074L82.1916 7.08189C82.6015 7.09739 83.0101 7.02736 83.3914 6.87627C83.7727 6.72518 84.1183 6.49633 84.4063 6.20431C84.9248 5.66966 85.2289 4.96323 85.2609 4.21915L85.2618 3.97305C85.2807 3.56517 85.2143 3.15784 85.0668 2.77708C84.9192 2.39636 84.694 2.05047 84.4056 1.76137C84.1169 1.47262 83.7711 1.24719 83.3904 1.09947C83.0097 0.951741 82.6024 0.884951 82.1944 0.903355L82.1916 0.900593ZM70.9088 7.99815C69.0486 7.99815 67.5538 8.58213 66.4244 9.75009C65.5882 10.6157 64.9746 11.9076 64.5836 13.6258H64.4093L63.6949 8.52419H59.0308V32.8396H64.492V22.8243H64.6913C64.8579 23.4921 65.0916 24.1413 65.3889 24.762C65.8511 25.7731 66.6088 26.6204 67.5621 27.1924C68.5504 27.7322 69.664 28.0007 70.7897 27.9705C73.0761 27.9705 74.8171 27.08 76.0129 25.2991C77.2089 23.5181 77.8069 21.0333 77.8069 17.8445C77.8068 14.7643 77.2283 12.3532 76.0716 10.6111C74.9144 8.86913 73.1934 7.99815 70.9088 7.99815ZM71.4624 21.6893C70.868 22.5506 69.9602 23.0099 68.739 23.0672L68.4726 23.0734C67.9134 23.0993 67.3561 22.9915 66.8468 22.759C66.3375 22.5265 65.891 22.176 65.5443 21.7365C64.8372 20.8488 64.4847 19.6336 64.4867 18.0908V17.731C64.4867 16.164 64.8391 14.9644 65.544 14.1322C66.249 13.2999 67.2251 12.8884 68.4724 12.8976C69.8531 12.8976 70.8562 13.3359 71.4818 14.2126C72.1075 15.0893 72.4203 16.3119 72.4201 17.8804C72.4241 19.5025 72.1066 20.7721 71.4677 21.6893H71.4624Z" fill="#FA500F"/>
<path d="M19.0497 22.7855H0.154297V27.4138H19.0497V22.7855Z" fill="#FF4F00"/>
</g>
<defs>
<clipPath id="clip0_505_1710">
<rect width="117.88" height="32" fill="white" transform="translate(0.150391 0.898804)"/>
</clipPath>
</defs>
</svg>
