<svg width="38" height="36" viewBox="0 0 38 36" fill="none" xmlns="http://www.w3.org/2000/svg">
<path d="M0.4375 17.8931C0.4375 8.22808 8.27252 0.393066 17.9375 0.393066H19.6875C29.3525 0.393066 37.1875 8.22808 37.1875 17.8931C37.1875 27.5581 29.3525 35.3931 19.6875 35.3931H17.9375C8.27252 35.3931 0.4375 27.5581 0.4375 17.8931Z" fill="#999999" fill-opacity="0.2"/>
<g clip-path="url(#clip0_580_2465)">
<path d="M23.1875 17.4892C23.3221 17.6911 23.4567 17.8931 23.524 18.2296H21.3702C21.3702 18.1623 21.3702 18.0277 21.4375 17.8931C21.5048 17.7585 21.5048 17.6911 21.6394 17.5565C21.7067 17.4219 21.8413 17.3546 21.976 17.2873C22.1106 17.22 22.3125 17.1527 22.5144 17.1527C22.7837 17.22 23.0529 17.2873 23.1875 17.4892ZM16.9952 17.0181C17.1298 16.8835 17.2644 16.6815 17.2644 16.4123C17.2644 16.2777 17.2644 16.1431 17.1971 16.0085C17.1298 15.9411 17.0625 15.8065 16.9952 15.8065C16.9279 15.7392 16.7933 15.7392 16.6587 15.6719H14.9087V17.22H16.3894C16.5913 17.22 16.7933 17.1527 16.9952 17.0181ZM16.4567 18.1623H14.9087V19.9796H16.4567C16.5913 19.9796 16.726 19.9796 16.8606 19.9123C16.9952 19.9123 17.1298 19.845 17.1971 19.7777C17.2644 19.7104 17.399 19.6431 17.4663 19.5085C17.5337 19.3738 17.5337 19.2392 17.5337 19.1046C17.5337 18.7681 17.4663 18.4988 17.2644 18.3642C17.0625 18.2296 16.7933 18.1623 16.4567 18.1623ZM27.5625 12.4411V23.345C27.5625 25.1623 26.0817 26.6431 24.2644 26.6431H13.3606C11.5433 26.6431 10.0625 25.1623 10.0625 23.345V12.4411C10.0625 10.6238 11.5433 9.14307 13.3606 9.14307H24.2644C26.0817 9.14307 27.5625 10.6238 27.5625 12.4411ZM21.101 15.6046H23.7933V14.9315H21.101V15.6046ZM18.9471 19.2392C18.9471 18.8354 18.8798 18.4988 18.6779 18.1623C18.476 17.8931 18.2067 17.6911 17.8029 17.5565C18.0721 17.4219 18.3413 17.22 18.476 17.0181C18.6106 16.8161 18.6779 16.5469 18.6779 16.2104C18.6779 15.7056 18.6106 15.6719 18.5433 15.4027C18.4087 15.2008 18.274 14.9988 18.1394 14.9315C17.9375 14.7969 17.7356 14.7296 17.4663 14.6623C17.1298 14.5277 16.8606 14.5277 16.524 14.5277H13.4279V21.1238H16.6587C16.9279 21.1238 17.2644 21.0565 17.5337 20.9892C17.8029 20.9219 18.0721 20.7873 18.274 20.6527C18.476 20.5181 18.6779 20.3161 18.8125 20.0469C18.8798 19.845 18.9471 19.5758 18.9471 19.2392ZM21.3702 19.0373H24.8029C24.8029 18.6335 24.8029 18.2969 24.7356 17.9604C24.6683 17.6238 24.5337 17.2873 24.3317 17.0854C24.1298 16.8161 23.8606 16.6142 23.5913 16.4796C23.2548 16.345 22.9183 16.2104 22.5144 16.2104C22.1779 16.2104 21.8413 16.2777 21.5048 16.4123C21.2356 16.5469 20.9663 16.7488 20.6971 16.9508C20.4952 17.1527 20.2933 17.4219 20.226 17.7585C20.0913 18.095 20.024 18.4315 20.024 18.7681C20.024 19.2729 20.0913 19.5085 20.226 19.7777C20.3606 20.1142 20.4952 20.3835 20.6971 20.5854C20.899 20.7873 21.1683 20.9892 21.4375 21.1238C21.774 21.2585 22.1106 21.3258 22.4471 21.3258C22.9856 21.3258 23.4567 21.1911 23.8606 20.9219C24.2644 20.6527 24.5337 20.2488 24.7356 19.7104H23.5913C23.524 19.845 23.4567 19.9796 23.2548 20.1142C23.0529 20.2488 22.851 20.3161 22.5817 20.3161C22.2452 20.3161 21.9087 20.2488 21.7067 20.0469C21.5048 19.7777 21.3702 19.4411 21.3702 19.0373Z" fill="#F2F2F2"/>
</g>
<defs>
<clipPath id="clip0_580_2465">
<rect width="17.5" height="17.5" fill="white" transform="translate(10.0625 9.14307)"/>
</clipPath>
</defs>
</svg>
