<svg width="38" height="36" viewBox="0 0 38 36" fill="none" xmlns="http://www.w3.org/2000/svg">
<path d="M0.8125 17.8931C0.8125 8.22808 8.64752 0.393066 18.3125 0.393066H20.0625C29.7275 0.393066 37.5625 8.22808 37.5625 17.8931C37.5625 27.5581 29.7275 35.3931 20.0625 35.3931H18.3125C8.64752 35.3931 0.8125 27.5581 0.8125 17.8931Z" fill="#999999" fill-opacity="0.2"/>
<path d="M19.9362 10.6016C20.7565 10.6038 21.1729 10.6081 21.5323 10.6183L21.6738 10.6234C21.8371 10.6293 21.9983 10.6366 22.193 10.6453C22.9688 10.6818 23.4982 10.8043 23.9627 10.9844C24.4439 11.1696 24.8493 11.4204 25.2547 11.8251C25.6257 12.1895 25.9126 12.6304 26.0955 13.1172C26.2756 13.5817 26.3981 14.111 26.4345 14.8876C26.4433 15.0816 26.4506 15.2427 26.4564 15.4068L26.4608 15.5482C26.4717 15.907 26.4761 16.3233 26.4776 17.1436L26.4783 17.6876V18.6428C26.4801 19.1747 26.4745 19.7065 26.4615 20.2382L26.4571 20.3797C26.4513 20.5437 26.444 20.7049 26.4353 20.8989C26.3988 21.6754 26.2748 22.2041 26.0955 22.6693C25.9126 23.156 25.6257 23.597 25.2547 23.9614C24.8903 24.3323 24.4494 24.6192 23.9627 24.8021C23.4982 24.9822 22.9688 25.1047 22.193 25.1411L21.6738 25.163L21.5323 25.1674C21.1729 25.1776 20.7565 25.1827 19.9362 25.1842L19.3922 25.1849H18.4378C17.9057 25.1868 17.3736 25.1812 16.8416 25.1681L16.7002 25.1638C16.5271 25.1572 16.354 25.1497 16.181 25.1411C15.4052 25.1047 14.8758 24.9822 14.4106 24.8021C13.9241 24.6191 13.4834 24.3322 13.1192 23.9614C12.748 23.597 12.4609 23.1561 12.2778 22.6693C12.0977 22.2048 11.9752 21.6754 11.9387 20.8989L11.9168 20.3797L11.9132 20.2382C11.8997 19.7065 11.8937 19.1747 11.8949 18.6428V17.1436C11.8929 16.6118 11.8983 16.0799 11.911 15.5482L11.9161 15.4068C11.9219 15.2427 11.9292 15.0816 11.938 14.8876C11.9744 14.111 12.0969 13.5824 12.277 13.1172C12.4606 12.6302 12.7482 12.1893 13.1199 11.8251C13.4839 11.4544 13.9244 11.1674 14.4106 10.9844C14.8758 10.8043 15.4044 10.6818 16.181 10.6453C16.3749 10.6366 16.5368 10.6293 16.7002 10.6234L16.8416 10.6191C17.3733 10.6061 17.9052 10.6005 18.437 10.6023L19.9362 10.6016ZM19.1866 14.2474C18.2197 14.2474 17.2923 14.6315 16.6086 15.3152C15.9249 15.999 15.5408 16.9263 15.5408 17.8932C15.5408 18.8602 15.9249 19.7875 16.6086 20.4712C17.2923 21.1549 18.2197 21.5391 19.1866 21.5391C20.1535 21.5391 21.0809 21.1549 21.7646 20.4712C22.4483 19.7875 22.8324 18.8602 22.8324 17.8932C22.8324 16.9263 22.4483 15.999 21.7646 15.3152C21.0809 14.6315 20.1535 14.2474 19.1866 14.2474ZM19.1866 15.7057C19.4739 15.7057 19.7583 15.7622 20.0238 15.8721C20.2892 15.982 20.5304 16.1431 20.7335 16.3462C20.9367 16.5493 21.0978 16.7904 21.2078 17.0558C21.3178 17.3212 21.3744 17.6056 21.3745 17.8929C21.3745 18.1801 21.318 18.4646 21.2081 18.73C21.0982 18.9954 20.9371 19.2366 20.734 19.4398C20.5309 19.6429 20.2898 19.8041 20.0244 19.9141C19.7591 20.0241 19.4746 20.0807 19.1873 20.0807C18.6072 20.0807 18.0508 19.8503 17.6405 19.44C17.2303 19.0298 16.9998 18.4734 16.9998 17.8932C16.9998 17.3131 17.2303 16.7567 17.6405 16.3464C18.0508 15.9362 18.6072 15.7057 19.1873 15.7057M23.0155 13.1536C22.7737 13.1536 22.5419 13.2497 22.371 13.4206C22.2 13.5915 22.104 13.8234 22.104 14.0651C22.104 14.3068 22.2 14.5387 22.371 14.7096C22.5419 14.8805 22.7737 14.9766 23.0155 14.9766C23.2572 14.9766 23.489 14.8805 23.66 14.7096C23.8309 14.5387 23.9269 14.3068 23.9269 14.0651C23.9269 13.8234 23.8309 13.5915 23.66 13.4206C23.489 13.2497 23.2572 13.1536 23.0155 13.1536Z" fill="#F2F2F2"/>
</svg>
