<svg width="38" height="36" viewBox="0 0 38 36" fill="none" xmlns="http://www.w3.org/2000/svg">
<path d="M0.625 17.8931C0.625 8.22808 8.46002 0.393066 18.125 0.393066H19.875C29.54 0.393066 37.375 8.22808 37.375 17.8931C37.375 27.5581 29.54 35.3931 19.875 35.3931H18.125C8.46002 35.3931 0.625 27.5581 0.625 17.8931Z" fill="#999999" fill-opacity="0.2"/>
<path d="M24.1042 11.3306C24.4909 11.3306 24.8619 11.4842 25.1354 11.7577C25.4089 12.0312 25.5625 12.4021 25.5625 12.7889V22.9972C25.5625 23.384 25.4089 23.7549 25.1354 24.0284C24.8619 24.3019 24.4909 24.4556 24.1042 24.4556H13.8958C13.5091 24.4556 13.1381 24.3019 12.8646 24.0284C12.5911 23.7549 12.4375 23.384 12.4375 22.9972V12.7889C12.4375 12.4021 12.5911 12.0312 12.8646 11.7577C13.1381 11.4842 13.5091 11.3306 13.8958 11.3306H24.1042ZM23.7396 22.6327V18.7681C23.7396 18.1376 23.4891 17.533 23.0434 17.0872C22.5976 16.6414 21.9929 16.391 21.3625 16.391C20.7427 16.391 20.0208 16.7701 19.6708 17.3389V16.5295H17.6365V22.6327H19.6708V19.0379C19.6708 18.4764 20.1229 18.017 20.6844 18.017C20.9551 18.017 21.2148 18.1246 21.4062 18.316C21.5977 18.5075 21.7052 18.7671 21.7052 19.0379V22.6327H23.7396ZM15.2667 15.3847C15.5916 15.3847 15.9031 15.2557 16.1329 15.0259C16.3626 14.7962 16.4917 14.4846 16.4917 14.1597C16.4917 13.4816 15.9448 12.9274 15.2667 12.9274C14.9398 12.9274 14.6264 13.0573 14.3953 13.2884C14.1642 13.5195 14.0344 13.8329 14.0344 14.1597C14.0344 14.8379 14.5885 15.3847 15.2667 15.3847ZM16.2802 22.6327V16.5295H14.2604V22.6327H16.2802Z" fill="#F2F2F2"/>
</svg>
