<svg width="37" height="36" viewBox="0 0 37 36" fill="none" xmlns="http://www.w3.org/2000/svg">
<path d="M0.25 17.8931C0.25 8.22808 8.08502 0.393066 17.75 0.393066H19.5C29.165 0.393066 37 8.22808 37 17.8931C37 27.5581 29.165 35.3931 19.5 35.3931H17.75C8.08502 35.3931 0.25 27.5581 0.25 17.8931Z" fill="#999999" fill-opacity="0.2"/>
<g clip-path="url(#clip0_580_2468)">
<path d="M27.3181 21.5366C26.6903 22.6267 23.0459 25.1992 18.625 25.1992C14.2041 25.1992 10.5597 22.6267 9.93188 21.5366C9.8991 21.4794 9.87966 21.4156 9.875 21.3499V19.2579C9.88177 19.2032 9.89474 19.1493 9.91365 19.0975C10.1849 18.4157 10.8958 17.4263 11.8131 17.1608C11.9349 16.848 12.115 16.3916 12.2827 16.0547C12.2557 15.7916 12.2431 15.5273 12.2448 15.2628C12.2448 14.2923 12.4504 13.4406 13.0702 12.807C13.3597 12.5109 13.7192 12.2842 14.145 12.1128C15.1651 11.2845 16.6183 10.5867 18.609 10.5867C20.5996 10.5867 22.0849 11.2845 23.105 12.1128C23.5308 12.2842 23.8903 12.5109 24.1798 12.807C24.7996 13.4406 25.0052 14.2923 25.0052 15.2628C25.0052 15.5311 24.995 15.7973 24.9673 16.0547C25.135 16.3916 25.3151 16.848 25.4369 17.1608C26.3542 17.4263 27.0651 18.4157 27.3364 19.0975C27.3568 19.1489 27.3698 19.2029 27.375 19.2579V21.3499C27.3703 21.4156 27.3509 21.4794 27.3181 21.5366ZM18.7504 17.1674H18.4996C18.423 17.2974 18.3365 17.4212 18.2407 17.5378C17.6793 18.2283 16.8422 18.6257 15.6828 18.6257C14.425 18.6257 13.5033 18.364 12.9251 17.7077C12.9036 17.6831 12.8829 17.6578 12.8631 17.6319L12.7917 17.7077V22.5093C13.838 23.0773 16.0831 24.0981 18.625 24.0981C21.1669 24.0981 23.412 23.0773 24.4583 22.5093V17.7077L24.3869 17.6319C24.3869 17.6319 24.3628 17.6647 24.3249 17.7077C23.7467 18.364 22.825 18.6257 21.5672 18.6257C20.4078 18.6257 19.5707 18.2283 19.0093 17.5378C18.9135 17.4212 18.827 17.2974 18.7504 17.1674ZM20.4479 19.5372C20.8482 19.5372 21.1771 19.866 21.1771 20.2664V21.7247C21.1771 22.125 20.8482 22.4539 20.4479 22.4539C20.0476 22.4539 19.7188 22.125 19.7188 21.7247V20.2664C19.7188 19.866 20.0476 19.5372 20.4479 19.5372ZM16.8021 19.5372C17.2024 19.5372 17.5312 19.866 17.5312 20.2664V21.7247C17.5312 22.125 17.2024 22.4539 16.8021 22.4539C16.4018 22.4539 16.0729 22.125 16.0729 21.7247V20.2664C16.0729 19.866 16.4018 19.5372 16.8021 19.5372ZM19.2178 15.0273C19.317 15.798 19.5117 16.4222 19.858 16.848C20.1803 17.2447 20.6849 17.532 21.5672 17.532C22.7142 17.532 23.2384 17.2863 23.5046 16.9844C23.7846 16.6672 23.9115 16.1458 23.9115 15.2628C23.9115 14.4316 23.7343 13.916 23.3974 13.5719C23.0496 13.216 22.4356 12.9433 21.3382 12.8245C20.254 12.7071 19.7399 12.9251 19.4913 13.2102C19.2951 13.4341 19.1726 13.7994 19.1719 14.3608V14.3761C19.1719 14.5691 19.1872 14.7862 19.2178 15.0273ZM18.0322 15.0273C18.0628 14.7862 18.0781 14.5689 18.0781 14.3754V14.3608C18.0774 13.7994 17.9549 13.4341 17.7588 13.2102C17.5101 12.9251 16.996 12.7071 15.9118 12.8245C14.8144 12.9433 14.2004 13.216 13.8526 13.5719C13.5157 13.916 13.3385 14.4316 13.3385 15.2628C13.3385 16.1458 13.4661 16.6672 13.7454 16.9844C14.0116 17.2863 14.5358 17.532 15.6828 17.532C16.5651 17.532 17.0697 17.2447 17.392 16.848C17.7383 16.4222 17.933 15.798 18.0322 15.0273Z" fill="#F2F2F2"/>
</g>
<defs>
<clipPath id="clip0_580_2468">
<rect width="17.5" height="17.5" fill="white" transform="translate(9.875 9.14307)"/>
</clipPath>
</defs>
</svg>
