<svg width="37" height="36" viewBox="0 0 37 36" fill="none" xmlns="http://www.w3.org/2000/svg">
<path d="M0 17.8931C0 8.22808 7.83502 0.393066 17.5 0.393066H19.25C28.915 0.393066 36.75 8.22808 36.75 17.8931C36.75 27.5581 28.915 35.3931 19.25 35.3931H17.5C7.83502 35.3931 0 27.5581 0 17.8931Z" fill="#999999" fill-opacity="0.2"/>
<path d="M21.729 13.3868C21.2307 12.8177 20.956 12.087 20.9561 11.3306H18.703V20.3722C18.686 20.8616 18.4795 21.3253 18.1272 21.6654C17.7748 22.0055 17.3042 22.1954 16.8145 22.1951C15.779 22.1951 14.9186 21.3493 14.9186 20.2993C14.9186 19.0452 16.129 18.1045 17.3759 18.491V16.1868C14.8603 15.8514 12.6582 17.8056 12.6582 20.2993C12.6582 22.7274 14.6707 24.4556 16.8072 24.4556C19.0967 24.4556 20.9561 22.5962 20.9561 20.2993V15.7129C21.8698 16.369 22.9667 16.721 24.0915 16.7191V14.466C24.0915 14.466 22.7207 14.5316 21.729 13.3868Z" fill="#F2F2F2"/>
</svg>
