<svg width="63" height="62" viewBox="0 0 63 62" fill="none" xmlns="http://www.w3.org/2000/svg">
<path d="M0.5 16.0083C0.5 7.17174 7.66344 0.00830078 16.5 0.00830078H46.5C55.3366 0.00830078 62.5 7.17174 62.5 16.0083V46.0083C62.5 54.8449 55.3366 62.0083 46.5 62.0083H16.5C7.66344 62.0083 0.5 54.8449 0.5 46.0083V16.0083Z" fill="url(#paint0_linear_860_1144)" fill-opacity="0.29"/>
<g clip-path="url(#clip0_860_1144)">
<path d="M47.2506 41.5088C47.2664 42.2079 47.1424 42.9031 46.8858 43.5537C46.6292 44.2042 46.2453 44.797 45.7565 45.2971C45.2676 45.7972 44.6838 46.1946 44.0393 46.466C43.3948 46.7374 42.7026 46.8773 42.0033 46.8774C41.3039 46.8776 40.6116 46.7381 39.967 46.467C39.3223 46.1959 38.7383 45.7988 38.2493 45.299C37.7602 44.7991 37.376 44.2066 37.1191 43.5561C36.8621 42.9057 36.7378 42.2105 36.7532 41.5114C36.7836 40.1397 37.3497 38.8343 38.3304 37.8748C39.3112 36.9152 40.6286 36.3778 42.0006 36.3774C43.3727 36.3771 44.6904 36.9139 45.6716 37.8729C46.6528 38.832 47.2196 40.137 47.2506 41.5088Z" fill="url(#paint1_linear_860_1144)"/>
<path d="M41.2125 52.0083C39.1125 52.0083 37.0125 51.4833 35.175 50.1708L18.9 41.5083C17.5875 40.4583 16.5375 39.9333 15.4875 38.8833C12.3375 35.7333 10.5 31.2708 10.5 26.8083C10.5 22.3458 12.3375 18.1458 15.4875 14.9958C18.6375 11.8458 22.8375 10.0083 27.3 10.0083C31.7625 10.0083 35.9625 11.8458 39.375 14.9958C40.425 16.0458 40.95 16.8333 42 18.1458L51.1875 34.9458C53.8125 39.4083 53.025 44.9208 49.35 48.5958C46.9875 50.9583 44.3625 52.0083 41.2125 52.0083ZM27.3 12.6333C23.625 12.6333 19.95 14.2083 17.325 16.8333C14.7 19.4583 13.125 23.1333 13.125 26.8083C13.125 30.7458 14.7 34.1583 17.325 36.7833C18.1125 37.5708 18.9 38.0958 20.2125 38.8833L36.75 47.8083C38.325 48.8583 39.9 49.1208 41.475 49.1208C43.8375 49.1208 45.9375 48.3333 47.5125 46.4958C50.4 43.6083 50.925 39.4083 48.825 35.9958L39.6375 19.1958C38.85 18.1458 38.325 17.3583 37.5375 16.5708C34.65 14.2083 31.2375 12.6333 27.3 12.6333Z" fill="url(#paint2_linear_860_1144)"/>
<path d="M39.375 28.3833V25.7583L35.7 24.4458C35.4375 23.9208 35.4375 23.6583 35.175 23.1333L36.75 19.7208L34.9125 17.8833L31.5 19.4583C30.975 19.1958 30.7125 19.1958 30.1875 18.9333L28.875 15.2583H26.25L24.9375 18.9333C24.4125 19.1958 24.15 19.1958 23.625 19.4583L20.2125 17.8833L18.375 19.7208L19.95 23.1333C19.6875 23.6583 19.6875 23.9208 19.425 24.4458L15.75 25.7583V28.3833L19.425 29.6958C19.6875 30.2208 19.6875 30.4833 19.95 31.0083L18.375 34.4208L20.2125 36.2583L23.625 34.6833C24.15 34.9458 24.4125 35.2083 24.9375 35.2083L26.25 38.8833H28.875L30.1875 35.2083C30.7125 34.9458 30.975 34.9458 31.5 34.6833L34.9125 36.2583L36.75 34.4208L35.175 31.0083C35.4375 30.4833 35.7 30.2208 35.7 29.6958L39.375 28.3833ZM27.5625 31.0083C25.4625 31.0083 23.625 29.1708 23.625 27.0708C23.625 24.9708 25.4625 23.1333 27.5625 23.1333C29.6625 23.1333 31.5 24.9708 31.5 27.0708C31.5 29.1708 29.6625 31.0083 27.5625 31.0083Z" fill="url(#paint3_linear_860_1144)"/>
</g>
<defs>
<linearGradient id="paint0_linear_860_1144" x1="4.70339" y1="0.00830307" x2="81.6046" y2="20.8112" gradientUnits="userSpaceOnUse">
<stop stop-color="#0146F8"/>
<stop offset="1" stop-color="#962EB9"/>
</linearGradient>
<linearGradient id="paint1_linear_860_1144" x1="37.4638" y1="36.3774" x2="50.4874" y2="39.9005" gradientUnits="userSpaceOnUse">
<stop stop-color="#0146F8"/>
<stop offset="1" stop-color="#962EB9"/>
</linearGradient>
<linearGradient id="paint2_linear_860_1144" x1="13.3633" y1="10.0083" x2="65.7071" y2="24.2467" gradientUnits="userSpaceOnUse">
<stop stop-color="#0146F8"/>
<stop offset="1" stop-color="#962EB9"/>
</linearGradient>
<linearGradient id="paint3_linear_860_1144" x1="17.3517" y1="15.2583" x2="46.6548" y2="23.1852" gradientUnits="userSpaceOnUse">
<stop stop-color="#0146F8"/>
<stop offset="1" stop-color="#962EB9"/>
</linearGradient>
<clipPath id="clip0_860_1144">
<rect width="42" height="42" fill="white" transform="translate(10.5 10.0083)"/>
</clipPath>
</defs>
</svg>
