<svg width="62" height="62" viewBox="0 0 62 62" fill="none" xmlns="http://www.w3.org/2000/svg">
<path d="M0 16.0083C0 7.17174 7.16344 0.00830078 16 0.00830078H46C54.8366 0.00830078 62 7.17174 62 16.0083V46.0083C62 54.8449 54.8366 62.0083 46 62.0083H16C7.16344 62.0083 0 54.8449 0 46.0083V16.0083Z" fill="url(#paint0_linear_860_155)" fill-opacity="0.29"/>
<g clip-path="url(#clip0_860_155)">
<path d="M50.4688 20.7835L42.2998 12.6145C42.0766 12.393 41.7829 12.2565 41.4697 12.2287C41.1565 12.2009 40.8435 12.2835 40.5847 12.4622L24.8645 23.0497C27.8395 23.2352 29.6455 24.4427 29.6455 27.192C29.6455 29.593 28.3505 31.0875 26.1595 31.3482V31.3902C27.178 31.5757 27.8535 32.0482 28.354 32.6852C28.529 32.9057 28.6497 33.1665 28.718 33.4447L29.9605 37.2072L35.3015 23.8232C35.3938 23.5937 35.5526 23.397 35.7574 23.2582C35.9623 23.1195 36.2039 23.045 36.4513 23.0445H41.1448L47.387 38.6755H43.5247C42.7407 38.6755 42.0075 38.1802 41.6768 37.4365L41.0747 35.725H35.4048L34.304 38.6755H25.834C25.6127 38.6719 25.3997 38.5907 25.2321 38.4461C25.0646 38.3016 24.953 38.1028 24.917 37.8845L23.5082 33.7895C23.3123 33.0877 22.6157 32.9775 21.9297 32.9775H20.5595V38.6755H15.7383V29.201L12.8525 31.1417C12.7244 31.2318 12.6197 31.3512 12.5472 31.4901C12.4747 31.6289 12.4366 31.7831 12.436 31.9397V37.9737C12.436 38.3622 12.667 38.7087 13.0205 38.8662L40.2155 50.2482C40.4623 50.3547 40.7353 50.385 40.9995 50.3351C41.2636 50.2852 41.5068 50.1574 41.6978 49.9682L50.4618 41.241C50.9496 40.756 51.3367 40.1792 51.6007 39.544C51.8647 38.9088 52.0004 38.2276 52 37.5397V24.4795C51.9969 23.0943 51.4465 21.7646 50.4688 20.7835ZM24.6562 27.9987C24.6562 26.5882 23.6937 26.3835 22.67 26.3835H20.626V29.7085H22.5965C23.6395 29.7085 24.6562 29.5737 24.6562 27.9987ZM36.6753 32.2372H39.8497L38.2958 27.822L36.6753 32.2372ZM21.9525 23.02L38.7542 10.5722C38.8071 10.5336 38.8464 10.4793 38.8665 10.417C38.8866 10.3547 38.8864 10.2876 38.866 10.2254C38.8456 10.1632 38.806 10.109 38.7529 10.0707C38.6998 10.0324 38.636 10.012 38.5705 10.0122H24.7962C24.0052 10.012 23.2218 10.1676 22.4909 10.4703C21.7601 10.773 21.096 11.2167 20.5367 11.7762L11.764 20.5472C11.2045 21.1065 10.7608 21.7705 10.4581 22.5014C10.1554 23.2323 9.99975 24.0156 10 24.8067V37.2107C9.99975 38.0018 10.1554 38.7851 10.4581 39.516C10.7608 40.2469 11.2045 40.9109 11.764 41.4702L20.5367 50.2412C21.096 50.8007 21.7601 51.2444 22.4909 51.5471C23.2218 51.8498 24.0052 52.0055 24.7962 52.0052H36.7277C37.0602 52.0052 37.16 51.5555 36.859 51.4137L13.1465 40.2347C12.6627 40.0053 12.2537 39.6436 11.9669 39.1915C11.6801 38.7393 11.5273 38.2152 11.526 37.6797V31.7297C11.526 31.1067 11.8218 30.5222 12.3205 30.1547L15.7365 27.6225V23.02H21.9525Z" fill="url(#paint1_linear_860_155)"/>
</g>
<defs>
<linearGradient id="paint0_linear_860_155" x1="4.20339" y1="0.00830307" x2="81.1046" y2="20.8112" gradientUnits="userSpaceOnUse">
<stop stop-color="#0146F8"/>
<stop offset="1" stop-color="#962EB9"/>
</linearGradient>
<linearGradient id="paint1_linear_860_155" x1="12.8475" y1="10.0122" x2="64.9406" y2="24.1065" gradientUnits="userSpaceOnUse">
<stop stop-color="#0146F8"/>
<stop offset="1" stop-color="#962EB9"/>
</linearGradient>
<clipPath id="clip0_860_155">
<rect width="42" height="42" fill="white" transform="translate(10 10.0083)"/>
</clipPath>
</defs>
</svg>
