<svg width="63" height="63" viewBox="0 0 63 63" fill="none" xmlns="http://www.w3.org/2000/svg">
<path d="M0.5 16.1533C0.5 7.31676 7.66344 0.15332 16.5 0.15332H46.5C55.3366 0.15332 62.5 7.31676 62.5 16.1533V46.1533C62.5 54.9899 55.3366 62.1533 46.5 62.1533H16.5C7.66344 62.1533 0.5 54.9899 0.5 46.1533V16.1533Z" fill="url(#paint0_linear_860_2581)" fill-opacity="0.29"/>
<g clip-path="url(#clip0_860_2581)">
<path d="M46.7478 24.3775L46.3173 25.368C46.25 25.5293 46.1365 25.6671 45.9911 25.764C45.8456 25.8609 45.6748 25.9126 45.5 25.9126C45.3253 25.9126 45.1544 25.8609 45.009 25.764C44.8635 25.6671 44.75 25.5293 44.6828 25.368L44.2523 24.3775C43.4954 22.6253 42.1092 21.2204 40.3673 20.44L39.039 19.8468C38.8779 19.7726 38.7414 19.6539 38.6457 19.5045C38.55 19.3552 38.4991 19.1815 38.4991 19.0041C38.4991 18.8268 38.55 18.6531 38.6457 18.5038C38.7414 18.3544 38.8779 18.2356 39.039 18.1615L40.2938 17.6033C42.0795 16.8007 43.4894 15.3438 44.233 13.5328L44.6758 12.4635C44.7408 12.2979 44.8542 12.1557 45.0012 12.0554C45.1483 11.9552 45.3221 11.9016 45.5 11.9016C45.678 11.9016 45.8518 11.9552 45.9988 12.0554C46.1458 12.1557 46.2592 12.2979 46.3243 12.4635L46.767 13.531C47.5099 15.3424 48.9191 16.7999 50.7045 17.6033L51.961 18.1633C52.1217 18.2376 52.2577 18.3564 52.353 18.5055C52.4484 18.6547 52.499 18.828 52.499 19.005C52.499 19.182 52.4484 19.3553 52.353 19.5045C52.2577 19.6537 52.1217 19.7724 51.961 19.8468L50.631 20.4383C48.8894 21.2194 47.5039 22.6249 46.7478 24.3775ZM45.5 29.4035C46.6725 29.4035 47.7978 29.211 48.8513 28.8575C48.9504 29.61 49 30.3753 49 31.1535C49 40.8188 41.1653 48.6535 31.5 48.6535C28.6254 48.6575 25.7945 47.9506 23.2593 46.5955L14 48.6535L16.058 39.3943C14.703 36.8591 13.996 34.0281 14 31.1535C14 21.4883 21.8348 13.6535 31.5 13.6535C33.0855 13.6535 34.6203 13.8635 36.0798 14.259C35.2901 15.8601 34.9217 17.6361 35.0094 19.4192C35.097 21.2022 35.6379 22.9335 36.5808 24.4494C37.5237 25.9653 38.8376 27.2157 40.3982 28.0826C41.9589 28.9494 43.7148 29.4041 45.5 29.4035ZM22.75 31.1535C22.75 33.4741 23.6719 35.6997 25.3128 37.3407C26.9538 38.9816 29.1794 39.9035 31.5 39.9035C33.8207 39.9035 36.0463 38.9816 37.6872 37.3407C39.3281 35.6997 40.25 33.4741 40.25 31.1535H36.75C36.75 32.5459 36.1969 33.8813 35.2123 34.8658C34.2278 35.8504 32.8924 36.4035 31.5 36.4035C30.1076 36.4035 28.7723 35.8504 27.7877 34.8658C26.8031 33.8813 26.25 32.5459 26.25 31.1535H22.75Z" fill="url(#paint1_linear_860_2581)"/>
</g>
<defs>
<linearGradient id="paint0_linear_860_2581" x1="4.70339" y1="0.153323" x2="81.6046" y2="20.9562" gradientUnits="userSpaceOnUse">
<stop stop-color="#0146F8"/>
<stop offset="1" stop-color="#962EB9"/>
</linearGradient>
<linearGradient id="paint1_linear_860_2581" x1="16.6101" y1="11.9016" x2="64.0472" y2="25.3441" gradientUnits="userSpaceOnUse">
<stop stop-color="#0146F8"/>
<stop offset="1" stop-color="#962EB9"/>
</linearGradient>
<clipPath id="clip0_860_2581">
<rect width="42" height="42" fill="white" transform="translate(10.5 10.1533)"/>
</clipPath>
</defs>
</svg>
