<svg width="62" height="63" viewBox="0 0 62 63" fill="none" xmlns="http://www.w3.org/2000/svg">
<path d="M0 16.3394C0 7.5028 7.16344 0.339355 16 0.339355H46C54.8366 0.339355 62 7.5028 62 16.3394V46.3394C62 55.1759 54.8366 62.3394 46 62.3394H16C7.16344 62.3394 0 55.1759 0 46.3394V16.3394Z" fill="url(#paint0_linear_860_2374)" fill-opacity="0.29"/>
<g clip-path="url(#clip0_860_2374)">
<path d="M32.0393 51.0414L32.0183 51.0449L31.8941 51.1061L31.8591 51.1131L31.8346 51.1061L31.7103 51.0431C31.6916 51.0384 31.6776 51.0419 31.6683 51.0536L31.6613 51.0711L31.6316 51.8201L31.6403 51.8551L31.6578 51.8779L31.8398 52.0074L31.8661 52.0144L31.8871 52.0074L32.0691 51.8779L32.0901 51.8499L32.0971 51.8201L32.0673 51.0729C32.0626 51.0542 32.0533 51.0437 32.0393 51.0414ZM32.5013 50.8436L32.4768 50.8471L32.1548 51.0099L32.1373 51.0274L32.1321 51.0466L32.1636 51.7991L32.1723 51.8201L32.1863 51.8341L32.5381 51.9951C32.5602 52.0009 32.5771 51.9963 32.5888 51.9811L32.5958 51.9566L32.5363 50.8821C32.5305 50.8599 32.5188 50.8471 32.5013 50.8436ZM31.2501 50.8471C31.2423 50.8424 31.2331 50.8409 31.2243 50.8429C31.2155 50.8448 31.2078 50.8501 31.2028 50.8576L31.1923 50.8821L31.1328 51.9566C31.134 51.9776 31.1439 51.9916 31.1626 51.9986L31.1888 51.9951L31.5406 51.8324L31.5581 51.8184L31.5633 51.7991L31.5948 51.0466L31.5896 51.0256L31.5721 51.0081L31.2501 50.8471Z" fill="url(#paint1_linear_860_2374)"/>
<path d="M25.9377 19.8738C26.9842 16.8113 31.2157 16.7186 32.4564 19.5956L32.5614 19.8756L33.9737 24.0056C34.2973 24.9528 34.8203 25.8195 35.5074 26.5473C36.1945 27.2752 37.0297 27.8472 37.9567 28.2248L38.3364 28.3666L42.4664 29.7771C45.5289 30.8236 45.6217 35.0551 42.7464 36.2958L42.4664 36.4008L38.3364 37.8131C37.3889 38.1365 36.5219 38.6594 35.7937 39.3465C35.0655 40.0336 34.4932 40.869 34.1154 41.7961L33.9737 42.1741L32.5632 46.3058C31.5167 49.3683 27.2852 49.4611 26.0462 46.5858L25.9377 46.3058L24.5272 42.1758C24.2037 41.2284 23.6808 40.3613 22.9937 39.6331C22.3066 38.905 21.4713 38.3327 20.5442 37.9548L20.1662 37.8131L16.0362 36.4026C12.9719 35.3561 12.8792 31.1246 15.7562 29.8856L16.0362 29.7771L20.1662 28.3666C21.1133 28.0429 21.9801 27.5199 22.7079 26.8328C23.4358 26.1457 24.0078 25.3106 24.3854 24.3836L24.5272 24.0056L25.9377 19.8738ZM43.2504 13.8398C43.5778 13.8398 43.8986 13.9317 44.1764 14.1049C44.4542 14.2782 44.6779 14.5258 44.8219 14.8198L44.9059 15.0246L45.5184 16.8201L47.3157 17.4326C47.6438 17.5441 47.9314 17.7504 48.1421 18.0255C48.3528 18.3006 48.477 18.6321 48.4992 18.9779C48.5213 19.3237 48.4402 19.6683 48.2663 19.968C48.0924 20.2677 47.8334 20.509 47.5222 20.6613L47.3157 20.7453L45.5202 21.3578L44.9077 23.1551C44.796 23.4831 44.5895 23.7706 44.3143 23.9811C44.0391 24.1916 43.7076 24.3157 43.3618 24.3376C43.016 24.3595 42.6715 24.2783 42.3719 24.1043C42.0723 23.9302 41.8311 23.6711 41.6789 23.3598L41.5949 23.1551L40.9824 21.3596L39.1852 20.7471C38.8571 20.6356 38.5695 20.4293 38.3588 20.1542C38.1481 19.8791 38.0238 19.5476 38.0017 19.2018C37.9796 18.856 38.0606 18.5114 38.2345 18.2117C38.4085 17.912 38.6675 17.6707 38.9787 17.5183L39.1852 17.4343L40.9807 16.8218L41.5932 15.0246C41.7112 14.6788 41.9344 14.3787 42.2316 14.1662C42.5288 13.9537 42.8851 13.8396 43.2504 13.8398Z" fill="url(#paint2_linear_860_2374)"/>
</g>
<defs>
<linearGradient id="paint0_linear_860_2374" x1="4.20339" y1="0.339358" x2="81.1046" y2="21.1423" gradientUnits="userSpaceOnUse">
<stop stop-color="#0146F8"/>
<stop offset="1" stop-color="#962EB9"/>
</linearGradient>
<linearGradient id="paint1_linear_860_2374" x1="31.232" y1="50.842" x2="32.9802" y2="51.4322" gradientUnits="userSpaceOnUse">
<stop stop-color="#0146F8"/>
<stop offset="1" stop-color="#962EB9"/>
</linearGradient>
<linearGradient id="paint2_linear_860_2374" x1="16.0278" y1="13.8398" x2="59.2369" y2="25.5292" gradientUnits="userSpaceOnUse">
<stop stop-color="#0146F8"/>
<stop offset="1" stop-color="#962EB9"/>
</linearGradient>
<clipPath id="clip0_860_2374">
<rect width="42" height="42" fill="white" transform="translate(10 10.3394)"/>
</clipPath>
</defs>
</svg>
