<svg width="63" height="63" viewBox="0 0 63 63" fill="none" xmlns="http://www.w3.org/2000/svg">
<path d="M0.5 16.3394C0.5 7.5028 7.66344 0.339355 16.5 0.339355H46.5C55.3366 0.339355 62.5 7.5028 62.5 16.3394V46.3394C62.5 55.1759 55.3366 62.3394 46.5 62.3394H16.5C7.66344 62.3394 0.5 55.1759 0.5 46.3394V16.3394Z" fill="url(#paint0_linear_860_267)" fill-opacity="0.29"/>
<path d="M21.3736 25.439L20.9431 26.4295C20.8759 26.5908 20.7624 26.7286 20.6169 26.8255C20.4715 26.9224 20.3007 26.9741 20.1259 26.9741C19.9511 26.9741 19.7803 26.9224 19.6349 26.8255C19.4894 26.7286 19.3759 26.5908 19.3086 26.4295L18.8781 25.439C18.1212 23.6868 16.7351 22.2819 14.9931 21.5015L13.6649 20.9083C13.5038 20.8342 13.3672 20.7154 13.2716 20.566C13.1759 20.4167 13.125 20.243 13.125 20.0657C13.125 19.8883 13.1759 19.7146 13.2716 19.5653C13.3672 19.4159 13.5038 19.2972 13.6649 19.223L14.9196 18.6648C16.7053 17.8622 18.1152 16.4053 18.8589 14.5943L19.3016 13.525C19.3667 13.3594 19.4801 13.2172 19.6271 13.117C19.7741 13.0167 19.948 12.9631 20.1259 12.9631C20.3038 12.9631 20.4776 13.0167 20.6247 13.117C20.7717 13.2172 20.8851 13.3594 20.9501 13.525L21.3929 14.5925C22.1358 16.4039 23.545 17.8614 25.3304 18.6648L26.5869 19.2248C26.7475 19.2991 26.8836 19.4179 26.9789 19.567C27.0742 19.7162 27.1249 19.8895 27.1249 20.0665C27.1249 20.2435 27.0742 20.4169 26.9789 20.566C26.8836 20.7152 26.7475 20.8339 26.5869 20.9083L25.2569 21.4998C23.5153 22.2809 22.1298 23.6864 21.3736 25.439ZM30.1674 31.8125L38.5009 47.09H50.7509L36.7509 20.84L30.1674 31.8125ZM35.0009 47.09L24.5009 27.84L14.0009 47.09H35.0009Z" fill="url(#paint1_linear_860_267)"/>
<defs>
<linearGradient id="paint0_linear_860_267" x1="4.70339" y1="0.339358" x2="81.6046" y2="21.1423" gradientUnits="userSpaceOnUse">
<stop stop-color="#0146F8"/>
<stop offset="1" stop-color="#962EB9"/>
</linearGradient>
<linearGradient id="paint1_linear_860_267" x1="15.6759" y1="12.9631" x2="61.6688" y2="26.6805" gradientUnits="userSpaceOnUse">
<stop stop-color="#0146F8"/>
<stop offset="1" stop-color="#962EB9"/>
</linearGradient>
</defs>
</svg>
