<svg width="482" height="471" viewBox="0 0 482 471" fill="none" xmlns="http://www.w3.org/2000/svg">
<g clip-path="url(#clip0_413_20649)">
<path d="M451.11 354.824C455.55 355.924 456.03 357.954 452.19 359.374L290.19 419.174C286.44 420.554 279.82 420.814 275.39 419.754L156.49 391.124C152 390.044 151.39 388.024 155.13 386.624L316.82 325.954C320.65 324.514 327.42 324.254 331.92 325.364L451.11 354.824Z" fill="url(#paint0_linear_413_20649)"/>
<path style="mix-blend-mode:screen" d="M435.69 355.594C439.66 356.574 440.09 358.394 436.67 359.654L287.9 414.624C284.56 415.864 278.64 416.094 274.68 415.134L171.8 390.334C167.8 389.374 167.26 387.574 170.6 386.324L319.13 330.654C322.54 329.374 328.57 329.144 332.58 330.134L435.69 355.594Z" fill="url(#paint1_linear_413_20649)"/>
<path d="M455.23 359.454C455.23 359.454 455.23 359.434 455.23 359.424C455.23 359.364 455.23 359.304 455.23 359.244C455.23 359.204 455.23 359.164 455.23 359.134C455.23 359.114 455.23 359.104 455.23 359.084L454.77 356.984C454.78 357.034 454.77 357.094 454.78 357.144C454.78 357.204 454.78 357.264 454.78 357.324C454.78 357.374 454.76 357.424 454.74 357.464C454.72 357.524 454.71 357.574 454.69 357.634C454.67 357.684 454.64 357.724 454.61 357.774C454.58 357.834 454.54 357.894 454.49 357.954C454.46 357.994 454.41 358.044 454.38 358.084C454.32 358.154 454.25 358.224 454.17 358.284C454.13 358.324 454.08 358.364 454.03 358.404C453.91 358.494 453.78 358.584 453.64 358.674C453.59 358.704 453.54 358.744 453.48 358.774C453.39 358.824 453.29 358.874 453.19 358.924C453.1 358.964 453.02 359.014 452.92 359.054C452.81 359.104 452.69 359.154 452.57 359.204C452.45 359.254 452.33 359.304 452.2 359.354L290.2 419.154L290.73 421.194L452.66 361.444C452.66 361.444 452.74 361.414 452.78 361.394C452.87 361.364 452.95 361.324 453.03 361.284C453.15 361.234 453.27 361.184 453.38 361.134C453.48 361.094 453.56 361.044 453.65 361.004C453.75 360.954 453.85 360.904 453.94 360.854C453.96 360.844 453.98 360.834 454 360.824C454.04 360.804 454.06 360.784 454.1 360.754C454.24 360.664 454.37 360.574 454.49 360.484C454.52 360.464 454.55 360.444 454.58 360.424C454.6 360.404 454.62 360.384 454.64 360.364C454.72 360.294 454.78 360.224 454.85 360.164C454.88 360.134 454.91 360.104 454.94 360.074C454.95 360.064 454.96 360.044 454.97 360.034C455.02 359.974 455.05 359.914 455.09 359.854C455.11 359.824 455.14 359.784 455.16 359.754C455.16 359.744 455.16 359.734 455.17 359.714C455.19 359.654 455.21 359.604 455.22 359.544C455.23 359.504 455.25 359.464 455.26 359.434L455.23 359.454Z" fill="url(#paint2_linear_413_20649)"/>
<path d="M287.97 421.944C288.14 421.914 288.32 421.884 288.48 421.844C288.52 421.844 288.55 421.834 288.59 421.824C288.65 421.814 288.71 421.794 288.77 421.784C289.04 421.724 289.3 421.664 289.55 421.594C289.64 421.564 289.74 421.544 289.83 421.514C290.15 421.424 290.46 421.324 290.75 421.214L290.22 419.174C289.93 419.284 289.62 419.374 289.3 419.474C289.21 419.504 289.11 419.524 289.02 419.554C288.77 419.624 288.51 419.684 288.24 419.744C288.14 419.764 288.05 419.794 287.95 419.814C287.78 419.854 287.61 419.884 287.44 419.914C287.31 419.944 287.17 419.964 287.03 419.984C286.85 420.014 286.67 420.044 286.48 420.064C286.35 420.084 286.22 420.104 286.08 420.124C285.7 420.174 285.31 420.214 284.92 420.254C284.8 420.264 284.67 420.274 284.54 420.284C284.31 420.304 284.08 420.324 283.85 420.334C283.7 420.334 283.55 420.354 283.39 420.354C283.2 420.354 283.01 420.374 282.82 420.374C282.66 420.374 282.49 420.374 282.33 420.384C282.16 420.384 281.98 420.384 281.81 420.384C281.64 420.384 281.48 420.384 281.31 420.384C281.14 420.384 280.96 420.384 280.79 420.384C280.63 420.384 280.47 420.384 280.31 420.364C280.12 420.364 279.94 420.344 279.75 420.334C279.6 420.334 279.45 420.314 279.3 420.304C279.08 420.284 278.86 420.264 278.64 420.244C278.51 420.234 278.39 420.224 278.26 420.204C277.86 420.164 277.47 420.114 277.09 420.054C277.03 420.054 276.98 420.034 276.93 420.024C276.41 419.944 275.9 419.844 275.42 419.724L156.52 391.094C154.26 390.554 152.98 389.774 152.75 388.944L153.34 391.014C153.58 391.834 154.85 392.614 157.11 393.154L275.95 421.754C276.43 421.874 276.94 421.964 277.46 422.054C277.49 422.054 277.52 422.064 277.56 422.074C277.58 422.074 277.6 422.074 277.62 422.074C278 422.134 278.39 422.184 278.79 422.224C278.82 422.224 278.85 422.224 278.88 422.234C278.97 422.234 279.07 422.254 279.16 422.254C279.38 422.274 279.6 422.294 279.83 422.314C279.89 422.314 279.95 422.324 280.01 422.334C280.1 422.334 280.19 422.334 280.28 422.344C280.47 422.354 280.65 422.364 280.84 422.374C280.92 422.374 280.99 422.374 281.07 422.384C281.15 422.384 281.24 422.384 281.33 422.384C281.5 422.384 281.68 422.384 281.85 422.384C281.94 422.384 282.02 422.384 282.1 422.384C282.18 422.384 282.26 422.384 282.34 422.384C282.52 422.384 282.69 422.384 282.87 422.384C282.96 422.384 283.05 422.384 283.14 422.384C283.21 422.384 283.29 422.384 283.36 422.384C283.55 422.384 283.74 422.374 283.92 422.364C284.02 422.364 284.11 422.364 284.21 422.354C284.27 422.354 284.32 422.354 284.38 422.344C284.61 422.334 284.84 422.314 285.07 422.294C285.17 422.294 285.26 422.284 285.36 422.274C285.39 422.274 285.42 422.274 285.45 422.264C285.84 422.224 286.23 422.184 286.61 422.134C286.63 422.134 286.65 422.134 286.67 422.134C286.78 422.114 286.89 422.094 287.01 422.084C287.2 422.054 287.38 422.034 287.56 422.004C287.7 421.984 287.83 421.954 287.96 421.934L287.97 421.944Z" fill="url(#paint3_linear_413_20649)"/>
<path d="M270.559 393.854H274.479V389.934H270.559V393.854Z" fill="url(#paint4_linear_413_20649)"/>
<path d="M349.99 313.504H354.43V309.064H349.99V313.504Z" fill="url(#paint5_linear_413_20649)"/>
<path d="M374.65 297.114H379.09V292.674H374.65V297.114Z" fill="url(#paint6_linear_413_20649)"/>
<path d="M389.9 325.834H395.9V319.834H389.9V325.834Z" fill="url(#paint7_linear_413_20649)"/>
<path d="M340.42 358.064H346.42V352.064H340.42V358.064Z" fill="url(#paint8_linear_413_20649)"/>
<path d="M231.779 316.834H236.229V312.384H231.779V316.834Z" fill="url(#paint9_linear_413_20649)"/>
<path d="M253.69 371.594H258.14V367.144H253.69V371.594Z" fill="url(#paint10_linear_413_20649)"/>
<path d="M218.02 345.395H222.47V340.945H218.02V345.395Z" fill="url(#paint11_linear_413_20649)"/>
<path d="M215.05 390.444H219.5V385.994H215.05V390.444Z" fill="url(#paint12_linear_413_20649)"/>
<path d="M356.21 336.915H360.66V332.465H356.21V336.915Z" fill="url(#paint13_linear_413_20649)"/>
<path d="M414.37 336.864H418.82V332.414H414.37V336.864Z" fill="url(#paint14_linear_413_20649)"/>
<path d="M370.57 363.854H375.02V359.405H370.57V363.854Z" fill="url(#paint15_linear_413_20649)"/>
<path d="M175.92 355.674H180.37V351.224H175.92V355.674Z" fill="url(#paint16_linear_413_20649)"/>
<path d="M230.111 348.014L230.101 349.594L194.351 361.784L194.361 360.204L230.111 348.014Z" fill="url(#paint17_linear_413_20649)"/>
<path d="M194.36 360.204L194.35 361.784L153.65 351.904L153.66 350.334L194.36 360.204Z" fill="url(#paint18_linear_413_20649)"/>
<path d="M230.11 348.014L194.36 360.204L153.66 350.334L189.4 338.134L230.11 348.014Z" fill="url(#paint19_linear_413_20649)"/>
<path style="mix-blend-mode:color-dodge" d="M304.4 388.464C304.06 389.774 304.83 391.114 306.11 391.444C307.39 391.774 308.7 390.974 309.04 389.664C309.38 388.354 308.61 387.014 307.33 386.684C306.05 386.354 304.74 387.154 304.4 388.464Z" fill="url(#paint20_radial_413_20649)"/>
<path style="mix-blend-mode:color-dodge" d="M266.119 341.464C265.779 342.774 266.549 344.114 267.829 344.444C269.109 344.774 270.419 343.974 270.759 342.664C271.099 341.354 270.329 340.014 269.049 339.684C267.769 339.354 266.459 340.154 266.119 341.464Z" fill="url(#paint21_radial_413_20649)"/>
<path style="mix-blend-mode:color-dodge" d="M199.119 218.224C198.779 219.534 199.549 220.874 200.829 221.204C202.109 221.534 203.419 220.734 203.759 219.424C204.099 218.114 203.329 216.774 202.049 216.444C200.769 216.114 199.459 216.914 199.119 218.224Z" fill="url(#paint22_radial_413_20649)"/>
<path style="mix-blend-mode:color-dodge" d="M321.61 371.654C321.45 372.284 321.82 372.924 322.43 373.084C323.05 373.244 323.68 372.854 323.84 372.224C324 371.594 323.63 370.954 323.02 370.794C322.41 370.634 321.77 371.024 321.61 371.654Z" fill="url(#paint23_radial_413_20649)"/>
<path style="mix-blend-mode:color-dodge" d="M342.739 389.824C342.579 390.454 342.949 391.094 343.559 391.254C344.179 391.414 344.809 391.024 344.969 390.394C345.129 389.764 344.759 389.124 344.149 388.964C343.529 388.804 342.899 389.194 342.739 389.824Z" fill="url(#paint24_radial_413_20649)"/>
<path style="mix-blend-mode:color-dodge" d="M315.4 404.104C315.24 404.734 315.61 405.374 316.22 405.534C316.84 405.694 317.47 405.304 317.63 404.674C317.79 404.044 317.42 403.404 316.81 403.244C316.19 403.084 315.56 403.474 315.4 404.104Z" fill="url(#paint25_radial_413_20649)"/>
<path style="mix-blend-mode:color-dodge" d="M375.75 315.944C375.59 316.574 375.96 317.214 376.57 317.374C377.19 317.534 377.82 317.144 377.98 316.514C378.14 315.884 377.77 315.244 377.16 315.084C376.54 314.924 375.91 315.314 375.75 315.944Z" fill="url(#paint26_radial_413_20649)"/>
<path style="mix-blend-mode:color-dodge" d="M418.1 296.554C417.94 297.184 418.31 297.824 418.92 297.984C419.54 298.144 420.17 297.754 420.33 297.124C420.49 296.494 420.12 295.854 419.51 295.694C418.89 295.534 418.26 295.924 418.1 296.554Z" fill="url(#paint27_radial_413_20649)"/>
<path style="mix-blend-mode:color-dodge" d="M315.09 359.274C314.88 360.084 315.35 360.894 316.14 361.104C316.93 361.304 317.73 360.814 317.94 360.014C318.15 359.204 317.68 358.394 316.89 358.184C316.1 357.984 315.3 358.474 315.09 359.274Z" fill="url(#paint28_radial_413_20649)"/>
<path style="mix-blend-mode:color-dodge" d="M262.4 389.954C262.19 390.764 262.66 391.574 263.45 391.784C264.24 391.984 265.04 391.494 265.25 390.694C265.46 389.884 264.99 389.074 264.2 388.864C263.41 388.664 262.61 389.154 262.4 389.954Z" fill="url(#paint29_radial_413_20649)"/>
<path style="mix-blend-mode:color-dodge" d="M282.829 395.424C282.619 396.234 283.089 397.044 283.879 397.254C284.669 397.454 285.469 396.964 285.679 396.164C285.889 395.354 285.419 394.544 284.629 394.334C283.839 394.134 283.039 394.624 282.829 395.424Z" fill="url(#paint30_radial_413_20649)"/>
<path style="mix-blend-mode:color-dodge" d="M204.93 383.094C204.72 383.904 205.19 384.714 205.98 384.924C206.77 385.124 207.57 384.634 207.78 383.834C207.99 383.024 207.52 382.214 206.73 382.004C205.94 381.804 205.14 382.294 204.93 383.094Z" fill="url(#paint31_radial_413_20649)"/>
<path style="mix-blend-mode:color-dodge" d="M253.73 330.884C253.52 331.694 253.99 332.504 254.78 332.714C255.57 332.914 256.37 332.424 256.58 331.624C256.79 330.814 256.32 330.004 255.53 329.794C254.74 329.594 253.94 330.084 253.73 330.884Z" fill="url(#paint32_radial_413_20649)"/>
<path style="mix-blend-mode:color-dodge" d="M338.63 356.224C338.42 357.034 338.89 357.844 339.68 358.054C340.47 358.254 341.27 357.764 341.48 356.964C341.69 356.154 341.22 355.344 340.43 355.134C339.64 354.934 338.84 355.424 338.63 356.224Z" fill="url(#paint33_radial_413_20649)"/>
<path style="mix-blend-mode:color-dodge" d="M374.869 246.264C374.659 247.074 375.129 247.884 375.919 248.094C376.709 248.294 377.509 247.804 377.719 247.004C377.929 246.194 377.459 245.384 376.669 245.174C375.879 244.974 375.079 245.464 374.869 246.264Z" fill="url(#paint34_radial_413_20649)"/>
<path style="mix-blend-mode:color-dodge" d="M192.13 349.184C191.92 349.994 192.39 350.804 193.18 351.014C193.97 351.214 194.77 350.724 194.98 349.924C195.19 349.114 194.72 348.304 193.93 348.094C193.14 347.894 192.34 348.384 192.13 349.184Z" fill="url(#paint35_radial_413_20649)"/>
<path style="mix-blend-mode:color-dodge" d="M297.67 342.804C297.52 343.394 297.86 343.984 298.44 344.134C299.01 344.284 299.6 343.924 299.75 343.334C299.9 342.744 299.56 342.154 298.98 342.004C298.41 341.854 297.82 342.214 297.67 342.804Z" fill="url(#paint36_radial_413_20649)"/>
<path style="mix-blend-mode:color-dodge" d="M204.239 247.874C204.089 248.464 204.429 249.054 205.009 249.204C205.579 249.354 206.169 248.994 206.319 248.404C206.469 247.814 206.129 247.224 205.549 247.074C204.979 246.924 204.389 247.284 204.239 247.874Z" fill="url(#paint37_radial_413_20649)"/>
<path style="mix-blend-mode:color-dodge" d="M334.889 380.904C334.659 381.784 335.179 382.684 336.039 382.904C336.899 383.124 337.779 382.584 338.009 381.704C338.239 380.824 337.719 379.924 336.859 379.704C335.999 379.484 335.119 380.024 334.889 380.904Z" fill="url(#paint38_radial_413_20649)"/>
<path style="mix-blend-mode:color-dodge" d="M412.809 251.564C412.579 252.444 413.099 253.344 413.959 253.564C414.819 253.784 415.699 253.244 415.929 252.364C416.159 251.484 415.639 250.584 414.779 250.364C413.919 250.144 413.039 250.684 412.809 251.564Z" fill="url(#paint39_radial_413_20649)"/>
<path style="mix-blend-mode:color-dodge" d="M383.55 353.644C383.32 354.524 383.84 355.424 384.7 355.644C385.56 355.864 386.44 355.324 386.67 354.444C386.9 353.564 386.38 352.664 385.52 352.444C384.66 352.224 383.78 352.764 383.55 353.644Z" fill="url(#paint40_radial_413_20649)"/>
<path style="mix-blend-mode:color-dodge" d="M380.61 338.424C380.38 339.304 380.9 340.204 381.76 340.424C382.62 340.644 383.5 340.104 383.73 339.224C383.96 338.344 383.44 337.444 382.58 337.224C381.72 337.004 380.84 337.544 380.61 338.424Z" fill="url(#paint41_radial_413_20649)"/>
<path style="mix-blend-mode:color-dodge" d="M405.269 360.234C405.039 361.114 405.559 362.014 406.419 362.234C407.279 362.454 408.159 361.914 408.389 361.034C408.619 360.154 408.099 359.254 407.239 359.034C406.379 358.814 405.499 359.354 405.269 360.234Z" fill="url(#paint42_radial_413_20649)"/>
<path style="mix-blend-mode:color-dodge" d="M352.87 317.004C352.64 317.884 353.16 318.784 354.02 319.004C354.88 319.224 355.76 318.684 355.99 317.804C356.22 316.924 355.7 316.024 354.84 315.804C353.98 315.584 353.1 316.124 352.87 317.004Z" fill="url(#paint43_radial_413_20649)"/>
<path style="mix-blend-mode:color-dodge" d="M403.66 283.494C403.43 284.374 403.95 285.274 404.81 285.494C405.67 285.714 406.55 285.174 406.78 284.294C407.01 283.414 406.49 282.514 405.63 282.294C404.77 282.074 403.89 282.614 403.66 283.494Z" fill="url(#paint44_radial_413_20649)"/>
<path style="mix-blend-mode:color-dodge" d="M370.65 293.634C370.42 294.514 370.94 295.414 371.8 295.634C372.66 295.854 373.54 295.314 373.77 294.434C374 293.554 373.48 292.654 372.62 292.434C371.76 292.214 370.88 292.754 370.65 293.634Z" fill="url(#paint45_radial_413_20649)"/>
<path style="mix-blend-mode:color-dodge" d="M210.76 327.634C210.53 328.514 211.05 329.414 211.91 329.634C212.77 329.854 213.65 329.314 213.88 328.434C214.11 327.554 213.59 326.654 212.73 326.434C211.87 326.214 210.99 326.754 210.76 327.634Z" fill="url(#paint46_radial_413_20649)"/>
<path style="mix-blend-mode:color-dodge" d="M185.689 384.684C185.459 385.564 185.979 386.464 186.839 386.684C187.699 386.904 188.579 386.364 188.809 385.484C189.039 384.604 188.519 383.704 187.659 383.484C186.799 383.264 185.919 383.804 185.689 384.684Z" fill="url(#paint47_radial_413_20649)"/>
<path style="mix-blend-mode:color-dodge" d="M288.38 361.724C288.15 362.604 288.67 363.504 289.53 363.724C290.39 363.944 291.27 363.404 291.5 362.524C291.73 361.644 291.21 360.744 290.35 360.524C289.49 360.304 288.61 360.844 288.38 361.724Z" fill="url(#paint48_radial_413_20649)"/>
<path style="mix-blend-mode:color-dodge" d="M236.389 385.744C236.159 386.624 236.679 387.524 237.539 387.744C238.399 387.964 239.279 387.424 239.509 386.544C239.739 385.664 239.219 384.764 238.359 384.544C237.499 384.324 236.619 384.864 236.389 385.744Z" fill="url(#paint49_radial_413_20649)"/>
<path style="mix-blend-mode:color-dodge" d="M252.91 375.844C252.68 376.724 253.2 377.624 254.06 377.844C254.92 378.064 255.8 377.524 256.03 376.644C256.26 375.764 255.74 374.864 254.88 374.644C254.02 374.424 253.14 374.964 252.91 375.844Z" fill="url(#paint50_radial_413_20649)"/>
<path style="mix-blend-mode:color-dodge" d="M189.45 311.494C189.22 312.374 189.74 313.274 190.6 313.494C191.46 313.714 192.34 313.174 192.57 312.294C192.8 311.414 192.28 310.514 191.42 310.294C190.56 310.074 189.68 310.614 189.45 311.494Z" fill="url(#paint51_radial_413_20649)"/>
<path style="mix-blend-mode:color-dodge" d="M208.54 178.334C208.31 179.214 208.83 180.114 209.69 180.334C210.55 180.554 211.43 180.014 211.66 179.134C211.89 178.254 211.37 177.354 210.51 177.134C209.65 176.914 208.77 177.454 208.54 178.334Z" fill="url(#paint52_radial_413_20649)"/>
<path style="mix-blend-mode:color-dodge" d="M399.5 215.964C399.27 216.844 399.79 217.744 400.65 217.964C401.51 218.184 402.39 217.644 402.62 216.764C402.85 215.884 402.33 214.984 401.47 214.764C400.61 214.544 399.73 215.084 399.5 215.964Z" fill="url(#paint53_radial_413_20649)"/>
<path style="mix-blend-mode:color-dodge" d="M225.08 230.264C224.85 231.144 225.37 232.044 226.23 232.264C227.09 232.484 227.97 231.944 228.2 231.064C228.43 230.184 227.91 229.284 227.05 229.064C226.19 228.844 225.31 229.384 225.08 230.264Z" fill="url(#paint54_radial_413_20649)"/>
<path style="mix-blend-mode:color-dodge" d="M274.17 375.844C273.94 376.724 274.46 377.624 275.32 377.844C276.18 378.064 277.06 377.524 277.29 376.644C277.52 375.764 277 374.864 276.14 374.644C275.28 374.424 274.4 374.964 274.17 375.844Z" fill="url(#paint55_radial_413_20649)"/>
<path style="mix-blend-mode:color-dodge" d="M356.87 341.784C356.64 342.664 357.16 343.564 358.02 343.784C358.88 344.004 359.76 343.464 359.99 342.584C360.22 341.704 359.7 340.804 358.84 340.584C357.98 340.364 357.1 340.904 356.87 341.784Z" fill="url(#paint56_radial_413_20649)"/>
<path style="mix-blend-mode:color-dodge" d="M402.49 308.754C402.26 309.634 402.78 310.534 403.64 310.754C404.5 310.974 405.38 310.434 405.61 309.554C405.84 308.674 405.32 307.774 404.46 307.554C403.6 307.334 402.72 307.874 402.49 308.754Z" fill="url(#paint57_radial_413_20649)"/>
<path style="mix-blend-mode:color-dodge" d="M369.01 372.134C368.78 373.014 369.3 373.914 370.16 374.134C371.02 374.354 371.9 373.814 372.13 372.934C372.36 372.054 371.84 371.154 370.98 370.934C370.12 370.714 369.24 371.254 369.01 372.134Z" fill="url(#paint58_radial_413_20649)"/>
<path style="mix-blend-mode:color-dodge" d="M442.389 280.484C442.159 281.364 442.679 282.264 443.539 282.484C444.399 282.704 445.279 282.164 445.509 281.284C445.739 280.404 445.219 279.504 444.359 279.284C443.499 279.064 442.619 279.604 442.389 280.484Z" fill="url(#paint59_radial_413_20649)"/>
<path style="mix-blend-mode:color-dodge" d="M429.8 353.474C429.57 354.354 430.09 355.254 430.95 355.474C431.81 355.694 432.69 355.154 432.92 354.274C433.15 353.394 432.63 352.494 431.77 352.274C430.91 352.054 430.03 352.594 429.8 353.474Z" fill="url(#paint60_radial_413_20649)"/>
<path style="mix-blend-mode:color-dodge" d="M159.67 353.044C159.44 353.924 159.96 354.824 160.82 355.044C161.68 355.264 162.56 354.724 162.79 353.844C163.02 352.964 162.5 352.064 161.64 351.844C160.78 351.624 159.9 352.164 159.67 353.044Z" fill="url(#paint61_radial_413_20649)"/>
<path style="mix-blend-mode:color-dodge" d="M353.61 203.744C353.38 204.624 353.9 205.524 354.76 205.744C355.62 205.964 356.5 205.424 356.73 204.544C356.96 203.664 356.44 202.764 355.58 202.544C354.72 202.324 353.84 202.864 353.61 203.744Z" fill="url(#paint62_radial_413_20649)"/>
<path style="mix-blend-mode:color-dodge" d="M360.84 267.374C360.61 268.254 361.13 269.154 361.99 269.374C362.85 269.594 363.73 269.054 363.96 268.174C364.19 267.294 363.67 266.394 362.81 266.174C361.95 265.954 361.07 266.494 360.84 267.374Z" fill="url(#paint63_radial_413_20649)"/>
<g opacity="0.52">
<path d="M127.96 229.014C121.85 230.344 120.78 231.414 119.45 237.524C118.12 231.414 117.05 230.344 110.94 229.014C117.05 227.684 118.12 226.614 119.45 220.504C120.78 226.614 121.85 227.684 127.96 229.014Z" fill="url(#paint64_linear_413_20649)"/>
<path d="M406.37 290.134C400.48 291.414 399.44 292.454 398.16 298.344C396.88 292.454 395.84 291.414 389.95 290.134C395.84 288.854 396.88 287.814 398.16 281.924C399.44 287.814 400.48 288.854 406.37 290.134Z" fill="url(#paint65_linear_413_20649)"/>
<path d="M440.651 137.994C434.791 139.264 433.761 140.294 432.481 146.164C431.211 140.304 430.181 139.274 424.311 137.994C430.171 136.724 431.201 135.694 432.481 129.824C433.751 135.684 434.781 136.714 440.651 137.994Z" fill="url(#paint66_linear_413_20649)"/>
<path d="M197.571 89.5139C193.271 90.4439 192.511 91.2039 191.581 95.5039C190.651 91.2039 189.891 90.4439 185.591 89.5139C189.891 88.5839 190.651 87.8239 191.581 83.5239C192.511 87.8239 193.271 88.5839 197.571 89.5139Z" fill="url(#paint67_linear_413_20649)"/>
<path d="M201.37 319.834C197.4 320.694 196.7 321.394 195.83 325.374C194.97 321.404 194.27 320.704 190.29 319.834C194.26 318.974 194.96 318.274 195.83 314.294C196.69 318.264 197.39 318.964 201.37 319.834Z" fill="url(#paint68_linear_413_20649)"/>
</g>
<path d="M162.63 270.074C162.63 270.074 149.9 282.854 151.93 286.984C153.96 291.114 174.7 275.464 174.7 275.464C174.7 275.464 158.98 289.454 163.21 291.664C167.44 293.874 184.05 282.994 184.05 282.994L182.02 263.804H173.38L162.64 270.074H162.63Z" fill="url(#paint69_radial_413_20649)"/>
<path d="M196.3 261.454C196.3 261.454 180.66 254.154 175.08 256.634C169.5 259.114 157.09 266.244 156.69 267.284C156.29 268.324 161.91 272.534 168.26 271.734C174.6 270.944 182.36 269.604 182.36 269.604C182.36 269.604 188.78 279.504 192.68 277.294C196.58 275.084 200.93 271.164 200.93 271.164L201.13 265.254L196.29 261.454H196.3Z" fill="url(#paint70_linear_413_20649)"/>
<path d="M197.08 268.454C197.08 268.454 113.03 271.184 113.03 272.964C113.03 274.744 109.92 279.264 113.03 279.264C116.14 279.264 193.52 274.414 197.7 273.864C200.13 273.544 200.54 268.464 197.09 268.464L197.08 268.454Z" fill="url(#paint71_linear_413_20649)"/>
<path d="M192.65 285.314C192.65 285.314 184.84 289.504 179.93 284.614C175.02 279.724 168.26 271.734 170.07 268.454C171.48 265.884 176.13 264.804 185.28 270.734C189.05 273.174 196.59 275.094 196.59 275.094C196.59 275.094 199.16 285.034 192.65 285.324V285.314Z" fill="url(#paint72_linear_413_20649)"/>
<path d="M258.29 264.044C258.29 264.044 234.96 272.964 230.5 272.964C226.04 272.964 225.16 263.584 225.9 259.244C225.94 259.004 225.98 258.794 226.04 258.594C226.77 255.674 242.82 248.804 252.04 245.824C255.34 244.754 257.76 244.184 258.29 244.474C268.49 249.914 258.29 264.044 258.29 264.044Z" fill="url(#paint73_linear_413_20649)"/>
<path style="mix-blend-mode:multiply" d="M258.29 264.044C258.29 264.044 234.96 272.964 230.5 272.964C226.04 272.964 225.16 263.584 225.9 259.244C227.33 260.674 228.97 261.814 230.94 262.284C233.03 262.794 235.25 262.454 237.36 262.004C240.68 261.304 243.96 260.324 247.12 259.084C249.44 258.174 251.84 257.004 253.09 254.874C254.54 252.394 254.05 249.154 252.6 246.684C252.42 246.384 252.24 246.094 252.04 245.814C255.34 244.744 257.76 244.174 258.29 244.464C268.49 249.904 258.29 264.034 258.29 264.034V264.044Z" fill="url(#paint74_linear_413_20649)"/>
<path d="M300.94 330.074C288.79 330.074 277.08 326.034 267.92 318.204C255.98 307.994 248.36 291.324 249.73 268.724C251.03 247.194 263.77 236.364 273.47 231.214C279.61 227.944 284.52 226.944 284.52 226.944L302.38 226.124C316.7 225.464 330.77 230.844 340.56 241.324C346.3 247.464 350.97 255.634 351.72 266.184C354.35 303.174 328.93 330.074 300.95 330.074H300.94Z" fill="url(#paint75_radial_413_20649)"/>
<path style="mix-blend-mode:multiply" d="M300.94 330.074C288.79 330.074 277.08 326.034 267.92 318.204C273.02 319.444 278.34 319.864 283.57 319.514C290.2 319.074 296.92 317.384 302.28 313.464C311.29 306.884 315.08 294.834 314.03 283.734C312.66 268.994 303.3 255.234 290.11 248.524C283.27 245.044 269.65 239.394 273.47 231.214C279.61 227.944 284.52 226.944 284.52 226.944L302.38 226.124C316.7 225.464 330.77 230.844 340.56 241.324C346.3 247.464 350.97 255.634 351.72 266.184C354.35 303.174 328.93 330.074 300.95 330.074H300.94Z" fill="url(#paint76_linear_413_20649)"/>
<path style="mix-blend-mode:multiply" d="M304.945 295.983C329.682 288.415 346.285 270.999 342.028 257.083C337.77 243.167 314.266 238.02 289.528 245.588C264.791 253.156 248.188 270.572 252.446 284.488C256.703 298.404 280.208 303.55 304.945 295.983Z" fill="url(#paint77_radial_413_20649)"/>
<path style="mix-blend-mode:multiply" d="M327.753 292.924C352.49 285.356 369.092 267.94 364.835 254.024C360.578 240.108 337.073 234.961 312.336 242.529C287.598 250.097 270.996 267.513 275.253 281.429C279.511 295.345 303.015 300.491 327.753 292.924Z" fill="url(#paint78_radial_413_20649)"/>
<path style="mix-blend-mode:multiply" d="M314.075 325.414C338.812 317.847 355.415 300.431 351.157 286.514C346.9 272.598 323.395 267.452 298.658 275.02C273.921 282.587 257.318 300.003 261.576 313.919C265.833 327.836 289.338 332.982 314.075 325.414Z" fill="url(#paint79_radial_413_20649)"/>
<path d="M243.51 278.494C241.23 290.564 218.73 294.444 205.32 293.494C201.37 293.214 198.2 292.514 196.58 291.484C192.99 289.204 190.3 284.044 188.76 278.214C186.34 269.114 186.69 258.364 190.74 254.314C191.96 253.094 193.66 251.924 195.71 250.814C200.19 248.384 206.35 246.254 212.96 244.504C216.41 243.584 219.99 242.784 223.51 242.094C229.54 240.924 235.55 244.084 237.99 249.734C241.42 257.684 245.25 269.264 243.51 278.494Z" fill="url(#paint80_radial_413_20649)"/>
<path style="mix-blend-mode:multiply" d="M205.32 293.494C201.37 293.214 198.2 292.514 196.58 291.484C192.99 289.204 190.3 284.044 188.76 278.214C186.34 269.114 186.69 258.364 190.74 254.314C191.96 253.094 193.66 251.924 195.71 250.814C196.64 257.174 200.37 281.024 205.33 293.494H205.32Z" fill="url(#paint81_linear_413_20649)"/>
<path style="mix-blend-mode:multiply" d="M243.51 278.494C240.56 294.124 203.7 296.024 196.58 291.484C192.99 289.204 190.3 284.044 188.76 278.214C191.23 281.754 194.77 284.664 199 285.504C201.98 286.094 205.06 285.604 208.02 284.994C211.9 284.184 215.74 283.164 219.51 281.914C221.54 281.234 223.67 280.424 224.95 278.704C226.21 277.004 226.38 274.764 226.37 272.644C226.32 267.534 225.37 262.424 223.57 257.644C221.68 252.624 218.68 247.774 214.05 245.064C213.69 244.864 213.33 244.664 212.96 244.494C216.41 243.574 219.99 242.774 223.51 242.084C229.54 240.914 235.55 244.074 237.99 249.724C241.42 257.674 245.25 269.254 243.51 278.484V278.494Z" fill="url(#paint82_linear_413_20649)"/>
<path d="M223.51 242.094C223.51 242.094 231.95 258.454 233.61 268.454C234.74 275.264 195.37 284.464 191.01 284.464" stroke="url(#paint83_linear_413_20649)" stroke-width="0.85" stroke-linecap="round" stroke-linejoin="round"/>
<path style="mix-blend-mode:multiply" d="M326.7 235.514C327.04 240.834 314.12 245.994 297.84 247.024C281.57 248.054 268.1 244.574 267.76 239.244C267.42 233.924 280.34 228.764 296.62 227.734C312.89 226.704 326.36 230.184 326.7 235.514Z" fill="url(#paint84_linear_413_20649)"/>
<path style="mix-blend-mode:multiply" d="M321.04 233.494C321.31 237.824 310.81 242.004 297.59 242.844C284.36 243.684 273.42 240.854 273.14 236.524C272.87 232.194 283.37 228.014 296.59 227.174C309.82 226.334 320.76 229.164 321.04 233.494Z" fill="url(#paint85_linear_413_20649)"/>
<path d="M115.03 262.824C115.03 262.824 121.35 277.254 107.84 282.574C94.3297 287.894 79.4497 281.194 77.2597 265.284C74.9197 248.214 74.7997 244.084 74.9297 238.394C75.1097 230.394 82.0997 212.574 82.0997 212.574C82.0997 212.574 85.4597 233.494 94.4897 239.284C104.24 245.534 110.02 252.844 115.04 262.824H115.03Z" fill="url(#paint86_radial_413_20649)"/>
<path d="M168.11 162.134L175.29 325.504L171.92 327.524L164.74 164.154L168.11 162.134Z" fill="url(#paint87_linear_413_20649)"/>
<path d="M15.87 147.234L168.11 162.134L164.74 164.154L12.5 149.254L15.87 147.234Z" fill="url(#paint88_linear_413_20649)"/>
<path d="M12.5 149.254L19.68 312.624L171.92 327.524L164.74 164.154L12.5 149.254Z" fill="url(#paint89_linear_413_20649)"/>
<g style="mix-blend-mode:multiply">
<path d="M12.5 149.254L19.68 312.624L171.92 327.524L164.74 164.154L12.5 149.254Z" fill="url(#paint90_linear_413_20649)"/>
</g>
<path d="M66.4297 154.534C66.4297 154.534 74.5797 223.044 75.2297 244.394C75.8697 265.744 78.7797 283.224 94.0497 283.224C109.32 283.224 118.9 279.024 112.81 258.684C106.72 238.344 100.44 188.454 106.72 158.484L66.4297 154.544V154.534Z" fill="url(#paint91_linear_413_20649)"/>
<path d="M291.15 298.964C291.15 298.964 271.54 300.944 267.98 297.384C264.42 293.824 257.01 286.254 258.63 284.634C260.25 283.014 266.89 284.724 270.37 288.204C273.85 291.684 280.69 282.794 287.57 284.024C294.45 285.244 294.18 295.944 291.15 298.974V298.964Z" fill="url(#paint92_radial_413_20649)"/>
<path d="M292.099 299.644C292.099 299.644 280.629 301.184 277.859 298.414C275.089 295.644 270.879 294.534 271.579 291.064C272.399 286.994 286.869 288.254 290.319 291.704" fill="url(#paint93_radial_413_20649)"/>
<path d="M347.339 276.354C343.499 282.754 329.689 283.344 324.059 283.344C321.219 283.344 318.209 278.754 315.909 274.204C313.639 269.704 312.069 265.234 312.069 265.234C312.069 265.234 314.749 265.034 317.969 264.594C321.099 264.174 324.749 263.554 326.969 262.694C328.099 262.264 328.849 261.774 328.989 261.224C329.979 257.234 329.129 250.094 330.939 244.844C332.179 241.274 334.649 238.564 339.759 238.284C351.479 237.654 351.179 269.954 347.339 276.354Z" fill="url(#paint94_linear_413_20649)"/>
<path style="mix-blend-mode:multiply" d="M347.34 276.354C343.5 282.754 329.69 283.344 324.06 283.344C321.22 283.344 318.21 278.754 315.91 274.204C315.94 273.434 315.99 272.664 316.07 271.894C316.34 269.394 316.92 266.874 317.97 264.594C321.1 264.174 324.75 263.554 326.97 262.694C328.44 264.644 329.64 266.794 331.38 268.504C333.29 270.384 336.13 271.664 338.65 270.754C341.55 269.704 342.79 266.294 343.16 263.234C343.72 258.654 343.14 253.944 341.5 249.644C340.75 247.664 339.68 245.664 337.84 244.614C335.75 243.414 333.09 243.734 330.94 244.854C332.18 241.284 334.65 238.574 339.76 238.294C351.48 237.664 351.18 269.964 347.34 276.364V276.354Z" fill="url(#paint95_linear_413_20649)"/>
<path d="M334.27 291.174C332.64 299.814 318.73 304.164 307.4 304.864C307.05 304.894 306.7 304.904 306.36 304.924C300.23 305.194 294.35 304.984 292.1 302.724C290.96 301.584 288.38 298.724 287.05 293.624C284.77 284.794 285.35 271.884 288.08 270.004C289.71 268.894 291.9 267.684 294.47 266.474C294.77 266.334 295.07 266.194 295.38 266.054C298.46 264.684 302.04 263.304 305.85 262.104C309.35 261.004 313.05 260.024 316.76 259.304C322.04 258.274 327.31 261.054 329.44 265.984C332.44 272.934 335.8 283.084 334.27 291.164V291.174Z" fill="url(#paint96_radial_413_20649)"/>
<path style="mix-blend-mode:multiply" d="M307.409 304.864C307.059 304.894 306.709 304.904 306.369 304.924C300.239 305.194 294.359 304.984 292.109 302.724C290.969 301.584 288.389 298.724 287.059 293.624C284.779 284.794 285.359 271.884 288.089 270.004C289.719 268.894 291.909 267.684 294.479 266.474C294.779 266.334 295.079 266.194 295.389 266.054C299.369 266.364 305.239 268.554 308.699 277.864C312.519 288.194 311.389 298.764 307.419 304.854L307.409 304.864Z" fill="url(#paint97_linear_413_20649)"/>
<path style="mix-blend-mode:multiply" d="M334.269 291.174C331.689 304.844 297.589 308.194 292.359 302.964C291.219 301.824 287.479 297.754 286.149 292.654C292.809 296.474 304.279 296.764 311.679 294.454C315.479 293.264 319.189 291.194 321.359 287.854C325.089 282.134 323.139 274.014 318.389 269.104C314.929 265.534 310.489 263.554 305.839 262.104C309.339 261.004 313.039 260.024 316.749 259.304C322.029 258.274 327.299 261.054 329.429 265.984C332.429 272.934 335.789 283.084 334.259 291.164L334.269 291.174Z" fill="url(#paint98_linear_413_20649)"/>
<path d="M297.57 302.955C302.081 301.85 303.973 293.744 301.795 284.85C299.617 275.956 294.194 269.641 289.682 270.746C285.171 271.851 283.279 279.957 285.457 288.851C287.635 297.745 293.058 304.059 297.57 302.955Z" fill="url(#paint99_linear_413_20649)"/>
<path d="M301.18 295.824C309.58 291.174 310.38 287.194 306.31 278.964C304.03 276.394 299.39 275.684 293 274.424C291.38 274.104 289.78 273.904 288.23 273.804C281.14 273.364 274.53 275.084 270.29 277.424C267.65 278.884 263.08 279.544 258.3 279.714C248.34 280.054 230.12 278.654 221.29 282.324C219.63 284.884 219.88 289.804 223.01 292.744C228.4 297.794 239.67 300.744 255.13 302.214C269.29 303.564 285.13 302.304 296.13 298.134C298 297.424 299.69 296.644 301.18 295.824ZM284.54 282.364C281.59 283.004 277.84 282.674 276.23 281.644C274.65 280.634 275.76 279.354 278.63 278.764C281.46 278.184 285.05 278.474 286.7 279.434C288.39 280.424 287.45 281.734 284.54 282.364Z" fill="url(#paint100_radial_413_20649)"/>
<path d="M305.769 278.304C303.499 275.734 298.709 273.194 292.309 271.924C290.689 271.604 289.099 271.404 287.539 271.304C287.519 271.304 287.499 271.304 287.479 271.304C280.409 270.874 273.829 272.584 269.589 274.924C266.949 276.384 262.379 277.044 257.609 277.204C249.589 277.484 239.449 276.334 231.199 277.794C229.199 278.154 227.309 278.654 225.589 279.374C218.589 282.294 219.969 286.084 223.099 289.024C228.489 294.074 238.979 298.244 254.439 299.714C268.589 301.064 284.439 299.794 295.439 295.634C297.309 294.924 298.989 294.144 300.489 293.314C308.889 288.664 309.839 282.884 305.769 278.294V278.304ZM280.619 280.824C277.359 281.074 274.649 280.534 274.569 279.614C274.499 278.694 277.089 277.744 280.359 277.484C283.629 277.234 286.329 277.774 286.399 278.684C286.479 279.604 283.879 280.554 280.619 280.824Z" fill="url(#paint101_linear_413_20649)"/>
<path d="M246.139 292.084C242.279 292.564 238.209 291.764 237.109 290.334C236.039 288.944 238.209 287.484 241.889 287.054C245.529 286.624 249.429 287.344 250.669 288.694C251.949 290.074 249.949 291.604 246.139 292.084Z" fill="url(#paint102_linear_413_20649)"/>
<path d="M245.779 291.124C242.549 291.524 239.119 290.854 238.179 289.654C237.259 288.484 239.079 287.254 242.189 286.884C245.269 286.524 248.569 287.134 249.609 288.274C250.669 289.444 248.979 290.724 245.769 291.124H245.779Z" fill="url(#paint103_linear_413_20649)"/>
<path style="mix-blend-mode:screen" d="M246.049 289.264C244.509 289.634 242.459 289.474 241.499 288.904C240.549 288.344 241.019 287.594 242.549 287.244C244.059 286.894 246.049 287.044 247.029 287.594C248.009 288.144 247.589 288.904 246.059 289.274L246.049 289.264Z" fill="url(#paint104_linear_413_20649)"/>
<path d="M268.409 296.574C264.169 297.304 259.639 296.504 258.379 294.814C257.149 293.174 259.489 291.344 263.529 290.674C267.519 290.024 271.849 290.734 273.269 292.304C274.729 293.924 272.599 295.844 268.409 296.574Z" fill="url(#paint105_linear_413_20649)"/>
<path d="M268.009 295.324C264.449 295.934 260.639 295.264 259.559 293.844C258.509 292.464 260.469 290.904 263.889 290.344C267.279 289.784 270.939 290.394 272.139 291.724C273.359 293.094 271.539 294.714 268.019 295.324H268.009Z" fill="url(#paint106_linear_413_20649)"/>
<path style="mix-blend-mode:screen" d="M268.999 293.224C267.319 293.734 265.049 293.614 263.949 292.964C262.869 292.324 263.369 291.404 265.029 290.914C266.679 290.424 268.889 290.534 269.979 291.164C271.089 291.794 270.659 292.724 268.989 293.224H268.999Z" fill="url(#paint107_linear_413_20649)"/>
<path d="M290.419 292.495C286.449 293.185 281.909 292.435 280.359 290.855C278.849 289.325 280.769 287.615 284.559 286.995C288.309 286.385 292.649 287.045 294.329 288.515C296.059 290.025 294.349 291.825 290.419 292.495Z" fill="url(#paint108_linear_413_20649)"/>
<path d="M289.95 291.165C286.61 291.745 282.77 291.115 281.45 289.785C280.16 288.495 281.77 287.035 284.99 286.505C288.18 285.985 291.86 286.545 293.28 287.795C294.73 289.075 293.26 290.585 289.95 291.155V291.165Z" fill="url(#paint109_radial_413_20649)"/>
<path style="mix-blend-mode:screen" d="M289.9 289.024C288.36 289.504 286.14 289.394 284.97 288.784C283.81 288.184 284.11 287.334 285.63 286.874C287.14 286.424 289.3 286.524 290.48 287.104C291.67 287.694 291.42 288.554 289.9 289.024Z" fill="url(#paint110_linear_413_20649)"/>
<path d="M299.179 284.104C295.559 284.694 291.299 284.054 289.739 282.714C288.219 281.404 289.859 279.934 293.329 279.404C296.769 278.874 300.839 279.444 302.509 280.694C304.219 281.984 302.759 283.524 299.189 284.104H299.179Z" fill="url(#paint111_linear_413_20649)"/>
<path d="M298.749 283.034C295.649 283.534 291.999 282.994 290.649 281.844C289.329 280.724 290.729 279.454 293.719 278.984C296.689 278.524 300.199 279.014 301.629 280.104C303.089 281.214 301.829 282.534 298.749 283.034Z" fill="url(#paint112_radial_413_20649)"/>
<path style="mix-blend-mode:screen" d="M299.32 281.214C297.94 281.624 295.87 281.534 294.73 281.014C293.6 280.504 293.81 279.764 295.18 279.374C296.54 278.984 298.56 279.064 299.7 279.564C300.85 280.064 300.7 280.804 299.32 281.214Z" fill="url(#paint113_linear_413_20649)"/>
<path style="mix-blend-mode:multiply" d="M300.489 293.324C298.999 294.144 297.309 294.924 295.439 295.634C284.429 299.804 268.599 301.064 254.439 299.714C238.979 298.244 228.489 294.074 223.099 289.024C219.969 286.084 218.589 282.294 225.589 279.374C227.309 278.654 229.199 278.154 231.199 277.804C229.779 282.844 235.629 287.674 244.979 289.964C254.399 292.264 266.829 292.074 277.449 289.854C284.399 288.404 290.899 285.984 293.869 282.824C297.579 278.874 294.909 274.364 288.549 271.724C288.189 271.574 287.839 271.434 287.469 271.304C287.489 271.304 287.509 271.304 287.529 271.304C289.079 271.404 290.679 271.604 292.299 271.924C298.699 273.184 303.479 275.734 305.759 278.304C309.829 282.894 308.889 288.674 300.489 293.324Z" fill="url(#paint114_linear_413_20649)"/>
<path d="M286.67 278.604C286.81 278.004 286.56 277.374 286.11 276.944C284.36 275.284 279.14 270.584 276.43 271.304C274.74 271.754 274.47 273.824 274.61 275.734C274.81 278.494 277.09 280.714 279.86 280.724C280.45 280.724 281.11 280.684 281.84 280.574C285.49 280.044 286.46 279.534 286.67 278.604Z" fill="url(#paint115_linear_413_20649)"/>
<path d="M269.83 82.1741C263.61 94.8841 256.19 124.864 252.23 126.434C248.65 127.854 233.14 124.014 231.28 117.534C231.07 116.844 231.02 116.114 231.17 115.364C231.17 115.364 234.29 84.6141 247.53 64.4041C252.31 57.1041 262.65 46.8341 272.61 40.1541C281.53 34.1741 290.14 31.0741 294.2 35.5441C303.57 45.8441 276.4 68.7741 269.84 82.1741H269.83Z" fill="url(#paint116_linear_413_20649)"/>
<path style="mix-blend-mode:multiply" d="M269.829 82.1741C263.609 94.8841 256.189 124.864 252.229 126.434C248.649 127.854 233.139 124.014 231.279 117.534C239.669 113.024 246.509 105.054 251.529 96.7241C258.719 84.7841 263.599 71.3741 272.439 60.5941C274.969 57.5141 277.929 54.3941 278.369 50.4241C278.849 46.2641 276.219 42.4341 272.619 40.1541C281.539 34.1741 290.149 31.0741 294.209 35.5441C303.579 45.8441 276.409 68.7741 269.849 82.1741H269.829Z" fill="url(#paint117_linear_413_20649)"/>
<path d="M278.05 36.8643C278.05 36.8643 288.74 37.7643 286.16 45.2643C283.57 52.7643 258.09 79.7443 253.59 107.034" stroke="url(#paint118_linear_413_20649)" stroke-width="0.85" stroke-linecap="round" stroke-linejoin="round"/>
<path d="M399.56 166.774C401.74 219.154 351.97 236.364 299.55 238.544C247.14 240.724 209.59 229.064 209.75 174.674C209.9 122.254 245.41 89.074 297.82 86.894C350.23 84.714 397.37 114.394 399.56 166.764V166.774Z" fill="url(#paint119_radial_413_20649)"/>
<path style="mix-blend-mode:multiply" d="M339.139 94.9941L334.189 93.0741C324.039 95.9941 304.009 140.054 281.539 142.434C275.409 143.084 269.839 141.904 265.399 139.294C253.589 132.354 249.879 115.314 265.249 95.8741C283.499 72.7941 320.149 80.7841 335.539 88.2741C336.999 88.9841 338.009 89.7041 338.689 90.4041C338.689 90.4041 338.709 90.4041 338.719 90.4041C341.159 92.9141 339.149 95.0041 339.149 95.0041L339.139 94.9941Z" fill="url(#paint120_linear_413_20649)"/>
<path style="mix-blend-mode:screen" d="M284.027 148.222C305.316 133.574 315.176 110.948 306.051 97.6853C296.925 84.4224 272.269 85.5451 250.981 100.193C229.692 114.841 219.831 137.467 228.957 150.73C238.082 163.993 262.738 162.87 284.027 148.222Z" fill="url(#paint121_linear_413_20649)"/>
<path style="mix-blend-mode:multiply" d="M282.239 225.304C261.139 224.954 242.729 222.024 234.199 217.644C222.909 211.844 219.049 197.674 217.739 189.754C215.719 177.434 217.009 161.534 223.399 154.964C229.909 148.264 238.369 144.954 248.559 145.124C253.639 145.204 259.059 146.164 264.679 147.974C267.489 148.884 270.439 149.364 273.419 149.414C277.109 149.474 280.779 148.874 284.319 147.644C293.249 144.524 302.449 143.014 311.679 143.164C319.779 143.294 327.789 144.744 335.489 147.454C342.849 150.054 348.279 156.384 351.199 165.754C355.679 180.144 353.559 200.434 346.569 210.064C335.709 225.014 294.599 225.524 282.239 225.314V225.304Z" fill="url(#paint122_linear_413_20649)"/>
<mask id="mask0_413_20649" style="mask-type:luminance" maskUnits="userSpaceOnUse" x="209" y="86" width="191" height="153">
<path d="M399.56 166.774C401.74 219.154 351.97 236.364 299.55 238.544C247.14 240.724 209.59 229.064 209.75 174.674C209.9 122.254 245.41 89.074 297.82 86.894C350.23 84.714 397.37 114.394 399.56 166.764V166.774Z" fill="white"/>
</mask>
<g mask="url(#mask0_413_20649)">
<path style="mix-blend-mode:multiply" d="M302.34 97.5541C325.6 101.794 346.4 115.004 357.36 136.274C366.2 153.424 370.8 173.934 367.38 193.124C364.11 211.464 350.72 219.564 334.25 225.564C320.3 230.654 306.19 233.734 291.36 234.744C271.49 236.094 240.45 239.144 224.56 223.624C239.03 237.744 258.18 246.454 277.96 250.634C297.74 254.804 318.21 254.664 338.35 252.854C352.2 251.604 366.11 249.554 379.14 244.694C392.17 239.834 404.37 231.994 412.65 220.824C423.18 206.614 426.55 188.314 427.17 170.634C427.59 158.614 426.84 146.374 422.86 135.024C418.93 123.854 411.98 113.934 403.92 105.254C388.92 89.1041 369.35 76.6541 347.65 72.7541C330.42 69.6641 312.31 72.3741 296.52 79.8441C292.36 81.8141 278.16 87.6241 279.06 93.9241C279.73 98.6341 297.65 96.6841 302.35 97.5441L302.34 97.5541Z" fill="url(#paint123_linear_413_20649)"/>
<path d="M369.34 118.364C369.34 118.364 379.84 130.644 384.59 144.684C389.34 158.724 395.1 208.854 354.09 228.954" stroke="url(#paint124_linear_413_20649)" stroke-width="0.85" stroke-linecap="round" stroke-linejoin="round"/>
</g>
<path d="M402.639 189.344C395.389 199.474 384.799 198.344 384.799 198.344C381.319 198.204 378.209 195.964 375.809 192.294C372.489 187.224 370.529 179.434 370.869 170.794C371.119 164.314 372.639 158.414 374.949 153.854C377.939 147.934 382.279 144.254 386.949 144.444C393.169 143.804 401.859 152.884 401.859 152.884C401.859 152.884 408.869 180.664 402.639 189.354V189.344Z" fill="url(#paint125_linear_413_20649)"/>
<path style="mix-blend-mode:multiply" d="M402.639 189.344C395.389 199.474 384.799 198.344 384.799 198.344C381.319 198.204 378.209 195.964 375.809 192.294C377.459 192.424 379.119 192.374 380.759 192.174C382.119 192.004 383.639 191.584 384.229 190.354C384.759 189.234 384.299 187.924 383.899 186.754C380.729 177.564 381.709 167.024 386.539 158.584C387.049 157.694 376.279 154.134 375.289 153.924C375.179 153.894 375.069 153.884 374.959 153.844C377.949 147.924 382.289 144.244 386.959 144.434C393.179 143.794 401.869 152.874 401.869 152.874C401.869 152.874 408.879 180.654 402.649 189.344H402.639Z" fill="url(#paint126_linear_413_20649)"/>
<path d="M386.29 171.404C385.85 182.544 390.509 191.774 396.709 192.024C402.909 192.274 408.299 183.444 408.739 172.304C409.179 161.164 404.52 151.934 398.32 151.684C392.12 151.434 386.73 160.264 386.29 171.404Z" fill="url(#paint127_linear_413_20649)"/>
<path d="M391.339 171.184C390.979 180.214 394.759 187.694 399.789 187.894C404.819 188.094 409.179 180.934 409.539 171.914C409.899 162.884 406.119 155.404 401.089 155.204C396.069 155.004 391.699 162.164 391.339 171.184Z" fill="url(#paint128_radial_413_20649)"/>
<path d="M285.44 150.824C278.4 153.284 270.75 153.474 263.64 151.184C253.15 147.804 237.21 145.604 225.83 157.314C216.83 166.574 217.68 205.344 235.74 214.614C254.8 224.404 330.53 226.344 343.81 208.044C352.76 195.714 354.35 157.684 334.34 150.624C314.17 143.514 296.28 147.014 285.42 150.814L285.44 150.824Z" fill="url(#paint129_radial_413_20649)"/>
<g filter="url(#filter0_d_413_20649)">
<path d="M247.15 192.304C243.11 192.254 239.87 188.944 239.91 184.894L240.02 175.584C240.07 171.544 243.38 168.304 247.43 168.344C251.47 168.394 254.71 171.704 254.67 175.754L254.56 185.064C254.51 189.104 251.2 192.344 247.15 192.304Z" fill="#00FFFF"/>
<path d="M303.819 192.874C299.779 192.824 296.539 189.514 296.579 185.464L296.689 176.154C296.739 172.114 300.049 168.874 304.099 168.914C308.139 168.964 311.379 172.274 311.339 176.324L311.229 185.634C311.179 189.674 307.869 192.914 303.819 192.874Z" fill="#00FFFF"/>
<path d="M278.309 199.304C276.899 201.204 274.599 202.474 272.239 202.394C269.879 202.314 267.569 200.774 266.819 198.534C266.469 197.504 266.449 196.384 266.169 195.324C265.889 194.274 265.239 193.194 264.189 192.904C263.209 192.634 262.139 193.144 261.519 193.954C260.909 194.764 260.699 195.814 260.669 196.824C260.579 200.064 262.279 203.234 264.839 205.224C267.399 207.224 270.719 208.104 273.959 207.994C277.029 207.894 280.129 206.904 282.409 204.854C284.689 202.804 286.039 199.634 285.529 196.604C285.239 194.924 283.059 191.114 280.829 192.684C280.109 193.194 280.149 194.454 279.979 195.204C279.649 196.684 279.229 198.054 278.309 199.284V199.304Z" fill="#00FFFF"/>
</g>
<path d="M339.17 92.6942L334.219 90.8142C324.069 93.6642 304.059 136.724 281.589 139.044C275.459 139.684 269.889 138.524 265.449 135.964C253.639 129.184 249.919 112.514 265.279 93.5142C283.519 70.9642 320.17 78.7842 335.57 86.1042C337.03 86.7942 338.039 87.5042 338.719 88.1842C338.719 88.1842 338.739 88.1842 338.749 88.1842C341.189 90.6442 339.179 92.6742 339.179 92.6742L339.17 92.6942Z" fill="url(#paint130_linear_413_20649)"/>
<path style="mix-blend-mode:multiply" d="M339.169 92.6939L334.219 90.8139C324.069 93.6639 304.059 136.724 281.589 139.044C275.459 139.684 269.889 138.524 265.449 135.964C265.589 135.994 265.729 136.024 265.859 136.044C294.059 141.634 319.269 93.8539 324.149 89.1339C328.889 84.5339 338.189 87.9939 338.709 88.1839C338.709 88.1839 338.729 88.1839 338.739 88.1839C341.179 90.6439 339.169 92.6739 339.169 92.6739V92.6939Z" fill="url(#paint131_linear_413_20649)"/>
<path d="M443.929 59.6643C442.969 72.4143 411.11 83.4743 399.35 92.6643C388.21 101.384 369.83 120.344 365.59 120.024C363.12 119.844 357.12 115.514 353.5 110.694C350.9 107.234 349.51 103.514 351.5 100.874C351.5 100.874 378.88 63.6743 396.95 56.1443C400.93 54.4843 406.079 53.0743 411.519 52.1043C426.959 49.3443 444.65 50.2343 443.95 59.6643H443.929Z" fill="url(#paint132_linear_413_20649)"/>
<path style="mix-blend-mode:multiply" d="M443.93 59.6643C442.97 72.4143 411.11 83.4743 399.35 92.6643C388.21 101.384 369.83 120.344 365.59 120.024C363.12 119.844 357.12 115.514 353.5 110.694C359.15 113.304 367.59 107.764 376.9 94.9343C390.92 75.6043 412.09 76.5843 420.72 68.2343C429.36 59.8743 413.91 52.1443 411.51 52.1043C426.95 49.3443 444.64 50.2343 443.94 59.6643H443.93Z" fill="url(#paint133_linear_413_20649)"/>
<path d="M330.89 192.954C330.98 194.884 327.19 196.634 322.42 196.864C317.65 197.084 313.719 195.704 313.629 193.764C313.539 191.834 317.33 190.084 322.1 189.854C326.87 189.634 330.8 191.014 330.89 192.954Z" fill="url(#paint134_linear_413_20649)"/>
<path d="M238.099 193.444C238.079 195.384 234.779 196.914 230.739 196.864C226.699 196.814 223.439 195.214 223.459 193.274C223.479 191.334 226.779 189.804 230.819 189.854C234.859 189.904 238.119 191.504 238.099 193.444Z" fill="url(#paint135_linear_413_20649)"/>
<path style="mix-blend-mode:screen" d="M288.059 107.904C279.959 115.744 269.629 118.204 264.979 113.394C260.329 108.594 263.129 98.3443 271.229 90.5043C279.329 82.6643 289.659 80.2043 294.309 85.0143C298.959 89.8143 296.159 100.064 288.059 107.904Z" fill="url(#paint136_linear_413_20649)"/>
<path d="M302.3 296.344C309.18 295.544 315.19 293.464 319.93 291.814C328.04 289.004 328.8 283.034 326.93 277.024C324.42 268.934 320.48 261.624 313.82 259.944" stroke="url(#paint137_linear_413_20649)" stroke-width="0.85" stroke-linecap="round" stroke-linejoin="round"/>
<path d="M424.79 50.7339C424.79 50.7339 440.73 59.4239 434.4 65.7539C428.07 72.0839 389.3 82.0239 361.6 118.244" stroke="url(#paint138_linear_413_20649)" stroke-width="0.85" stroke-linecap="round" stroke-linejoin="round"/>
<path d="M299.119 374.514C314.197 374.514 326.419 370.816 326.419 366.254C326.419 361.692 314.197 357.994 299.119 357.994C284.042 357.994 271.819 361.692 271.819 366.254C271.819 370.816 284.042 374.514 299.119 374.514Z" fill="url(#paint139_linear_413_20649)"/>
<path style="mix-blend-mode:screen" d="M271.81 366.254L217.27 225.904H373.68L326.42 366.254C326.42 366.254 326.87 375.324 296.73 374.514C272.15 373.854 271.91 367.094 271.82 366.254H271.81Z" fill="url(#paint140_linear_413_20649)"/>
<path d="M493.77 397.304L493.75 399.944L433.9 420.364L433.92 417.724L493.77 397.304Z" fill="url(#paint141_linear_413_20649)"/>
<path d="M433.92 417.724L433.9 420.364L365.73 403.824L365.75 401.174L433.92 417.724Z" fill="url(#paint142_linear_413_20649)"/>
<path d="M493.77 397.304L433.92 417.724L365.75 401.174L425.6 380.754L493.77 397.304Z" fill="url(#paint143_linear_413_20649)"/>
<path d="M237.84 421.944L237.82 423.884L194.05 438.824L194.06 436.884L237.84 421.944Z" fill="url(#paint144_linear_413_20649)"/>
<path d="M194.06 436.884L194.05 438.824L144.18 426.714L144.2 424.784L194.06 436.884Z" fill="url(#paint145_linear_413_20649)"/>
<path d="M237.839 421.944L194.059 436.884L144.199 424.784L187.969 409.844L237.839 421.944Z" fill="url(#paint146_linear_413_20649)"/>
</g>
<defs>
<filter id="filter0_d_413_20649" x="228.949" y="157.384" width="93.3507" height="61.5792" filterUnits="userSpaceOnUse" color-interpolation-filters="sRGB">
<feFlood flood-opacity="0" result="BackgroundImageFix"/>
<feColorMatrix in="SourceAlpha" type="matrix" values="0 0 0 0 0 0 0 0 0 0 0 0 0 0 0 0 0 0 127 0" result="hardAlpha"/>
<feOffset/>
<feGaussianBlur stdDeviation="5.48"/>
<feColorMatrix type="matrix" values="0 0 0 0 0 0 0 0 0 0.811765 0 0 0 0 1 0 0 0 0.75 0"/>
<feBlend mode="normal" in2="BackgroundImageFix" result="effect1_dropShadow_413_20649"/>
<feBlend mode="normal" in="SourceGraphic" in2="effect1_dropShadow_413_20649" result="shape"/>
</filter>
<linearGradient id="paint0_linear_413_20649" x1="152.68" y1="372.534" x2="454.78" y2="372.534" gradientUnits="userSpaceOnUse">
<stop stop-color="#00BBFF"/>
<stop offset="0.06" stop-color="#04B0F6"/>
<stop offset="0.51" stop-color="#2164BA"/>
<stop offset="0.84" stop-color="#333495"/>
<stop offset="1" stop-color="#3B2287"/>
</linearGradient>
<linearGradient id="paint1_linear_413_20649" x1="297.71" y1="328.024" x2="316.8" y2="471.424" gradientUnits="userSpaceOnUse">
<stop stop-color="#29FBFF"/>
<stop offset="0.06" stop-color="#25E4E8"/>
<stop offset="0.26" stop-color="#1AA0A2"/>
<stop offset="0.45" stop-color="#106768"/>
<stop offset="0.63" stop-color="#093A3B"/>
<stop offset="0.78" stop-color="#041A1B"/>
<stop offset="0.91" stop-color="#010707"/>
<stop offset="1"/>
</linearGradient>
<linearGradient id="paint2_linear_413_20649" x1="290.19" y1="389.104" x2="455.23" y2="389.104" gradientUnits="userSpaceOnUse">
<stop stop-color="#00BBFF"/>
<stop offset="0.06" stop-color="#04B0F6"/>
<stop offset="0.51" stop-color="#2164BA"/>
<stop offset="0.84" stop-color="#333495"/>
<stop offset="1" stop-color="#3B2287"/>
</linearGradient>
<linearGradient id="paint3_linear_413_20649" x1="240.86" y1="385.554" x2="161" y2="467.204" gradientUnits="userSpaceOnUse">
<stop stop-color="#00BBFF"/>
<stop offset="0.06" stop-color="#04B0F6"/>
<stop offset="0.51" stop-color="#2164BA"/>
<stop offset="0.84" stop-color="#333495"/>
<stop offset="1" stop-color="#3B2287"/>
</linearGradient>
<linearGradient id="paint4_linear_413_20649" x1="272.079" y1="289.914" x2="272.569" y2="404.195" gradientUnits="userSpaceOnUse">
<stop stop-color="#29FBFF"/>
<stop offset="0.06" stop-color="#28F8FC" stop-opacity="0.91"/>
<stop offset="0.26" stop-color="#27EFF3" stop-opacity="0.64"/>
<stop offset="0.45" stop-color="#26E8EC" stop-opacity="0.41"/>
<stop offset="0.63" stop-color="#25E2E6" stop-opacity="0.23"/>
<stop offset="0.78" stop-color="#24DEE2" stop-opacity="0.11"/>
<stop offset="0.91" stop-color="#24DBDF" stop-opacity="0.03"/>
<stop offset="1" stop-color="#24DBDF" stop-opacity="0"/>
</linearGradient>
<linearGradient id="paint5_linear_413_20649" x1="352.11" y1="289.575" x2="352.6" y2="403.854" gradientUnits="userSpaceOnUse">
<stop stop-color="#29FBFF"/>
<stop offset="0.06" stop-color="#28F8FC" stop-opacity="0.91"/>
<stop offset="0.26" stop-color="#27EFF3" stop-opacity="0.64"/>
<stop offset="0.45" stop-color="#26E8EC" stop-opacity="0.41"/>
<stop offset="0.63" stop-color="#25E2E6" stop-opacity="0.23"/>
<stop offset="0.78" stop-color="#24DEE2" stop-opacity="0.11"/>
<stop offset="0.91" stop-color="#24DBDF" stop-opacity="0.03"/>
<stop offset="1" stop-color="#24DBDF" stop-opacity="0"/>
</linearGradient>
<linearGradient id="paint6_linear_413_20649" x1="376.85" y1="289.474" x2="377.33" y2="403.744" gradientUnits="userSpaceOnUse">
<stop stop-color="#29FBFF"/>
<stop offset="0.06" stop-color="#28F8FC" stop-opacity="0.91"/>
<stop offset="0.26" stop-color="#27EFF3" stop-opacity="0.64"/>
<stop offset="0.45" stop-color="#26E8EC" stop-opacity="0.41"/>
<stop offset="0.63" stop-color="#25E2E6" stop-opacity="0.23"/>
<stop offset="0.78" stop-color="#24DEE2" stop-opacity="0.11"/>
<stop offset="0.91" stop-color="#24DBDF" stop-opacity="0.03"/>
<stop offset="1" stop-color="#24DBDF" stop-opacity="0"/>
</linearGradient>
<linearGradient id="paint7_linear_413_20649" x1="392.75" y1="289.404" x2="393.24" y2="403.684" gradientUnits="userSpaceOnUse">
<stop stop-color="#29FBFF"/>
<stop offset="0.06" stop-color="#28F8FC" stop-opacity="0.91"/>
<stop offset="0.26" stop-color="#27EFF3" stop-opacity="0.64"/>
<stop offset="0.45" stop-color="#26E8EC" stop-opacity="0.41"/>
<stop offset="0.63" stop-color="#25E2E6" stop-opacity="0.23"/>
<stop offset="0.78" stop-color="#24DEE2" stop-opacity="0.11"/>
<stop offset="0.91" stop-color="#24DBDF" stop-opacity="0.03"/>
<stop offset="1" stop-color="#24DBDF" stop-opacity="0"/>
</linearGradient>
<linearGradient id="paint8_linear_413_20649" x1="343.14" y1="289.614" x2="343.63" y2="403.894" gradientUnits="userSpaceOnUse">
<stop stop-color="#29FBFF"/>
<stop offset="0.06" stop-color="#28F8FC" stop-opacity="0.91"/>
<stop offset="0.26" stop-color="#27EFF3" stop-opacity="0.64"/>
<stop offset="0.45" stop-color="#26E8EC" stop-opacity="0.41"/>
<stop offset="0.63" stop-color="#25E2E6" stop-opacity="0.23"/>
<stop offset="0.78" stop-color="#24DEE2" stop-opacity="0.11"/>
<stop offset="0.91" stop-color="#24DBDF" stop-opacity="0.03"/>
<stop offset="1" stop-color="#24DBDF" stop-opacity="0"/>
</linearGradient>
<linearGradient id="paint9_linear_413_20649" x1="233.889" y1="290.084" x2="234.379" y2="404.355" gradientUnits="userSpaceOnUse">
<stop stop-color="#29FBFF"/>
<stop offset="0.06" stop-color="#28F8FC" stop-opacity="0.91"/>
<stop offset="0.26" stop-color="#27EFF3" stop-opacity="0.64"/>
<stop offset="0.45" stop-color="#26E8EC" stop-opacity="0.41"/>
<stop offset="0.63" stop-color="#25E2E6" stop-opacity="0.23"/>
<stop offset="0.78" stop-color="#24DEE2" stop-opacity="0.11"/>
<stop offset="0.91" stop-color="#24DBDF" stop-opacity="0.03"/>
<stop offset="1" stop-color="#24DBDF" stop-opacity="0"/>
</linearGradient>
<linearGradient id="paint10_linear_413_20649" x1="255.58" y1="289.984" x2="256.06" y2="404.264" gradientUnits="userSpaceOnUse">
<stop stop-color="#29FBFF"/>
<stop offset="0.06" stop-color="#28F8FC" stop-opacity="0.91"/>
<stop offset="0.26" stop-color="#27EFF3" stop-opacity="0.64"/>
<stop offset="0.45" stop-color="#26E8EC" stop-opacity="0.41"/>
<stop offset="0.63" stop-color="#25E2E6" stop-opacity="0.23"/>
<stop offset="0.78" stop-color="#24DEE2" stop-opacity="0.11"/>
<stop offset="0.91" stop-color="#24DBDF" stop-opacity="0.03"/>
<stop offset="1" stop-color="#24DBDF" stop-opacity="0"/>
</linearGradient>
<linearGradient id="paint11_linear_413_20649" x1="220.01" y1="290.144" x2="220.5" y2="404.415" gradientUnits="userSpaceOnUse">
<stop stop-color="#29FBFF"/>
<stop offset="0.06" stop-color="#28F8FC" stop-opacity="0.91"/>
<stop offset="0.26" stop-color="#27EFF3" stop-opacity="0.64"/>
<stop offset="0.45" stop-color="#26E8EC" stop-opacity="0.41"/>
<stop offset="0.63" stop-color="#25E2E6" stop-opacity="0.23"/>
<stop offset="0.78" stop-color="#24DEE2" stop-opacity="0.11"/>
<stop offset="0.91" stop-color="#24DBDF" stop-opacity="0.03"/>
<stop offset="1" stop-color="#24DBDF" stop-opacity="0"/>
</linearGradient>
<linearGradient id="paint12_linear_413_20649" x1="216.85" y1="290.154" x2="217.34" y2="404.434" gradientUnits="userSpaceOnUse">
<stop stop-color="#29FBFF"/>
<stop offset="0.06" stop-color="#28F8FC" stop-opacity="0.91"/>
<stop offset="0.26" stop-color="#27EFF3" stop-opacity="0.64"/>
<stop offset="0.45" stop-color="#26E8EC" stop-opacity="0.41"/>
<stop offset="0.63" stop-color="#25E2E6" stop-opacity="0.23"/>
<stop offset="0.78" stop-color="#24DEE2" stop-opacity="0.11"/>
<stop offset="0.91" stop-color="#24DBDF" stop-opacity="0.03"/>
<stop offset="1" stop-color="#24DBDF" stop-opacity="0"/>
</linearGradient>
<linearGradient id="paint13_linear_413_20649" x1="358.24" y1="289.555" x2="358.73" y2="403.824" gradientUnits="userSpaceOnUse">
<stop stop-color="#29FBFF"/>
<stop offset="0.06" stop-color="#28F8FC" stop-opacity="0.91"/>
<stop offset="0.26" stop-color="#27EFF3" stop-opacity="0.64"/>
<stop offset="0.45" stop-color="#26E8EC" stop-opacity="0.41"/>
<stop offset="0.63" stop-color="#25E2E6" stop-opacity="0.23"/>
<stop offset="0.78" stop-color="#24DEE2" stop-opacity="0.11"/>
<stop offset="0.91" stop-color="#24DBDF" stop-opacity="0.03"/>
<stop offset="1" stop-color="#24DBDF" stop-opacity="0"/>
</linearGradient>
<linearGradient id="paint14_linear_413_20649" x1="416.4" y1="289.304" x2="416.88" y2="403.584" gradientUnits="userSpaceOnUse">
<stop stop-color="#29FBFF"/>
<stop offset="0.06" stop-color="#28F8FC" stop-opacity="0.91"/>
<stop offset="0.26" stop-color="#27EFF3" stop-opacity="0.64"/>
<stop offset="0.45" stop-color="#26E8EC" stop-opacity="0.41"/>
<stop offset="0.63" stop-color="#25E2E6" stop-opacity="0.23"/>
<stop offset="0.78" stop-color="#24DEE2" stop-opacity="0.11"/>
<stop offset="0.91" stop-color="#24DBDF" stop-opacity="0.03"/>
<stop offset="1" stop-color="#24DBDF" stop-opacity="0"/>
</linearGradient>
<linearGradient id="paint15_linear_413_20649" x1="372.49" y1="289.495" x2="372.98" y2="403.764" gradientUnits="userSpaceOnUse">
<stop stop-color="#29FBFF"/>
<stop offset="0.06" stop-color="#28F8FC" stop-opacity="0.91"/>
<stop offset="0.26" stop-color="#27EFF3" stop-opacity="0.64"/>
<stop offset="0.45" stop-color="#26E8EC" stop-opacity="0.41"/>
<stop offset="0.63" stop-color="#25E2E6" stop-opacity="0.23"/>
<stop offset="0.78" stop-color="#24DEE2" stop-opacity="0.11"/>
<stop offset="0.91" stop-color="#24DBDF" stop-opacity="0.03"/>
<stop offset="1" stop-color="#24DBDF" stop-opacity="0"/>
</linearGradient>
<linearGradient id="paint16_linear_413_20649" x1="177.87" y1="290.315" x2="178.36" y2="404.594" gradientUnits="userSpaceOnUse">
<stop stop-color="#29FBFF"/>
<stop offset="0.06" stop-color="#28F8FC" stop-opacity="0.91"/>
<stop offset="0.26" stop-color="#27EFF3" stop-opacity="0.64"/>
<stop offset="0.45" stop-color="#26E8EC" stop-opacity="0.41"/>
<stop offset="0.63" stop-color="#25E2E6" stop-opacity="0.23"/>
<stop offset="0.78" stop-color="#24DEE2" stop-opacity="0.11"/>
<stop offset="0.91" stop-color="#24DBDF" stop-opacity="0.03"/>
<stop offset="1" stop-color="#24DBDF" stop-opacity="0"/>
</linearGradient>
<linearGradient id="paint17_linear_413_20649" x1="194.351" y1="354.904" x2="230.111" y2="354.904" gradientUnits="userSpaceOnUse">
<stop stop-color="#29FBFF"/>
<stop offset="0.06" stop-color="#28F8FC" stop-opacity="0.91"/>
<stop offset="0.26" stop-color="#27EFF3" stop-opacity="0.64"/>
<stop offset="0.45" stop-color="#26E8EC" stop-opacity="0.41"/>
<stop offset="0.63" stop-color="#25E2E6" stop-opacity="0.23"/>
<stop offset="0.78" stop-color="#24DEE2" stop-opacity="0.11"/>
<stop offset="0.91" stop-color="#24DBDF" stop-opacity="0.03"/>
<stop offset="1" stop-color="#24DBDF" stop-opacity="0"/>
</linearGradient>
<linearGradient id="paint18_linear_413_20649" x1="153.65" y1="356.054" x2="194.36" y2="356.054" gradientUnits="userSpaceOnUse">
<stop stop-color="#29FBFF"/>
<stop offset="0.06" stop-color="#28F8FC" stop-opacity="0.91"/>
<stop offset="0.26" stop-color="#27EFF3" stop-opacity="0.64"/>
<stop offset="0.45" stop-color="#26E8EC" stop-opacity="0.41"/>
<stop offset="0.63" stop-color="#25E2E6" stop-opacity="0.23"/>
<stop offset="0.78" stop-color="#24DEE2" stop-opacity="0.11"/>
<stop offset="0.91" stop-color="#24DBDF" stop-opacity="0.03"/>
<stop offset="1" stop-color="#24DBDF" stop-opacity="0"/>
</linearGradient>
<linearGradient id="paint19_linear_413_20649" x1="153.66" y1="349.174" x2="230.11" y2="349.174" gradientUnits="userSpaceOnUse">
<stop stop-color="#29FBFF"/>
<stop offset="0.06" stop-color="#28F8FC" stop-opacity="0.91"/>
<stop offset="0.26" stop-color="#27EFF3" stop-opacity="0.64"/>
<stop offset="0.45" stop-color="#26E8EC" stop-opacity="0.41"/>
<stop offset="0.63" stop-color="#25E2E6" stop-opacity="0.23"/>
<stop offset="0.78" stop-color="#24DEE2" stop-opacity="0.11"/>
<stop offset="0.91" stop-color="#24DBDF" stop-opacity="0.03"/>
<stop offset="1" stop-color="#24DBDF" stop-opacity="0"/>
</linearGradient>
<radialGradient id="paint20_radial_413_20649" cx="0" cy="0" r="1" gradientUnits="userSpaceOnUse" gradientTransform="translate(301.642 391.857) rotate(151.59) scale(2.38 2.74399)">
<stop stop-color="white"/>
<stop offset="1"/>
</radialGradient>
<radialGradient id="paint21_radial_413_20649" cx="0" cy="0" r="1" gradientUnits="userSpaceOnUse" gradientTransform="translate(262.609 345.267) rotate(151.59) scale(2.38 2.74399)">
<stop stop-color="white"/>
<stop offset="1"/>
</radialGradient>
<radialGradient id="paint22_radial_413_20649" cx="0" cy="0" r="1" gradientUnits="userSpaceOnUse" gradientTransform="translate(193.306 223.274) rotate(151.59) scale(2.38 2.744)">
<stop stop-color="white"/>
<stop offset="1"/>
</radialGradient>
<radialGradient id="paint23_radial_413_20649" cx="0" cy="0" r="1" gradientUnits="userSpaceOnUse" gradientTransform="translate(317.036 374.985) rotate(151.59) scale(1.139 1.3132)">
<stop stop-color="white"/>
<stop offset="1"/>
</radialGradient>
<radialGradient id="paint24_radial_413_20649" cx="0" cy="0" r="1" gradientUnits="userSpaceOnUse" gradientTransform="translate(338.406 393.031) rotate(151.59) scale(1.139 1.31319)">
<stop stop-color="white"/>
<stop offset="1"/>
</radialGradient>
<radialGradient id="paint25_radial_413_20649" cx="0" cy="0" r="1" gradientUnits="userSpaceOnUse" gradientTransform="translate(311.636 406.987) rotate(151.59) scale(1.139 1.31319)">
<stop stop-color="white"/>
<stop offset="1"/>
</radialGradient>
<radialGradient id="paint26_radial_413_20649" cx="0" cy="0" r="1" gradientUnits="userSpaceOnUse" gradientTransform="translate(369.393 320.232) rotate(151.59) scale(1.139 1.3132)">
<stop stop-color="white"/>
<stop offset="1"/>
</radialGradient>
<radialGradient id="paint27_radial_413_20649" cx="0" cy="0" r="1" gradientUnits="userSpaceOnUse" gradientTransform="translate(410.909 301.296) rotate(151.59) scale(1.13899 1.3132)">
<stop stop-color="white"/>
<stop offset="1"/>
</radialGradient>
<radialGradient id="paint28_radial_413_20649" cx="0" cy="0" r="1" gradientUnits="userSpaceOnUse" gradientTransform="translate(310.604 362.818) rotate(151.59) scale(1.462 1.68559)">
<stop stop-color="white"/>
<stop offset="1"/>
</radialGradient>
<radialGradient id="paint29_radial_413_20649" cx="0" cy="0" r="1" gradientUnits="userSpaceOnUse" gradientTransform="translate(259.112 392.862) rotate(151.59) scale(1.462 1.68559)">
<stop stop-color="white"/>
<stop offset="1"/>
</radialGradient>
<radialGradient id="paint30_radial_413_20649" cx="0" cy="0" r="1" gradientUnits="userSpaceOnUse" gradientTransform="translate(279.481 398.353) rotate(151.59) scale(1.462 1.68559)">
<stop stop-color="white"/>
<stop offset="1"/>
</radialGradient>
<radialGradient id="paint31_radial_413_20649" cx="0" cy="0" r="1" gradientUnits="userSpaceOnUse" gradientTransform="translate(201.985 385.808) rotate(151.59) scale(1.462 1.68561)">
<stop stop-color="white"/>
<stop offset="1"/>
</radialGradient>
<radialGradient id="paint32_radial_413_20649" cx="0" cy="0" r="1" gradientUnits="userSpaceOnUse" gradientTransform="translate(249.131 334.508) rotate(151.59) scale(1.462 1.68561)">
<stop stop-color="white"/>
<stop offset="1"/>
</radialGradient>
<radialGradient id="paint33_radial_413_20649" cx="0" cy="0" r="1" gradientUnits="userSpaceOnUse" gradientTransform="translate(333.868 359.928) rotate(151.59) scale(1.462 1.68561)">
<stop stop-color="white"/>
<stop offset="1"/>
</radialGradient>
<radialGradient id="paint34_radial_413_20649" cx="0" cy="0" r="1" gradientUnits="userSpaceOnUse" gradientTransform="translate(367.207 251.521) rotate(151.59) scale(1.462 1.6856)">
<stop stop-color="white"/>
<stop offset="1"/>
</radialGradient>
<radialGradient id="paint35_radial_413_20649" cx="0" cy="0" r="1" gradientUnits="userSpaceOnUse" gradientTransform="translate(188.512 352.272) rotate(151.59) scale(1.46199 1.68559)">
<stop stop-color="white"/>
<stop offset="1"/>
</radialGradient>
<radialGradient id="paint36_radial_413_20649" cx="0" cy="0" r="1" gradientUnits="userSpaceOnUse" gradientTransform="translate(292.548 346.369) rotate(151.59) scale(1.0625 1.225)">
<stop stop-color="white"/>
<stop offset="1"/>
</radialGradient>
<radialGradient id="paint37_radial_413_20649" cx="0" cy="0" r="1" gradientUnits="userSpaceOnUse" gradientTransform="translate(197.723 252.19) rotate(151.59) scale(1.0625 1.225)">
<stop stop-color="white"/>
<stop offset="1"/>
</radialGradient>
<radialGradient id="paint38_radial_413_20649" cx="0" cy="0" r="1" gradientUnits="userSpaceOnUse" gradientTransform="translate(330.881 384.313) rotate(151.59) scale(1.598 1.8424)">
<stop stop-color="white"/>
<stop offset="1"/>
</radialGradient>
<radialGradient id="paint39_radial_413_20649" cx="0" cy="0" r="1" gradientUnits="userSpaceOnUse" gradientTransform="translate(405.08 256.975) rotate(151.59) scale(1.598 1.8424)">
<stop stop-color="white"/>
<stop offset="1"/>
</radialGradient>
<radialGradient id="paint40_radial_413_20649" cx="0" cy="0" r="1" gradientUnits="userSpaceOnUse" gradientTransform="translate(378.473 357.615) rotate(151.59) scale(1.59801 1.84241)">
<stop stop-color="white"/>
<stop offset="1"/>
</radialGradient>
<radialGradient id="paint41_radial_413_20649" cx="0" cy="0" r="1" gradientUnits="userSpaceOnUse" gradientTransform="translate(375.209 342.581) rotate(151.59) scale(1.59801 1.84241)">
<stop stop-color="white"/>
<stop offset="1"/>
</radialGradient>
<radialGradient id="paint42_radial_413_20649" cx="0" cy="0" r="1" gradientUnits="userSpaceOnUse" gradientTransform="translate(400.156 364.229) rotate(151.59) scale(1.59801 1.84241)">
<stop stop-color="white"/>
<stop offset="1"/>
</radialGradient>
<radialGradient id="paint43_radial_413_20649" cx="0" cy="0" r="1" gradientUnits="userSpaceOnUse" gradientTransform="translate(347.2 321.3) rotate(151.59) scale(1.598 1.84239)">
<stop stop-color="white"/>
<stop offset="1"/>
</radialGradient>
<radialGradient id="paint44_radial_413_20649" cx="0" cy="0" r="1" gradientUnits="userSpaceOnUse" gradientTransform="translate(396.748 288.458) rotate(151.59) scale(1.598 1.8424)">
<stop stop-color="white"/>
<stop offset="1"/>
</radialGradient>
<radialGradient id="paint45_radial_413_20649" cx="0" cy="0" r="1" gradientUnits="userSpaceOnUse" gradientTransform="translate(364.279 298.315) rotate(151.59) scale(1.598 1.84239)">
<stop stop-color="white"/>
<stop offset="1"/>
</radialGradient>
<radialGradient id="paint46_radial_413_20649" cx="0" cy="0" r="1" gradientUnits="userSpaceOnUse" gradientTransform="translate(206.605 331.129) rotate(151.59) scale(1.598 1.84239)">
<stop stop-color="white"/>
<stop offset="1"/>
</radialGradient>
<radialGradient id="paint47_radial_413_20649" cx="0" cy="0" r="1" gradientUnits="userSpaceOnUse" gradientTransform="translate(183.098 387.335) rotate(151.59) scale(1.598 1.8424)">
<stop stop-color="white"/>
<stop offset="1"/>
</radialGradient>
<radialGradient id="paint48_radial_413_20649" cx="0" cy="0" r="1" gradientUnits="userSpaceOnUse" gradientTransform="translate(284.34 365.155) rotate(151.59) scale(1.598 1.84239)">
<stop stop-color="white"/>
<stop offset="1"/>
</radialGradient>
<radialGradient id="paint49_radial_413_20649" cx="0" cy="0" r="1" gradientUnits="userSpaceOnUse" gradientTransform="translate(233.375 388.619) rotate(151.59) scale(1.598 1.8424)">
<stop stop-color="white"/>
<stop offset="1"/>
</radialGradient>
<radialGradient id="paint50_radial_413_20649" cx="0" cy="0" r="1" gradientUnits="userSpaceOnUse" gradientTransform="translate(249.517 378.921) rotate(151.59) scale(1.598 1.8424)">
<stop stop-color="white"/>
<stop offset="1"/>
</radialGradient>
<radialGradient id="paint51_radial_413_20649" cx="0" cy="0" r="1" gradientUnits="userSpaceOnUse" gradientTransform="translate(185.109 315.095) rotate(151.59) scale(1.598 1.84241)">
<stop stop-color="white"/>
<stop offset="1"/>
</radialGradient>
<radialGradient id="paint52_radial_413_20649" cx="0" cy="0" r="1" gradientUnits="userSpaceOnUse" gradientTransform="translate(200.902 183.705) rotate(151.59) scale(1.598 1.8424)">
<stop stop-color="white"/>
<stop offset="1"/>
</radialGradient>
<radialGradient id="paint53_radial_413_20649" cx="0" cy="0" r="1" gradientUnits="userSpaceOnUse" gradientTransform="translate(391.056 221.772) rotate(151.59) scale(1.598 1.8424)">
<stop stop-color="white"/>
<stop offset="1"/>
</radialGradient>
<radialGradient id="paint54_radial_413_20649" cx="0" cy="0" r="1" gradientUnits="userSpaceOnUse" gradientTransform="translate(218.52 235.057) rotate(151.59) scale(1.598 1.8424)">
<stop stop-color="white"/>
<stop offset="1"/>
</radialGradient>
<radialGradient id="paint55_radial_413_20649" cx="0" cy="0" r="1" gradientUnits="userSpaceOnUse" gradientTransform="translate(270.575 379.028) rotate(151.59) scale(1.598 1.8424)">
<stop stop-color="white"/>
<stop offset="1"/>
</radialGradient>
<radialGradient id="paint56_radial_413_20649" cx="0" cy="0" r="1" gradientUnits="userSpaceOnUse" gradientTransform="translate(351.756 345.79) rotate(151.59) scale(1.598 1.84239)">
<stop stop-color="white"/>
<stop offset="1"/>
</radialGradient>
<radialGradient id="paint57_radial_413_20649" cx="0" cy="0" r="1" gradientUnits="userSpaceOnUse" gradientTransform="translate(396.194 313.402) rotate(151.59) scale(1.598 1.84239)">
<stop stop-color="white"/>
<stop offset="1"/>
</radialGradient>
<radialGradient id="paint58_radial_413_20649" cx="0" cy="0" r="1" gradientUnits="userSpaceOnUse" gradientTransform="translate(364.497 375.816) rotate(151.59) scale(1.598 1.84239)">
<stop stop-color="white"/>
<stop offset="1"/>
</radialGradient>
<radialGradient id="paint59_radial_413_20649" cx="0" cy="0" r="1" gradientUnits="userSpaceOnUse" gradientTransform="translate(435.081 285.676) rotate(151.59) scale(1.598 1.8424)">
<stop stop-color="white"/>
<stop offset="1"/>
</radialGradient>
<radialGradient id="paint60_radial_413_20649" cx="0" cy="0" r="1" gradientUnits="userSpaceOnUse" gradientTransform="translate(424.313 357.672) rotate(151.59) scale(1.59801 1.8424)">
<stop stop-color="white"/>
<stop offset="1"/>
</radialGradient>
<radialGradient id="paint61_radial_413_20649" cx="0" cy="0" r="1" gradientUnits="userSpaceOnUse" gradientTransform="translate(156.568 355.97) rotate(151.59) scale(1.598 1.84239)">
<stop stop-color="white"/>
<stop offset="1"/>
</radialGradient>
<radialGradient id="paint62_radial_413_20649" cx="0" cy="0" r="1" gradientUnits="userSpaceOnUse" gradientTransform="translate(345.289 209.481) rotate(151.59) scale(1.59801 1.84241)">
<stop stop-color="white"/>
<stop offset="1"/>
</radialGradient>
<radialGradient id="paint63_radial_413_20649" cx="0" cy="0" r="1" gradientUnits="userSpaceOnUse" gradientTransform="translate(353.942 272.33) rotate(151.59) scale(1.598 1.8424)">
<stop stop-color="white"/>
<stop offset="1"/>
</radialGradient>
<linearGradient id="paint64_linear_413_20649" x1="119.46" y1="224.364" x2="119.46" y2="250.364" gradientUnits="userSpaceOnUse">
<stop stop-color="white"/>
<stop offset="0.28" stop-color="#FCFCFF"/>
<stop offset="0.47" stop-color="#F5F3FF"/>
<stop offset="0.63" stop-color="#E9E4FF"/>
<stop offset="0.78" stop-color="#D8CFFF"/>
<stop offset="0.91" stop-color="#C2B3FF"/>
<stop offset="1" stop-color="#B09DFF"/>
</linearGradient>
<linearGradient id="paint65_linear_413_20649" x1="398.16" y1="285.644" x2="398.16" y2="310.744" gradientUnits="userSpaceOnUse">
<stop stop-color="white"/>
<stop offset="0.28" stop-color="#FCFCFF"/>
<stop offset="0.47" stop-color="#F5F3FF"/>
<stop offset="0.63" stop-color="#E9E4FF"/>
<stop offset="0.78" stop-color="#D8CFFF"/>
<stop offset="0.91" stop-color="#C2B3FF"/>
<stop offset="1" stop-color="#B09DFF"/>
</linearGradient>
<linearGradient id="paint66_linear_413_20649" x1="432.481" y1="133.524" x2="432.481" y2="158.494" gradientUnits="userSpaceOnUse">
<stop stop-color="white"/>
<stop offset="0.28" stop-color="#FCFCFF"/>
<stop offset="0.47" stop-color="#F5F3FF"/>
<stop offset="0.63" stop-color="#E9E4FF"/>
<stop offset="0.78" stop-color="#D8CFFF"/>
<stop offset="0.91" stop-color="#C2B3FF"/>
<stop offset="1" stop-color="#B09DFF"/>
</linearGradient>
<linearGradient id="paint67_linear_413_20649" x1="191.581" y1="86.2439" x2="191.581" y2="104.554" gradientUnits="userSpaceOnUse">
<stop stop-color="white"/>
<stop offset="0.28" stop-color="#FCFCFF"/>
<stop offset="0.47" stop-color="#F5F3FF"/>
<stop offset="0.63" stop-color="#E9E4FF"/>
<stop offset="0.78" stop-color="#D8CFFF"/>
<stop offset="0.91" stop-color="#C2B3FF"/>
<stop offset="1" stop-color="#B09DFF"/>
</linearGradient>
<linearGradient id="paint68_linear_413_20649" x1="195.84" y1="316.804" x2="195.84" y2="333.724" gradientUnits="userSpaceOnUse">
<stop stop-color="white"/>
<stop offset="0.28" stop-color="#FCFCFF"/>
<stop offset="0.47" stop-color="#F5F3FF"/>
<stop offset="0.63" stop-color="#E9E4FF"/>
<stop offset="0.78" stop-color="#D8CFFF"/>
<stop offset="0.91" stop-color="#C2B3FF"/>
<stop offset="1" stop-color="#B09DFF"/>
</linearGradient>
<radialGradient id="paint69_radial_413_20649" cx="0" cy="0" r="1" gradientUnits="userSpaceOnUse" gradientTransform="translate(153.9 292.234) scale(33.22 33.22)">
<stop offset="0.03" stop-color="#735CAB"/>
<stop offset="1" stop-color="#180449"/>
</radialGradient>
<linearGradient id="paint70_linear_413_20649" x1="172.72" y1="251.124" x2="179.33" y2="267.424" gradientUnits="userSpaceOnUse">
<stop offset="0.03" stop-color="#735CAB"/>
<stop offset="1" stop-color="#180449"/>
</linearGradient>
<linearGradient id="paint71_linear_413_20649" x1="111.65" y1="273.854" x2="199.6" y2="273.854" gradientUnits="userSpaceOnUse">
<stop stop-color="#F8EDCE"/>
<stop offset="1" stop-color="#BE97EB"/>
</linearGradient>
<linearGradient id="paint72_linear_413_20649" x1="173.32" y1="282.694" x2="185.21" y2="274.434" gradientUnits="userSpaceOnUse">
<stop offset="0.03" stop-color="#735CAB"/>
<stop offset="1" stop-color="#180449"/>
</linearGradient>
<linearGradient id="paint73_linear_413_20649" x1="240.58" y1="247.284" x2="246.65" y2="265.264" gradientUnits="userSpaceOnUse">
<stop offset="0.03" stop-color="#735CAB"/>
<stop offset="1" stop-color="#180449"/>
</linearGradient>
<linearGradient id="paint74_linear_413_20649" x1="240.43" y1="246.374" x2="247.86" y2="269.224" gradientUnits="userSpaceOnUse">
<stop offset="0.04" stop-color="#735CAB" stop-opacity="0"/>
<stop offset="1" stop-color="#180449"/>
</linearGradient>
<radialGradient id="paint75_radial_413_20649" cx="0" cy="0" r="1" gradientUnits="userSpaceOnUse" gradientTransform="translate(300.73 278.074) scale(51.59 51.59)">
<stop stop-color="white"/>
<stop offset="0.18" stop-color="#FBFAFF"/>
<stop offset="0.39" stop-color="#EFEBFF"/>
<stop offset="0.62" stop-color="#DCD4FF"/>
<stop offset="0.86" stop-color="#C1B3FF"/>
<stop offset="1" stop-color="#B09DFF"/>
</radialGradient>
<linearGradient id="paint76_linear_413_20649" x1="228.56" y1="254.684" x2="304.52" y2="278.674" gradientUnits="userSpaceOnUse">
<stop stop-color="white" stop-opacity="0"/>
<stop offset="1" stop-color="#B09DFF"/>
</linearGradient>
<radialGradient id="paint77_radial_413_20649" cx="0" cy="0" r="1" gradientUnits="userSpaceOnUse" gradientTransform="translate(296.722 270.932) rotate(-17.01) scale(42.471 29.7)">
<stop stop-color="#B09DFF"/>
<stop offset="1" stop-color="white" stop-opacity="0"/>
</radialGradient>
<radialGradient id="paint78_radial_413_20649" cx="0" cy="0" r="1" gradientUnits="userSpaceOnUse" gradientTransform="translate(319.474 267.89) rotate(-17.01) scale(42.471 29.7)">
<stop stop-color="#B09DFF"/>
<stop offset="1" stop-color="white" stop-opacity="0"/>
</radialGradient>
<radialGradient id="paint79_radial_413_20649" cx="0" cy="0" r="1" gradientUnits="userSpaceOnUse" gradientTransform="translate(305.84 300.378) rotate(-17.01) scale(42.471 29.7)">
<stop stop-color="#B09DFF"/>
<stop offset="1" stop-color="white" stop-opacity="0"/>
</radialGradient>
<radialGradient id="paint80_radial_413_20649" cx="0" cy="0" r="1" gradientUnits="userSpaceOnUse" gradientTransform="translate(210.27 244.964) scale(41.39 41.39)">
<stop stop-color="white"/>
<stop offset="0.18" stop-color="#FBFAFF"/>
<stop offset="0.39" stop-color="#EFEBFF"/>
<stop offset="0.62" stop-color="#DCD4FF"/>
<stop offset="0.86" stop-color="#C1B3FF"/>
<stop offset="1" stop-color="#B09DFF"/>
</radialGradient>
<linearGradient id="paint81_linear_413_20649" x1="185.21" y1="248.204" x2="203.91" y2="292.924" gradientUnits="userSpaceOnUse">
<stop stop-color="white" stop-opacity="0"/>
<stop offset="1" stop-color="#B09DFF"/>
</linearGradient>
<linearGradient id="paint82_linear_413_20649" x1="203.38" y1="240.544" x2="224.66" y2="291.414" gradientUnits="userSpaceOnUse">
<stop stop-color="white" stop-opacity="0"/>
<stop offset="1" stop-color="#B09DFF"/>
</linearGradient>
<linearGradient id="paint83_linear_413_20649" x1="190.59" y1="263.274" x2="234.05" y2="263.274" gradientUnits="userSpaceOnUse">
<stop offset="0.03" stop-color="#735CAB"/>
<stop offset="1" stop-color="#180449"/>
</linearGradient>
<linearGradient id="paint84_linear_413_20649" x1="304.68" y1="214.565" x2="298.184" y2="237.841" gradientUnits="userSpaceOnUse">
<stop stop-color="white" stop-opacity="0"/>
<stop offset="1" stop-color="#B09DFF"/>
</linearGradient>
<linearGradient id="paint85_linear_413_20649" x1="303.232" y1="216.595" x2="297.957" y2="235.512" gradientUnits="userSpaceOnUse">
<stop stop-color="white" stop-opacity="0"/>
<stop offset="1" stop-color="#B09DFF"/>
</linearGradient>
<radialGradient id="paint86_radial_413_20649" cx="0" cy="0" r="1" gradientUnits="userSpaceOnUse" gradientTransform="translate(95.6997 248.464) scale(29.34 29.34)">
<stop stop-color="white"/>
<stop offset="0.18" stop-color="#FBFAFF"/>
<stop offset="0.39" stop-color="#EFEBFF"/>
<stop offset="0.62" stop-color="#DCD4FF"/>
<stop offset="0.86" stop-color="#C1B3FF"/>
<stop offset="1" stop-color="#B09DFF"/>
</radialGradient>
<linearGradient id="paint87_linear_413_20649" x1="156.8" y1="115.634" x2="175.33" y2="296.724" gradientUnits="userSpaceOnUse">
<stop stop-color="#00BBFF"/>
<stop offset="0.06" stop-color="#04B0F6"/>
<stop offset="0.51" stop-color="#2164BA"/>
<stop offset="0.84" stop-color="#333495"/>
<stop offset="1" stop-color="#3B2287"/>
</linearGradient>
<linearGradient id="paint88_linear_413_20649" x1="85.59" y1="121.734" x2="93.59" y2="179.384" gradientUnits="userSpaceOnUse">
<stop stop-color="#00BBFF"/>
<stop offset="0.06" stop-color="#04B0F6"/>
<stop offset="0.51" stop-color="#2164BA"/>
<stop offset="0.84" stop-color="#333495"/>
<stop offset="1" stop-color="#3B2287"/>
</linearGradient>
<linearGradient id="paint89_linear_413_20649" x1="90.3671" y1="126.611" x2="92.1666" y2="236.192" gradientUnits="userSpaceOnUse">
<stop stop-color="#29FBFF"/>
<stop offset="0.06" stop-color="#28F8FC" stop-opacity="0.91"/>
<stop offset="0.26" stop-color="#27EFF3" stop-opacity="0.64"/>
<stop offset="0.45" stop-color="#26E8EC" stop-opacity="0.41"/>
<stop offset="0.63" stop-color="#25E2E6" stop-opacity="0.23"/>
<stop offset="0.78" stop-color="#24DEE2" stop-opacity="0.11"/>
<stop offset="0.91" stop-color="#24DBDF" stop-opacity="0.03"/>
<stop offset="1" stop-color="#24DBDF" stop-opacity="0"/>
</linearGradient>
<linearGradient id="paint90_linear_413_20649" x1="96.1451" y1="332.149" x2="91.1336" y2="213.075" gradientUnits="userSpaceOnUse">
<stop stop-color="#29FBFF"/>
<stop offset="0.06" stop-color="#28F8FC" stop-opacity="0.91"/>
<stop offset="0.26" stop-color="#27EFF3" stop-opacity="0.64"/>
<stop offset="0.45" stop-color="#26E8EC" stop-opacity="0.41"/>
<stop offset="0.63" stop-color="#25E2E6" stop-opacity="0.23"/>
<stop offset="0.78" stop-color="#24DEE2" stop-opacity="0.11"/>
<stop offset="0.91" stop-color="#24DBDF" stop-opacity="0.03"/>
<stop offset="1" stop-color="#24DBDF" stop-opacity="0"/>
</linearGradient>
<linearGradient id="paint91_linear_413_20649" x1="96.2497" y1="281.224" x2="86.9297" y2="161.194" gradientUnits="userSpaceOnUse">
<stop offset="0.02" stop-color="#F562C2" stop-opacity="0"/>
<stop offset="0.04" stop-color="#F360C2" stop-opacity="0.03"/>
<stop offset="0.23" stop-color="#E453C6" stop-opacity="0.32"/>
<stop offset="0.42" stop-color="#D848C9" stop-opacity="0.56"/>
<stop offset="0.6" stop-color="#CE40CC" stop-opacity="0.75"/>
<stop offset="0.76" stop-color="#C73ACE" stop-opacity="0.89"/>
<stop offset="0.9" stop-color="#C336CF" stop-opacity="0.97"/>
<stop offset="1" stop-color="#C235D0"/>
</linearGradient>
<radialGradient id="paint92_radial_413_20649" cx="0" cy="0" r="1" gradientUnits="userSpaceOnUse" gradientTransform="translate(275.8 291.704) scale(13.48 13.48)">
<stop offset="0.03" stop-color="#735CAB"/>
<stop offset="1" stop-color="#180449"/>
</radialGradient>
<radialGradient id="paint93_radial_413_20649" cx="0" cy="0" r="1" gradientUnits="userSpaceOnUse" gradientTransform="translate(281.799 294.284) scale(8.35001 8.34999)">
<stop offset="0.03" stop-color="#735CAB"/>
<stop offset="1" stop-color="#180449"/>
</radialGradient>
<linearGradient id="paint94_linear_413_20649" x1="318.419" y1="259.644" x2="341.529" y2="261.604" gradientUnits="userSpaceOnUse">
<stop offset="0.03" stop-color="#735CAB"/>
<stop offset="1" stop-color="#180449"/>
</linearGradient>
<linearGradient id="paint95_linear_413_20649" x1="328.58" y1="254.944" x2="350.7" y2="288.354" gradientUnits="userSpaceOnUse">
<stop offset="0.04" stop-color="#735CAB" stop-opacity="0"/>
<stop offset="1" stop-color="#180449"/>
</linearGradient>
<radialGradient id="paint96_radial_413_20649" cx="0" cy="0" r="1" gradientUnits="userSpaceOnUse" gradientTransform="translate(300.24 262.624) scale(37.94 37.94)">
<stop stop-color="white"/>
<stop offset="0.18" stop-color="#FBFAFF"/>
<stop offset="0.39" stop-color="#EFEBFF"/>
<stop offset="0.62" stop-color="#DCD4FF"/>
<stop offset="0.86" stop-color="#C1B3FF"/>
<stop offset="1" stop-color="#B09DFF"/>
</radialGradient>
<linearGradient id="paint97_linear_413_20649" x1="289.389" y1="258.664" x2="306.109" y2="312.034" gradientUnits="userSpaceOnUse">
<stop stop-color="white" stop-opacity="0"/>
<stop offset="1" stop-color="#B09DFF"/>
</linearGradient>
<linearGradient id="paint98_linear_413_20649" x1="300.119" y1="254.094" x2="317.809" y2="310.554" gradientUnits="userSpaceOnUse">
<stop stop-color="white" stop-opacity="0"/>
<stop offset="1" stop-color="#B09DFF"/>
</linearGradient>
<linearGradient id="paint99_linear_413_20649" x1="293.864" y1="269.937" x2="293.778" y2="300.099" gradientUnits="userSpaceOnUse">
<stop offset="0.03" stop-color="#735CAB"/>
<stop offset="1" stop-color="#180449"/>
</linearGradient>
<radialGradient id="paint100_radial_413_20649" cx="0" cy="0" r="1" gradientUnits="userSpaceOnUse" gradientTransform="translate(577.682 408.786) rotate(17.8) scale(63.6984 43.3503)">
<stop stop-color="#FDF4EB"/>
<stop offset="0.36" stop-color="#FDF1E9"/>
<stop offset="0.57" stop-color="#FDE9E5"/>
<stop offset="0.75" stop-color="#FDDADE"/>
<stop offset="0.9" stop-color="#FEC6D4"/>
<stop offset="1" stop-color="#FFB5CC"/>
</radialGradient>
<linearGradient id="paint101_linear_413_20649" x1="556.623" y1="375.927" x2="620.747" y2="396.516" gradientUnits="userSpaceOnUse">
<stop stop-color="#F8EDCE"/>
<stop offset="1" stop-color="#BE97EB"/>
</linearGradient>
<linearGradient id="paint102_linear_413_20649" x1="252.718" y1="285.843" x2="237.669" y2="292.259" gradientUnits="userSpaceOnUse">
<stop stop-color="#FF5126"/>
<stop offset="1" stop-color="#FFA459"/>
</linearGradient>
<linearGradient id="paint103_linear_413_20649" x1="243.839" y1="284.834" x2="244.009" y2="291.434" gradientUnits="userSpaceOnUse">
<stop offset="0.03" stop-color="#735CAB"/>
<stop offset="1" stop-color="#180449"/>
</linearGradient>
<linearGradient id="paint104_linear_413_20649" x1="245.483" y1="285.234" x2="244.13" y2="288.77" gradientUnits="userSpaceOnUse">
<stop stop-color="#D471EF"/>
<stop offset="1" stop-color="#A528C7" stop-opacity="0"/>
</linearGradient>
<linearGradient id="paint105_linear_413_20649" x1="275.71" y1="289.466" x2="258.866" y2="296.637" gradientUnits="userSpaceOnUse">
<stop stop-color="#FF5126"/>
<stop offset="1" stop-color="#FFA459"/>
</linearGradient>
<linearGradient id="paint106_linear_413_20649" x1="265.279" y1="288.244" x2="266.279" y2="295.664" gradientUnits="userSpaceOnUse">
<stop offset="0.02" stop-color="#34EC90"/>
<stop offset="0.24" stop-color="#34BA8E"/>
<stop offset="0.61" stop-color="#356E8C"/>
<stop offset="0.87" stop-color="#363E8B"/>
<stop offset="1" stop-color="#372C8B"/>
</linearGradient>
<linearGradient id="paint107_linear_413_20649" x1="268.424" y1="288.444" x2="266.812" y2="292.673" gradientUnits="userSpaceOnUse">
<stop stop-color="#4474FF"/>
<stop offset="1" stop-color="#2E64FF" stop-opacity="0"/>
</linearGradient>
<linearGradient id="paint108_linear_413_20649" x1="296.771" y1="285.769" x2="280.719" y2="292.612" gradientUnits="userSpaceOnUse">
<stop stop-color="#FF5126"/>
<stop offset="1" stop-color="#FFA459"/>
</linearGradient>
<radialGradient id="paint109_radial_413_20649" cx="0" cy="0" r="1" gradientUnits="userSpaceOnUse" gradientTransform="translate(287.418 288.852) rotate(44.83) scale(4.86999)">
<stop stop-color="#F562C2"/>
<stop offset="1" stop-color="#C235D0"/>
</radialGradient>
<linearGradient id="paint110_linear_413_20649" x1="289.065" y1="284.643" x2="287.581" y2="288.508" gradientUnits="userSpaceOnUse">
<stop stop-color="#7D50CA"/>
<stop offset="1" stop-color="#8154CF" stop-opacity="0"/>
</linearGradient>
<linearGradient id="paint111_linear_413_20649" x1="304.809" y1="278.094" x2="290.028" y2="284.396" gradientUnits="userSpaceOnUse">
<stop stop-color="#FF5126"/>
<stop offset="1" stop-color="#FFA459"/>
</linearGradient>
<radialGradient id="paint112_radial_413_20649" cx="0" cy="0" r="1" gradientUnits="userSpaceOnUse" gradientTransform="translate(624.013 353.272) rotate(12.78) scale(14.4378 8.51461)">
<stop stop-color="#FFFBA6"/>
<stop offset="0.02" stop-color="#FEF8A2"/>
<stop offset="0.49" stop-color="#F4C161"/>
<stop offset="0.83" stop-color="#EE9F39"/>
<stop offset="1" stop-color="#EC922A"/>
</radialGradient>
<linearGradient id="paint113_linear_413_20649" x1="298.401" y1="277.391" x2="297.097" y2="280.783" gradientUnits="userSpaceOnUse">
<stop stop-color="#FF9A00"/>
<stop offset="1" stop-color="#FF7900" stop-opacity="0"/>
</linearGradient>
<linearGradient id="paint114_linear_413_20649" x1="258.529" y1="265.454" x2="272.179" y2="308.924" gradientUnits="userSpaceOnUse">
<stop stop-color="#F8EDCE" stop-opacity="0"/>
<stop offset="1" stop-color="#BE97EB"/>
</linearGradient>
<linearGradient id="paint115_linear_413_20649" x1="281.71" y1="272.224" x2="279.59" y2="280.064" gradientUnits="userSpaceOnUse">
<stop offset="0.03" stop-color="#735CAB"/>
<stop offset="1" stop-color="#180449"/>
</linearGradient>
<linearGradient id="paint116_linear_413_20649" x1="247.822" y1="29.6434" x2="267.378" y2="89.7823" gradientUnits="userSpaceOnUse">
<stop stop-color="white"/>
<stop offset="0.18" stop-color="#FBFAFF"/>
<stop offset="0.39" stop-color="#EFEBFF"/>
<stop offset="0.62" stop-color="#DCD4FF"/>
<stop offset="0.86" stop-color="#C1B3FF"/>
<stop offset="1" stop-color="#B09DFF"/>
</linearGradient>
<linearGradient id="paint117_linear_413_20649" x1="233.629" y1="58.3544" x2="275.346" y2="85.7025" gradientUnits="userSpaceOnUse">
<stop stop-color="white" stop-opacity="0"/>
<stop offset="1" stop-color="#B09DFF"/>
</linearGradient>
<linearGradient id="paint118_linear_413_20649" x1="253.16" y1="71.9443" x2="286.99" y2="71.9443" gradientUnits="userSpaceOnUse">
<stop offset="0.03" stop-color="#735CAB"/>
<stop offset="1" stop-color="#180449"/>
</linearGradient>
<radialGradient id="paint119_radial_413_20649" cx="0" cy="0" r="1" gradientUnits="userSpaceOnUse" gradientTransform="translate(275.021 163.378) rotate(0.94) scale(95.16 95.16)">
<stop stop-color="white"/>
<stop offset="0.18" stop-color="#FBFAFF"/>
<stop offset="0.39" stop-color="#EFEBFF"/>
<stop offset="0.62" stop-color="#DCD4FF"/>
<stop offset="0.86" stop-color="#C1B3FF"/>
<stop offset="1" stop-color="#B09DFF"/>
</radialGradient>
<linearGradient id="paint120_linear_413_20649" x1="302.269" y1="146.434" x2="297.329" y2="106.114" gradientUnits="userSpaceOnUse">
<stop stop-color="white" stop-opacity="0"/>
<stop offset="1" stop-color="#725CC9"/>
</linearGradient>
<linearGradient id="paint121_linear_413_20649" x1="259.825" y1="112.759" x2="243.552" y2="88.4791" gradientUnits="userSpaceOnUse">
<stop stop-color="white" stop-opacity="0"/>
<stop offset="1" stop-color="#B09DFF"/>
</linearGradient>
<linearGradient id="paint122_linear_413_20649" x1="284.834" y1="191.362" x2="286.591" y2="139.124" gradientUnits="userSpaceOnUse">
<stop stop-color="white" stop-opacity="0"/>
<stop offset="1" stop-color="#B09DFF"/>
</linearGradient>
<linearGradient id="paint123_linear_413_20649" x1="225.571" y1="161.176" x2="427.274" y2="164.486" gradientUnits="userSpaceOnUse">
<stop stop-color="white" stop-opacity="0"/>
<stop offset="1" stop-color="#B09DFF"/>
</linearGradient>
<linearGradient id="paint124_linear_413_20649" x1="353.66" y1="173.654" x2="388.33" y2="173.654" gradientUnits="userSpaceOnUse">
<stop offset="0.03" stop-color="#735CAB"/>
<stop offset="1" stop-color="#180449"/>
</linearGradient>
<linearGradient id="paint125_linear_413_20649" x1="385.749" y1="135.134" x2="389.009" y2="192.164" gradientUnits="userSpaceOnUse">
<stop stop-color="#B09DFF"/>
<stop offset="0.63" stop-color="white"/>
<stop offset="0.7" stop-color="#FBFAFF"/>
<stop offset="0.78" stop-color="#EFEBFF"/>
<stop offset="0.86" stop-color="#DCD4FF"/>
<stop offset="0.95" stop-color="#C1B3FF"/>
<stop offset="1" stop-color="#B09DFF"/>
</linearGradient>
<linearGradient id="paint126_linear_413_20649" x1="346.359" y1="150.054" x2="406.369" y2="181.964" gradientUnits="userSpaceOnUse">
<stop stop-color="white" stop-opacity="0"/>
<stop offset="1" stop-color="#B09DFF"/>
</linearGradient>
<linearGradient id="paint127_linear_413_20649" x1="408.95" y1="170.686" x2="386.083" y2="173.065" gradientUnits="userSpaceOnUse">
<stop stop-color="white"/>
<stop offset="0.18" stop-color="#FBFAFF"/>
<stop offset="0.39" stop-color="#EFEBFF"/>
<stop offset="0.62" stop-color="#DCD4FF"/>
<stop offset="0.86" stop-color="#C1B3FF"/>
<stop offset="1" stop-color="#B09DFF"/>
</linearGradient>
<radialGradient id="paint128_radial_413_20649" cx="0" cy="0" r="1" gradientUnits="userSpaceOnUse" gradientTransform="translate(403.724 170.373) rotate(89.85) scale(17.57 8.43361)">
<stop stop-color="#F562C2"/>
<stop offset="1" stop-color="#C235D0"/>
</radialGradient>
<radialGradient id="paint129_radial_413_20649" cx="0" cy="0" r="1" gradientUnits="userSpaceOnUse" gradientTransform="translate(284.994 183.442) rotate(4.28) scale(53.64 53.64)">
<stop stop-color="#246EB8"/>
<stop offset="1" stop-color="#212463"/>
</radialGradient>
<linearGradient id="paint130_linear_413_20649" x1="281.788" y1="55.1142" x2="303.011" y2="123.432" gradientUnits="userSpaceOnUse">
<stop stop-color="white"/>
<stop offset="0.18" stop-color="#FBFAFF"/>
<stop offset="0.39" stop-color="#EFEBFF"/>
<stop offset="0.62" stop-color="#DCD4FF"/>
<stop offset="0.86" stop-color="#C1B3FF"/>
<stop offset="1" stop-color="#B09DFF"/>
</linearGradient>
<linearGradient id="paint131_linear_413_20649" x1="265.827" y1="112.36" x2="339.567" y2="113.57" gradientUnits="userSpaceOnUse">
<stop stop-color="white" stop-opacity="0"/>
<stop offset="1" stop-color="#B09DFF"/>
</linearGradient>
<linearGradient id="paint132_linear_413_20649" x1="324.897" y1="-18.7885" x2="406.729" y2="95.1194" gradientUnits="userSpaceOnUse">
<stop stop-color="#B09DFF"/>
<stop offset="0.63" stop-color="white"/>
<stop offset="0.7" stop-color="#FBFAFF"/>
<stop offset="0.78" stop-color="#EFEBFF"/>
<stop offset="0.86" stop-color="#DCD4FF"/>
<stop offset="0.95" stop-color="#C1B3FF"/>
<stop offset="1" stop-color="#B09DFF"/>
</linearGradient>
<linearGradient id="paint133_linear_413_20649" x1="385.177" y1="65.8618" x2="410.192" y2="99.2467" gradientUnits="userSpaceOnUse">
<stop stop-color="white" stop-opacity="0"/>
<stop offset="1" stop-color="#B09DFF"/>
</linearGradient>
<linearGradient id="paint134_linear_413_20649" x1="319.907" y1="172.725" x2="322.755" y2="197.636" gradientUnits="userSpaceOnUse">
<stop stop-color="#F562C2"/>
<stop offset="1" stop-color="#C235D0"/>
</linearGradient>
<linearGradient id="paint135_linear_413_20649" x1="222.184" y1="171.849" x2="223.833" y2="196.652" gradientUnits="userSpaceOnUse">
<stop stop-color="#F562C2"/>
<stop offset="1" stop-color="#C235D0"/>
</linearGradient>
<linearGradient id="paint136_linear_413_20649" x1="284.97" y1="105.633" x2="268.699" y2="86.0637" gradientUnits="userSpaceOnUse">
<stop stop-color="white" stop-opacity="0"/>
<stop offset="1" stop-color="#B09DFF"/>
</linearGradient>
<linearGradient id="paint137_linear_413_20649" x1="301.87" y1="278.144" x2="328.2" y2="278.144" gradientUnits="userSpaceOnUse">
<stop offset="0.03" stop-color="#735CAB"/>
<stop offset="1" stop-color="#180449"/>
</linearGradient>
<linearGradient id="paint138_linear_413_20649" x1="361.18" y1="84.4939" x2="436.31" y2="84.4939" gradientUnits="userSpaceOnUse">
<stop offset="0.03" stop-color="#735CAB"/>
<stop offset="1" stop-color="#180449"/>
</linearGradient>
<linearGradient id="paint139_linear_413_20649" x1="299.259" y1="371.504" x2="298.589" y2="346.714" gradientUnits="userSpaceOnUse">
<stop stop-color="#44BDE2"/>
<stop offset="0.11" stop-color="#48BEE2" stop-opacity="0.98"/>
<stop offset="0.24" stop-color="#54C2E4" stop-opacity="0.91"/>
<stop offset="0.39" stop-color="#69CAE7" stop-opacity="0.8"/>
<stop offset="0.54" stop-color="#86D4EC" stop-opacity="0.64"/>
<stop offset="0.71" stop-color="#ACE1F2" stop-opacity="0.44"/>
<stop offset="0.87" stop-color="#D9F1F9" stop-opacity="0.2"/>
<stop offset="1" stop-color="white" stop-opacity="0"/>
</linearGradient>
<linearGradient id="paint140_linear_413_20649" x1="283.28" y1="412.904" x2="291.63" y2="284.824" gradientUnits="userSpaceOnUse">
<stop stop-color="#44BDE2"/>
<stop offset="0.18" stop-color="#46BDE2" stop-opacity="0.99"/>
<stop offset="0.32" stop-color="#4EC0E3" stop-opacity="0.94"/>
<stop offset="0.44" stop-color="#5CC5E5" stop-opacity="0.87"/>
<stop offset="0.56" stop-color="#6FCCE8" stop-opacity="0.77"/>
<stop offset="0.67" stop-color="#87D4EC" stop-opacity="0.64"/>
<stop offset="0.77" stop-color="#A5DFF1" stop-opacity="0.48"/>
<stop offset="0.88" stop-color="#C9ECF6" stop-opacity="0.28"/>
<stop offset="0.97" stop-color="#F2FAFD" stop-opacity="0.07"/>
<stop offset="1" stop-color="white" stop-opacity="0"/>
</linearGradient>
<linearGradient id="paint141_linear_413_20649" x1="433.9" y1="408.834" x2="493.77" y2="408.834" gradientUnits="userSpaceOnUse">
<stop stop-color="#29FBFF"/>
<stop offset="0.06" stop-color="#28F8FC" stop-opacity="0.91"/>
<stop offset="0.26" stop-color="#27EFF3" stop-opacity="0.64"/>
<stop offset="0.45" stop-color="#26E8EC" stop-opacity="0.41"/>
<stop offset="0.63" stop-color="#25E2E6" stop-opacity="0.23"/>
<stop offset="0.78" stop-color="#24DEE2" stop-opacity="0.11"/>
<stop offset="0.91" stop-color="#24DBDF" stop-opacity="0.03"/>
<stop offset="1" stop-color="#24DBDF" stop-opacity="0"/>
</linearGradient>
<linearGradient id="paint142_linear_413_20649" x1="365.73" y1="410.774" x2="433.92" y2="410.774" gradientUnits="userSpaceOnUse">
<stop stop-color="#29FBFF"/>
<stop offset="0.06" stop-color="#28F8FC" stop-opacity="0.91"/>
<stop offset="0.26" stop-color="#27EFF3" stop-opacity="0.64"/>
<stop offset="0.45" stop-color="#26E8EC" stop-opacity="0.41"/>
<stop offset="0.63" stop-color="#25E2E6" stop-opacity="0.23"/>
<stop offset="0.78" stop-color="#24DEE2" stop-opacity="0.11"/>
<stop offset="0.91" stop-color="#24DBDF" stop-opacity="0.03"/>
<stop offset="1" stop-color="#24DBDF" stop-opacity="0"/>
</linearGradient>
<linearGradient id="paint143_linear_413_20649" x1="365.75" y1="399.244" x2="493.77" y2="399.244" gradientUnits="userSpaceOnUse">
<stop stop-color="#29FBFF"/>
<stop offset="0.06" stop-color="#28F8FC" stop-opacity="0.91"/>
<stop offset="0.26" stop-color="#27EFF3" stop-opacity="0.64"/>
<stop offset="0.45" stop-color="#26E8EC" stop-opacity="0.41"/>
<stop offset="0.63" stop-color="#25E2E6" stop-opacity="0.23"/>
<stop offset="0.78" stop-color="#24DEE2" stop-opacity="0.11"/>
<stop offset="0.91" stop-color="#24DBDF" stop-opacity="0.03"/>
<stop offset="1" stop-color="#24DBDF" stop-opacity="0"/>
</linearGradient>
<linearGradient id="paint144_linear_413_20649" x1="194.05" y1="430.384" x2="237.84" y2="430.384" gradientUnits="userSpaceOnUse">
<stop stop-color="#29FBFF"/>
<stop offset="0.06" stop-color="#28F8FC" stop-opacity="0.91"/>
<stop offset="0.26" stop-color="#27EFF3" stop-opacity="0.64"/>
<stop offset="0.45" stop-color="#26E8EC" stop-opacity="0.41"/>
<stop offset="0.63" stop-color="#25E2E6" stop-opacity="0.23"/>
<stop offset="0.78" stop-color="#24DEE2" stop-opacity="0.11"/>
<stop offset="0.91" stop-color="#24DBDF" stop-opacity="0.03"/>
<stop offset="1" stop-color="#24DBDF" stop-opacity="0"/>
</linearGradient>
<linearGradient id="paint145_linear_413_20649" x1="144.18" y1="431.804" x2="194.06" y2="431.804" gradientUnits="userSpaceOnUse">
<stop stop-color="#29FBFF"/>
<stop offset="0.06" stop-color="#28F8FC" stop-opacity="0.91"/>
<stop offset="0.26" stop-color="#27EFF3" stop-opacity="0.64"/>
<stop offset="0.45" stop-color="#26E8EC" stop-opacity="0.41"/>
<stop offset="0.63" stop-color="#25E2E6" stop-opacity="0.23"/>
<stop offset="0.78" stop-color="#24DEE2" stop-opacity="0.11"/>
<stop offset="0.91" stop-color="#24DBDF" stop-opacity="0.03"/>
<stop offset="1" stop-color="#24DBDF" stop-opacity="0"/>
</linearGradient>
<linearGradient id="paint146_linear_413_20649" x1="144.199" y1="423.364" x2="237.839" y2="423.364" gradientUnits="userSpaceOnUse">
<stop stop-color="#29FBFF"/>
<stop offset="0.06" stop-color="#28F8FC" stop-opacity="0.91"/>
<stop offset="0.26" stop-color="#27EFF3" stop-opacity="0.64"/>
<stop offset="0.45" stop-color="#26E8EC" stop-opacity="0.41"/>
<stop offset="0.63" stop-color="#25E2E6" stop-opacity="0.23"/>
<stop offset="0.78" stop-color="#24DEE2" stop-opacity="0.11"/>
<stop offset="0.91" stop-color="#24DBDF" stop-opacity="0.03"/>
<stop offset="1" stop-color="#24DBDF" stop-opacity="0"/>
</linearGradient>
<clipPath id="clip0_413_20649">
<rect width="481" height="470" fill="white" transform="translate(0.5 0.42334)"/>
</clipPath>
</defs>
</svg>
