<svg width="62" height="63" viewBox="0 0 62 63" fill="none" xmlns="http://www.w3.org/2000/svg">
<path d="M0 16.7173C0 7.88073 7.16344 0.717285 16 0.717285H46C54.8366 0.717285 62 7.88073 62 16.7173V46.7173C62 55.5538 54.8366 62.7173 46 62.7173H16C7.16344 62.7173 0 55.5538 0 46.7173V16.7173Z" fill="url(#paint0_linear_860_2466)" fill-opacity="0.29"/>
<path d="M33.2258 14.2243C33.0502 14.2192 32.8754 14.2493 32.7117 14.313C32.5479 14.3766 32.3987 14.4725 32.2727 14.5949C32.1467 14.7173 32.0466 14.8637 31.9782 15.0255C31.9099 15.1873 31.8747 15.3612 31.8748 15.5368V29.5298C31.8748 30.2543 32.4628 30.8423 33.1873 30.8423H47.1803C47.3559 30.8424 47.5298 30.8072 47.6916 30.7389C47.8534 30.6705 47.9998 30.5704 48.1222 30.4444C48.2446 30.3184 48.3405 30.1691 48.4041 30.0054C48.4678 29.8417 48.4979 29.6669 48.4928 29.4913C48.3715 25.4807 46.7241 21.6675 43.8869 18.8302C41.0496 15.9929 37.2364 14.3455 33.2258 14.2243ZM28.8228 18.0866C28.9574 18.2096 29.0649 18.3594 29.1384 18.5263C29.2119 18.6933 29.2499 18.8737 29.2498 19.0561V29.5298C29.2498 30.5741 29.6646 31.5756 30.403 32.3141C31.1414 33.0525 32.143 33.4673 33.1873 33.4673H43.626C43.8086 33.4673 43.9891 33.5053 44.1562 33.579C44.3232 33.6527 44.473 33.7605 44.596 33.8953C44.7191 34.0302 44.8126 34.1893 44.8707 34.3624C44.9287 34.5355 44.9501 34.7188 44.9333 34.9006C44.655 37.8796 43.534 40.7177 41.7015 43.0828C39.869 45.448 37.4008 47.2423 34.5857 48.2558C31.7706 49.2694 28.7251 49.4602 25.8055 48.806C22.8859 48.1517 20.2131 46.6795 18.0997 44.5616C15.9863 42.4437 14.5198 39.7677 13.8719 36.8467C13.2239 33.9257 13.4213 30.8806 14.4408 28.0677C15.4604 25.2548 17.26 22.7905 19.6291 20.9631C21.9981 19.1356 24.8387 18.0207 27.8183 17.7488C28 17.7322 28.1832 17.7537 28.3561 17.8118C28.5291 17.87 28.688 17.9635 28.8228 18.0866Z" fill="url(#paint1_linear_860_2466)"/>
<defs>
<linearGradient id="paint0_linear_860_2466" x1="4.20339" y1="0.717287" x2="81.1046" y2="21.5202" gradientUnits="userSpaceOnUse">
<stop stop-color="#0146F8"/>
<stop offset="1" stop-color="#962EB9"/>
</linearGradient>
<linearGradient id="paint1_linear_860_2466" x1="15.8706" y1="14.2238" x2="59.2713" y2="25.975" gradientUnits="userSpaceOnUse">
<stop stop-color="#0146F8"/>
<stop offset="1" stop-color="#962EB9"/>
</linearGradient>
</defs>
</svg>
