<svg width="63" height="63" viewBox="0 0 63 63" fill="none" xmlns="http://www.w3.org/2000/svg">
<path d="M0.5 16.7173C0.5 7.88073 7.66344 0.717285 16.5 0.717285H46.5C55.3366 0.717285 62.5 7.88073 62.5 16.7173V46.7173C62.5 55.5538 55.3366 62.7173 46.5 62.7173H16.5C7.66344 62.7173 0.5 55.5538 0.5 46.7173V16.7173Z" fill="url(#paint0_linear_860_63)" fill-opacity="0.29"/>
<mask id="mask0_860_63" style="mask-type:luminance" maskUnits="userSpaceOnUse" x="12" y="16" width="39" height="32">
<path d="M49 20.3423C49 19.6461 48.7234 18.9784 48.2312 18.4861C47.7389 17.9938 47.0712 17.7173 46.375 17.7173H16.625C15.9288 17.7173 15.2611 17.9938 14.7688 18.4861C14.2766 18.9784 14 19.6461 14 20.3423V28.2173H49V20.3423Z" fill="url(#paint1_linear_860_63)" stroke="white" stroke-width="2.66667" stroke-linecap="round" stroke-linejoin="round"/>
<path d="M14.0977 44.8685L24.7517 34.106L30.5092 39.6185L37.5459 33.4673L41.4659 37.2893" stroke="white" stroke-width="2.66667" stroke-linecap="round" stroke-linejoin="round"/>
<path d="M49 26.4673V43.0923C49 43.7885 48.7234 44.4562 48.2312 44.9484C47.7389 45.4407 47.0712 45.7173 46.375 45.7173H21" stroke="white" stroke-width="2.66667" stroke-linecap="round" stroke-linejoin="round"/>
<path d="M27.2225 22.9673H42.9725M20.2207 22.9673H21.9707" stroke="black" stroke-width="2.66667" stroke-linecap="round" stroke-linejoin="round"/>
<path d="M14 26.4673V34.3423" stroke="white" stroke-width="2.66667" stroke-linecap="round" stroke-linejoin="round"/>
</mask>
<g mask="url(#mask0_860_63)">
<path d="M10.5 10.7173H52.5V52.7173H10.5V10.7173Z" fill="url(#paint2_linear_860_63)"/>
</g>
<defs>
<linearGradient id="paint0_linear_860_63" x1="4.70339" y1="0.717287" x2="81.6046" y2="21.5202" gradientUnits="userSpaceOnUse">
<stop stop-color="#0146F8"/>
<stop offset="1" stop-color="#962EB9"/>
</linearGradient>
<linearGradient id="paint1_linear_860_63" x1="16.3729" y1="17.7173" x2="42.0686" y2="40.8876" gradientUnits="userSpaceOnUse">
<stop stop-color="#0146F8"/>
<stop offset="1" stop-color="#962EB9"/>
</linearGradient>
<linearGradient id="paint2_linear_860_63" x1="13.3475" y1="10.7173" x2="65.4418" y2="24.8096" gradientUnits="userSpaceOnUse">
<stop stop-color="#0146F8"/>
<stop offset="1" stop-color="#962EB9"/>
</linearGradient>
</defs>
</svg>
