<svg width="63" height="63" viewBox="0 0 63 63" fill="none" xmlns="http://www.w3.org/2000/svg">
<path d="M0.5 16.9053C0.5 8.06872 7.66344 0.905273 16.5 0.905273H46.5C55.3366 0.905273 62.5 8.06872 62.5 16.9053V46.9053C62.5 55.7418 55.3366 62.9053 46.5 62.9053H16.5C7.66344 62.9053 0.5 55.7418 0.5 46.9053V16.9053Z" fill="url(#paint0_linear_860_1393)" fill-opacity="0.29"/>
<g clip-path="url(#clip0_860_1393)">
<path d="M46.7474 23.3799L46.3169 24.3704C46.2496 24.5317 46.1361 24.6694 45.9907 24.7664C45.8453 24.8633 45.6744 24.915 45.4997 24.915C45.3249 24.915 45.1541 24.8633 45.0086 24.7664C44.8632 24.6694 44.7497 24.5317 44.6824 24.3704L44.2519 23.3799C43.495 21.6276 42.1088 20.2227 40.3669 19.4424L39.0387 18.8491C38.8775 18.775 38.741 18.6562 38.6453 18.5069C38.5496 18.3575 38.4988 18.1839 38.4988 18.0065C38.4988 17.8291 38.5496 17.6555 38.6453 17.5061C38.741 17.3568 38.8775 17.238 39.0387 17.1639L40.2934 16.6056C42.0791 15.803 43.489 14.3462 44.2327 12.5351L44.6772 11.4659C44.7422 11.3003 44.8556 11.1581 45.0026 11.0578C45.1497 10.9576 45.3235 10.904 45.5014 10.904C45.6794 10.904 45.8532 10.9576 46.0002 11.0578C46.1472 11.1581 46.2606 11.3003 46.3257 11.4659L46.7684 12.5334C47.5113 14.3448 48.9205 15.8023 50.7059 16.6056L51.9624 17.1656C52.1231 17.24 52.2591 17.3587 52.3544 17.5079C52.4498 17.657 52.5004 17.8304 52.5004 18.0074C52.5004 18.1844 52.4498 18.3577 52.3544 18.5069C52.2591 18.656 52.1231 18.7748 51.9624 18.8491L50.6324 19.4406C48.8908 20.2218 47.5053 21.6273 46.7492 23.3799M26.2497 14.4059C29.6493 14.4054 32.9331 15.6419 35.488 17.8848C38.0429 20.1276 39.6943 23.2235 40.1342 26.5946L44.0717 32.7879C44.3307 33.1956 44.2782 33.8029 43.6779 34.0619L40.2497 35.5284V40.6559C40.2497 41.5841 39.8809 42.4744 39.2245 43.1308C38.5682 43.7871 37.6779 44.1559 36.7497 44.1559H33.2514L33.2497 49.4059H17.4997V42.9414C17.4997 40.8764 16.7367 38.9216 15.3227 37.1576C13.6737 35.0988 12.64 32.616 12.3405 29.9953C12.0411 27.3746 12.4881 24.7226 13.63 22.3449C14.772 19.9671 16.5624 17.9604 18.7951 16.5558C21.0278 15.1512 23.6119 14.4059 26.2497 14.4059ZM47.5192 42.5844L44.6054 40.6419C46.3336 38.0565 47.254 35.0157 47.2497 31.9059C47.2485 31.0111 47.1762 30.1361 47.0327 29.2809L50.4329 28.4059C50.6429 29.5434 50.7485 30.7101 50.7497 31.9059C50.7497 35.8574 49.5597 39.5289 47.5192 42.5844Z" fill="url(#paint1_linear_860_1393)"/>
</g>
<defs>
<linearGradient id="paint0_linear_860_1393" x1="4.70339" y1="0.905276" x2="81.6046" y2="21.7082" gradientUnits="userSpaceOnUse">
<stop stop-color="#0146F8"/>
<stop offset="1" stop-color="#962EB9"/>
</linearGradient>
<linearGradient id="paint1_linear_860_1393" x1="14.9788" y1="10.904" x2="64.5889" y2="24.9337" gradientUnits="userSpaceOnUse">
<stop stop-color="#0146F8"/>
<stop offset="1" stop-color="#962EB9"/>
</linearGradient>
<clipPath id="clip0_860_1393">
<rect width="42" height="42" fill="white" transform="translate(10.5 10.9053)"/>
</clipPath>
</defs>
</svg>
