<svg width="134" height="133" viewBox="0 0 134 133" fill="none" xmlns="http://www.w3.org/2000/svg">
<g filter="url(#filter0_d_543_25000)">
<rect x="14" y="13.6001" width="106" height="106" rx="23.188" fill="white"/>
<g clip-path="url(#clip0_543_25000)">
<path d="M78.5507 53.9759L84.6339 47.8927L85.0393 45.3313C73.9542 35.2517 56.333 36.3946 46.34 47.7161C43.5646 50.8606 41.5053 54.7809 40.4072 58.8291L42.5859 58.5221L54.7519 56.5157L55.6911 55.5553C61.1029 49.6119 70.2531 48.8123 76.5016 53.8692L78.5507 53.9759Z" fill="#EA4335"/>
<path d="M93.3008 58.6505C91.9027 53.5015 89.0318 48.8726 85.0406 45.3318L76.503 53.8694C78.2823 55.3234 79.7082 57.1623 80.6732 59.2476C81.6382 61.3329 82.1171 63.6101 82.0738 65.9074V67.423C86.2699 67.423 89.6725 70.8249 89.6725 75.0213C89.6725 79.218 86.2702 82.5347 82.0738 82.5347H66.8555L65.3613 84.1568V93.2707L66.8555 94.7006H82.0736C92.9889 94.7856 101.907 86.0914 101.992 75.1761C102.017 71.9186 101.237 68.7054 99.7208 65.8223C98.2045 62.9391 95.9991 60.4755 93.3008 58.6505Z" fill="#4285F4"/>
<path d="M51.656 94.7007H66.853V82.5344H51.656C50.5803 82.534 49.5173 82.3011 48.54 81.8516L46.384 82.5131L40.2582 88.5962L39.7246 90.6667C43.1599 93.2606 47.3514 94.7192 51.656 94.7007Z" fill="#34A853"/>
<path d="M51.6534 55.2361C40.7381 55.3009 31.9421 64.2026 32.0072 75.1182C32.0251 78.1262 32.7294 81.0903 34.0663 83.7849C35.4033 86.4794 37.3376 88.8333 39.722 90.667L48.5374 81.8522C44.713 80.124 43.0133 75.6234 44.7412 71.7991C46.4691 67.9747 50.97 66.275 54.7941 68.0026C56.4792 68.7641 57.8289 70.1139 58.5903 71.7991L67.4056 62.9837C65.5554 60.5649 63.1707 58.6069 60.438 57.2629C57.7053 55.9189 54.6987 55.225 51.6534 55.2361Z" fill="#FBBC05"/>
</g>
</g>
<defs>
<filter id="filter0_d_543_25000" x="0.75" y="0.350098" width="132.5" height="132.5" filterUnits="userSpaceOnUse" color-interpolation-filters="sRGB">
<feFlood flood-opacity="0" result="BackgroundImageFix"/>
<feColorMatrix in="SourceAlpha" type="matrix" values="0 0 0 0 0 0 0 0 0 0 0 0 0 0 0 0 0 0 127 0" result="hardAlpha"/>
<feOffset/>
<feGaussianBlur stdDeviation="6.625"/>
<feComposite in2="hardAlpha" operator="out"/>
<feColorMatrix type="matrix" values="0 0 0 0 1 0 0 0 0 1 0 0 0 0 1 0 0 0 1 0"/>
<feBlend mode="normal" in2="BackgroundImageFix" result="effect1_dropShadow_543_25000"/>
<feBlend mode="normal" in="SourceGraphic" in2="effect1_dropShadow_543_25000" result="shape"/>
</filter>
<clipPath id="clip0_543_25000">
<rect width="69.9859" height="56.3125" fill="white" transform="translate(32.0068 38.4438)"/>
</clipPath>
</defs>
</svg>
