<svg width="158" height="159" viewBox="0 0 158 159" fill="none" xmlns="http://www.w3.org/2000/svg">
<g filter="url(#filter0_d_543_24982)">
<path d="M107.156 26.6001H50.8438C37.1229 26.6001 26 37.723 26 51.4438V107.756C26 121.477 37.1229 132.6 50.8438 132.6H107.156C120.877 132.6 132 121.477 132 107.756V51.4438C132 37.723 120.877 26.6001 107.156 26.6001Z" fill="#242938"/>
<path d="M77.4382 121.42L63.5236 113.094V63.9941L42.5625 76.4777L42.6134 57.8804L77.4382 37.3657V121.42ZM80.5668 37.3657V121.42L94.483 113.094V89.4469L104.988 95.7051L104.925 79.5309L94.483 73.3842V63.9941L115.438 76.4777L115.387 57.8804L80.5668 37.3657Z" fill="#FF6F00"/>
</g>
<defs>
<filter id="filter0_d_543_24982" x="0.162498" y="0.762596" width="157.675" height="157.675" filterUnits="userSpaceOnUse" color-interpolation-filters="sRGB">
<feFlood flood-opacity="0" result="BackgroundImageFix"/>
<feColorMatrix in="SourceAlpha" type="matrix" values="0 0 0 0 0 0 0 0 0 0 0 0 0 0 0 0 0 0 127 0" result="hardAlpha"/>
<feOffset/>
<feGaussianBlur stdDeviation="12.9188"/>
<feComposite in2="hardAlpha" operator="out"/>
<feColorMatrix type="matrix" values="0 0 0 0 1 0 0 0 0 0.435294 0 0 0 0 0 0 0 0 1 0"/>
<feBlend mode="normal" in2="BackgroundImageFix" result="effect1_dropShadow_543_24982"/>
<feBlend mode="normal" in="SourceGraphic" in2="effect1_dropShadow_543_24982" result="shape"/>
</filter>
</defs>
</svg>
