<svg width="52" height="52" viewBox="0 0 52 52" fill="none" xmlns="http://www.w3.org/2000/svg">
<path d="M0.599609 26.0431C0.599609 11.877 12.0835 0.393066 26.2496 0.393066C40.4157 0.393066 51.8996 11.877 51.8996 26.0431C51.8996 40.2092 40.4157 51.6931 26.2496 51.6931C12.0835 51.6931 0.599609 40.2092 0.599609 26.0431Z" fill="white"/>
<path d="M35.2629 22.3303C34.1647 17.4981 29.9495 15.3225 26.2469 15.3225C26.2469 15.3225 26.2469 15.3225 26.2365 15.3225C22.5443 15.3225 18.3187 17.4876 17.2205 22.3199C15.9967 27.7169 19.3019 32.2877 22.2932 35.164C23.4019 36.2309 24.8244 36.7643 26.2469 36.7643C27.6694 36.7643 29.0919 36.2309 30.1901 35.164C33.1815 32.2877 36.4867 27.7274 35.2629 22.3303ZM26.2469 27.5705C24.427 27.5705 22.9522 26.0957 22.9522 24.2758C22.9522 22.4558 24.427 20.9811 26.2469 20.9811C28.0668 20.9811 29.5416 22.4558 29.5416 24.2758C29.5416 26.0957 28.0668 27.5705 26.2469 27.5705Z" fill="url(#paint0_linear_332_13612)"/>
<defs>
<linearGradient id="paint0_linear_332_13612" x1="18.2177" y1="15.3225" x2="41.6449" y2="20.8098" gradientUnits="userSpaceOnUse">
<stop stop-color="#0146F8"/>
<stop offset="1" stop-color="#962EB9"/>
</linearGradient>
</defs>
</svg>
