<svg width="67" height="67" viewBox="0 0 67 67" fill="none" xmlns="http://www.w3.org/2000/svg">
<path d="M0.214844 16.2331C0.214844 7.48488 7.30665 0.393066 16.0548 0.393066H50.3748C59.123 0.393066 66.2148 7.48488 66.2148 16.2331V50.5531C66.2148 59.3013 59.123 66.3931 50.3748 66.3931H16.0548C7.30665 66.3931 0.214844 59.3013 0.214844 50.5531V16.2331Z" fill="white"/>
<path d="M16.7402 52.6129L27.9975 33.2284L16.8501 14.1733H25.0871L32.7201 28.0665H33.7086L41.3416 14.1733H49.5786L38.4311 33.2284L49.6884 52.6129H41.4514L33.7086 38.3903H32.7201L24.9773 52.6129H16.7402Z" fill="url(#paint0_linear_580_2438)"/>
<defs>
<linearGradient id="paint0_linear_580_2438" x1="18.974" y1="14.1733" x2="60.594" y2="23.8238" gradientUnits="userSpaceOnUse">
<stop stop-color="#0146F8"/>
<stop offset="1" stop-color="#962EB9"/>
</linearGradient>
</defs>
</svg>
