<svg width="24" height="24" viewBox="0 0 24 24" fill="none" xmlns="http://www.w3.org/2000/svg">
<g clip-path="url(#clip0_332_13527)">
<path d="M4.71351 7.1281L4.46751 7.6941C4.42906 7.78627 4.36421 7.865 4.28111 7.92038C4.198 7.97575 4.10037 8.00531 4.00051 8.00531C3.90065 8.00531 3.80302 7.97575 3.71992 7.92038C3.63681 7.865 3.57196 7.78627 3.53351 7.6941L3.28751 7.1281C2.85499 6.12683 2.06289 5.32402 1.06751 4.8781L0.30851 4.5391C0.216429 4.49675 0.138424 4.42887 0.0837436 4.34353C0.029063 4.25819 0 4.15896 0 4.0576C0 3.95625 0.029063 3.85702 0.0837436 3.77168C0.138424 3.68633 0.216429 3.61846 0.30851 3.5761L1.02551 3.2571C2.04591 2.79848 2.85157 1.96599 3.27651 0.931105L3.53051 0.320105C3.56767 0.225458 3.63248 0.144203 3.7165 0.0869296C3.80051 0.0296566 3.89983 -0.000976563 4.00151 -0.000976562C4.10319 -0.000976563 4.20251 0.0296566 4.28653 0.0869296C4.37054 0.144203 4.43535 0.225458 4.47251 0.320105L4.72551 0.930105C5.15 1.96518 5.9553 2.79804 6.97551 3.2571L7.69351 3.5771C7.78531 3.61958 7.86304 3.68745 7.91751 3.77268C7.97199 3.85791 8.00094 3.95695 8.00094 4.0581C8.00094 4.15926 7.97199 4.2583 7.91751 4.34353C7.86304 4.42876 7.78531 4.49663 7.69351 4.5391L6.93351 4.8771C5.93832 5.32347 5.14658 6.12663 4.71451 7.1281M18.2295 2.3711L13.2895 6.2131C9.34351 5.2391 5.55951 7.5461 4.50151 11.4971C4.39951 11.8771 4.36751 12.2621 4.33451 12.6661C4.21951 14.0601 4.08751 15.6711 1.00151 17.9961C3.50151 19.4961 8.00151 20.9981 11.5035 20.9981C12.6405 20.9971 13.7624 20.7378 14.7845 20.2398C15.8067 19.7418 16.7023 19.018 17.4037 18.1231C18.1052 17.2283 18.5941 16.1858 18.8337 15.0743C19.0732 13.9628 19.0571 12.8114 18.7865 11.7071L22.6265 6.7691C22.7762 6.57674 22.8504 6.33635 22.8353 6.0931C22.8202 5.84984 22.7168 5.62048 22.5445 5.4481L19.5505 2.4541C19.3783 2.28166 19.149 2.17806 18.9057 2.16278C18.6625 2.14749 18.422 2.22158 18.2295 2.3711ZM16.8965 8.2851C16.833 8.21933 16.7683 8.15466 16.7025 8.0911L15.5785 6.9671L18.7605 4.4921L20.5065 6.2381L18.0305 9.4201L16.8965 8.2851Z" fill="white"/>
</g>
<defs>
<clipPath id="clip0_332_13527">
<rect width="24" height="24" fill="white"/>
</clipPath>
</defs>
</svg>
