<svg width="52" height="52" viewBox="0 0 52 52" fill="none" xmlns="http://www.w3.org/2000/svg">
<path d="M0.300781 26.0431C0.300781 11.877 11.7847 0.393066 25.9508 0.393066C40.1169 0.393066 51.6008 11.877 51.6008 26.0431C51.6008 40.2092 40.1169 51.6931 25.9508 51.6931C11.7847 51.6931 0.300781 40.2092 0.300781 26.0431Z" fill="white"/>
<path fill-rule="evenodd" clip-rule="evenodd" d="M13.3535 20.9616C13.3535 20.7793 13.3632 20.6007 13.3838 20.4232C13.4298 20.017 13.89 19.83 14.2534 20.0313L22.9411 24.8367C24.8086 25.8706 27.0905 25.8706 28.958 24.8367L37.6444 20.0313C38.0077 19.8312 38.4679 20.017 38.514 20.4244C38.5346 20.6007 38.5455 20.7794 38.5455 20.9604V31.1262C38.5455 33.7577 36.3763 35.8911 33.7009 35.8911H18.1983C15.5217 35.8911 13.3537 33.7577 13.3537 31.1262L13.3535 20.9616ZM33.6995 16.1956C34.9385 16.1956 36.0673 16.653 36.9246 17.4046C37.2238 17.6667 37.1354 18.1265 36.7853 18.3195L28.0081 23.1761C26.7291 23.8825 25.1692 23.8825 23.8903 23.1761L15.113 18.3195C14.763 18.1265 14.6746 17.6667 14.9737 17.4046C15.83 16.653 16.96 16.1967 18.1977 16.1967L33.6995 16.1956ZM18.5819 30.4364C18.0466 30.4364 17.613 30.8629 17.613 31.3894C17.613 31.9159 18.0466 32.3424 18.5819 32.3424H23.1044C23.6385 32.3424 24.0733 31.9159 24.0733 31.3894C24.0733 30.8629 23.6385 30.4364 23.1044 30.4364H18.5819Z" fill="url(#paint0_linear_332_13607)"/>
<defs>
<linearGradient id="paint0_linear_332_13607" x1="15.0614" y1="16.1956" x2="45.0093" y2="26.5577" gradientUnits="userSpaceOnUse">
<stop stop-color="#0146F8"/>
<stop offset="1" stop-color="#962EB9"/>
</linearGradient>
</defs>
</svg>
