<svg width="52" height="52" viewBox="0 0 52 52" fill="none" xmlns="http://www.w3.org/2000/svg">
<path d="M0 26.0431C0 11.877 11.4839 0.393066 25.65 0.393066C39.8161 0.393066 51.3 11.877 51.3 26.0431C51.3 40.2092 39.8161 51.6931 25.65 51.6931C11.4839 51.6931 0 40.2092 0 26.0431Z" fill="white"/>
<path d="M21.7549 28.7116C20.6527 27.6388 18.9166 27.5544 17.7071 28.5147L14.3988 31.1483C13.714 31.697 13.2936 32.5117 13.2516 33.3932C13.2095 34.2657 13.5447 35.1241 14.1732 35.7359L14.6287 36.1792C17.562 39.043 22.1336 39.4216 25.4909 37.0839C29.9437 33.9942 33.7117 30.1228 36.6797 25.588C37.6396 24.1188 38.1024 22.4495 38.0801 20.7958C38.05 18.5759 37.1574 16.3856 35.4813 14.7543L35.0258 14.311C34.3973 13.6992 33.5301 13.3874 32.659 13.4531C31.779 13.5189 30.9759 13.9613 30.4461 14.6606L27.9029 18.0391C26.9757 19.2741 27.1071 21.0072 28.2093 22.08L29.5848 23.4188C30.3408 24.1547 30.5001 25.2942 29.9818 26.1821C28.9804 27.9126 27.6062 29.3245 25.9034 30.3723C25.0298 30.9145 23.8865 30.7862 23.1304 30.0503L21.7549 28.7116Z" fill="url(#paint0_linear_332_13602)"/>
<path d="M15.0649 24.0635C15.8966 19.6296 19.439 16.1604 23.8815 15.4323C24.3264 15.3598 24.6411 14.9717 24.6352 14.5349C24.6346 14.49 24.6313 14.4451 24.6235 14.4002C24.5432 13.9105 24.0811 13.5787 23.5914 13.6591C18.4054 14.5087 14.2694 18.5568 13.2985 23.7324C13.2081 24.2244 13.5281 24.6902 14.0165 24.7816C14.505 24.873 14.9735 24.5511 15.0649 24.0635Z" fill="url(#paint1_linear_332_13602)"/>
<path d="M18.3337 25.5847C18.8221 25.677 19.2915 25.356 19.3838 24.8685C19.8787 22.2504 21.9751 20.1985 24.6003 19.763C25.0443 19.6896 25.3582 19.3024 25.3523 18.8656C25.3516 18.8206 25.3483 18.7748 25.3405 18.7291C25.2593 18.2394 24.7964 17.9086 24.3066 17.9898C20.9405 18.5477 18.2524 21.1784 17.6174 24.5346C17.5251 25.024 17.8461 25.4934 18.3337 25.5847Z" fill="url(#paint2_linear_332_13602)"/>
<defs>
<linearGradient id="paint0_linear_332_13602" x1="14.9316" y1="13.4445" x2="45.7883" y2="21.6807" gradientUnits="userSpaceOnUse">
<stop stop-color="#0146F8"/>
<stop offset="1" stop-color="#962EB9"/>
</linearGradient>
<linearGradient id="paint1_linear_332_13602" x1="14.0528" y1="13.6471" x2="28.0983" y2="17.5155" gradientUnits="userSpaceOnUse">
<stop stop-color="#0146F8"/>
<stop offset="1" stop-color="#962EB9"/>
</linearGradient>
<linearGradient id="paint2_linear_332_13602" x1="18.127" y1="17.9775" x2="27.7185" y2="20.6157" gradientUnits="userSpaceOnUse">
<stop stop-color="#0146F8"/>
<stop offset="1" stop-color="#962EB9"/>
</linearGradient>
</defs>
</svg>
